<svg width="18" height="16" viewBox="0 0 18 16" fill="none" xmlns="http://www.w3.org/2000/svg">
<path d="M0 0.533333C0 0.391885 0.0632161 0.256229 0.175741 0.15621C0.288267 0.0561903 0.440884 0 0.600019 0H2.40007C2.53392 3.28656e-05 2.6639 0.0398407 2.76936 0.113093C2.87482 0.186345 2.9497 0.288836 2.98209 0.404267L3.46811 2.13333H17.4005C17.4886 2.13341 17.5756 2.15072 17.6554 2.18405C17.7351 2.21739 17.8056 2.26591 17.8618 2.32619C17.9181 2.38647 17.9587 2.45701 17.9808 2.53282C18.0029 2.60862 18.006 2.68783 17.9898 2.7648L16.1897 11.2981C16.164 11.4204 16.091 11.5307 15.9834 11.6102C15.8758 11.6897 15.7404 11.7332 15.6005 11.7333H4.80015C4.66026 11.7332 4.52482 11.6897 4.41723 11.6102C4.30964 11.5307 4.23667 11.4204 4.21093 11.2981L2.41207 2.7808L1.93206 1.06667H0.600019C0.440884 1.06667 0.288267 1.01048 0.175741 0.910457C0.0632161 0.810438 0 0.674782 0 0.533333ZM3.72252 3.2L5.29816 10.6667H15.1025L16.6781 3.2H3.72252ZM6.00019 11.7333C5.36365 11.7333 4.75318 11.9581 4.30308 12.3582C3.85298 12.7583 3.60011 13.3009 3.60011 13.8667C3.60011 14.4325 3.85298 14.9751 4.30308 15.3752C4.75318 15.7752 5.36365 16 6.00019 16C6.63672 16 7.24719 15.7752 7.69729 15.3752C8.1474 14.9751 8.40026 14.4325 8.40026 13.8667C8.40026 13.3009 8.1474 12.7583 7.69729 12.3582C7.24719 11.9581 6.63672 11.7333 6.00019 11.7333ZM14.4004 11.7333C13.7639 11.7333 13.1534 11.9581 12.7033 12.3582C12.2532 12.7583 12.0004 13.3009 12.0004 13.8667C12.0004 14.4325 12.2532 14.9751 12.7033 15.3752C13.1534 15.7752 13.7639 16 14.4004 16C15.037 16 15.6475 15.7752 16.0976 15.3752C16.5477 14.9751 16.8005 14.4325 16.8005 13.8667C16.8005 13.3009 16.5477 12.7583 16.0976 12.3582C15.6475 11.9581 15.037 11.7333 14.4004 11.7333ZM6.00019 12.8C6.31846 12.8 6.62369 12.9124 6.84874 13.1124C7.07379 13.3125 7.20022 13.5838 7.20022 13.8667C7.20022 14.1496 7.07379 14.4209 6.84874 14.6209C6.62369 14.821 6.31846 14.9333 6.00019 14.9333C5.68192 14.9333 5.37668 14.821 5.15163 14.6209C4.92658 14.4209 4.80015 14.1496 4.80015 13.8667C4.80015 13.5838 4.92658 13.3125 5.15163 13.1124C5.37668 12.9124 5.68192 12.8 6.00019 12.8ZM14.4004 12.8C14.7187 12.8 15.0239 12.9124 15.249 13.1124C15.4741 13.3125 15.6005 13.5838 15.6005 13.8667C15.6005 14.1496 15.4741 14.4209 15.249 14.6209C15.0239 14.821 14.7187 14.9333 14.4004 14.9333C14.0822 14.9333 13.7769 14.821 13.5519 14.6209C13.3268 14.4209 13.2004 14.1496 13.2004 13.8667C13.2004 13.5838 13.3268 13.3125 13.5519 13.1124C13.7769 12.9124 14.0822 12.8 14.4004 12.8V12.8Z" fill="white"/>
</svg>
