<svg width="36" height="31" viewBox="0 0 36 31" fill="none" xmlns="http://www.w3.org/2000/svg">
<path d="M16.2217 5.9937C16.2219 5.76677 16.1851 5.54202 16.1133 5.33231C16.0416 5.1226 15.9365 4.93203 15.8038 4.7715C15.6712 4.61097 15.5137 4.48362 15.3403 4.39673C15.1669 4.30985 14.9811 4.26512 14.7934 4.26512C14.6567 4.26541 14.5208 4.28896 14.3895 4.33511C14.316 4.00355 14.1804 3.69687 13.9932 3.43876C13.8061 3.18065 13.5724 2.97803 13.3102 2.84654C13.0479 2.71505 12.7642 2.65821 12.481 2.68042C12.1977 2.70264 11.9224 2.8033 11.6764 2.97464C11.6434 2.66474 11.5415 2.37148 11.3815 2.12609C11.2216 1.88071 11.0095 1.6924 10.7681 1.58122C10.5266 1.47005 10.2647 1.44017 10.0103 1.49478C9.75585 1.54938 9.51845 1.68643 9.32336 1.8913C9.10359 1.51419 8.79408 1.22693 8.436 1.06774C8.07792 0.90855 7.68825 0.884978 7.31882 1.00016C6.94939 1.11534 6.61771 1.36381 6.36792 1.71252C6.11813 2.06123 5.96206 2.49365 5.92047 2.95225C5.71286 2.73739 5.45868 2.599 5.18803 2.55347C4.91739 2.50793 4.64162 2.55715 4.39339 2.69531C4.14517 2.83346 3.93489 3.05476 3.78747 3.33298C3.64005 3.6112 3.56166 3.93469 3.56159 4.26512V4.26512C3.32084 4.15384 3.06357 4.10433 2.80614 4.11971C2.54871 4.1351 2.29674 4.21506 2.06624 4.35451C1.83573 4.49397 1.63172 4.68986 1.46717 4.92976C1.30263 5.16966 1.18113 5.44832 1.11041 5.74803C1.03969 6.04775 1.02128 6.36198 1.05636 6.67076C1.09144 6.97955 1.17924 7.27613 1.31418 7.54168C1.44912 7.80723 1.62826 8.03595 1.84021 8.2133C2.05216 8.39065 2.29229 8.51276 2.54536 8.57187C3.68891 9.78678 6.04547 10.621 8.76778 10.621C12.3292 10.621 15.2645 9.19472 15.6766 7.35277C15.8466 7.19098 15.9841 6.98456 16.0785 6.74913C16.173 6.51369 16.2219 6.25538 16.2217 5.9937V5.9937Z" fill="#FCC8BC"/>
<path d="M7.78743 0.925782C8.25274 0.925293 8.70142 1.13494 9.04557 1.51364C8.73355 1.66898 8.46198 1.92326 8.2595 2.24966C8.05701 2.57606 7.93111 2.96248 7.89507 3.36819C7.68746 3.15334 7.43328 3.01495 7.16264 2.96941C6.89199 2.92387 6.61622 2.9731 6.368 3.11125C6.11977 3.2494 5.90949 3.4707 5.76207 3.74892C5.61465 4.02714 5.53626 4.35063 5.5362 4.68107C5.29544 4.56979 5.03818 4.52027 4.78075 4.53566C4.52332 4.55105 4.27135 4.63101 4.04084 4.77046C3.81033 4.90991 3.60632 5.1058 3.44178 5.3457C3.27723 5.5856 3.15573 5.86426 3.08501 6.16398C3.01429 6.4637 2.99588 6.77792 3.03096 7.08671C3.06604 7.39549 3.15384 7.69207 3.28878 7.95762C3.42372 8.22318 3.60286 8.45189 3.81481 8.62924C4.02676 8.80659 4.26689 8.9287 4.51996 8.98782C5.12415 9.63166 6.07094 10.1677 7.2307 10.5274C5.17623 10.2811 3.46668 9.54768 2.54536 8.56792C2.29229 8.50881 2.05216 8.38669 1.84021 8.20934C1.62826 8.03199 1.44912 7.80328 1.31418 7.53773C1.17924 7.27218 1.09144 6.97559 1.05636 6.66681C1.02128 6.35803 1.03969 6.0438 1.11041 5.74408C1.18113 5.44436 1.30263 5.1657 1.46717 4.9258C1.63172 4.68591 1.83573 4.49001 2.06624 4.35056C2.29674 4.21111 2.54871 4.13115 2.80614 4.11576C3.06357 4.10037 3.32084 4.14989 3.56159 4.26117C3.56244 3.93148 3.64131 3.60897 3.78887 3.33174C3.93643 3.05451 4.14652 2.83414 4.39433 2.69667C4.64214 2.5592 4.91731 2.51037 5.18733 2.55595C5.45735 2.60153 5.71095 2.73961 5.91815 2.95389C5.96786 2.39648 6.18626 1.88099 6.53134 1.50659C6.87643 1.13218 7.32381 0.925314 7.78743 0.925782V0.925782Z" fill="#FAB3A7"/>
<path d="M15.9658 22.9912C11.2304 24.4469 6.26904 24.4469 1.53361 22.9912C0.839139 22.9912 0.28125 22.3642 0.28125 21.5916V7.59497C0.28125 6.81956 0.841453 6.19531 1.53361 6.19531C6.27816 7.55996 11.2212 7.55996 15.9658 6.19531C16.6603 6.19531 17.2193 6.82236 17.2193 7.59497V21.5916C17.2193 22.3642 16.6579 22.9912 15.9658 22.9912Z" fill="#32314B"/>
<path d="M17.2193 21.2037V21.5886C17.2193 22.364 16.6579 22.9883 15.9658 22.9883C11.2304 24.4439 6.26904 24.4439 1.53361 22.9883C0.839139 22.9883 0.28125 22.3612 0.28125 21.5886V7.59204C0.28125 6.81803 0.841453 6.19238 1.53361 6.19238C1.81911 6.27356 2.105 6.34961 2.39127 6.42053V19.5605C2.39127 20.3359 2.95263 20.9602 3.64363 20.9602C8.09045 22.3277 12.7409 22.4111 17.2193 21.2037V21.2037Z" fill="#27273D"/>
<path d="M14.8149 16.8018C15.5928 16.8018 16.2235 16.0392 16.2235 15.0984C16.2235 14.1577 15.5928 13.395 14.8149 13.395C14.0369 13.395 13.4062 14.1577 13.4062 15.0984C13.4062 16.0392 14.0369 16.8018 14.8149 16.8018Z" fill="#3E436D"/>
<path d="M14.818 12.7568C15.3691 12.7568 15.8157 12.2166 15.8157 11.5503C15.8157 10.8839 15.3691 10.3438 14.818 10.3438C14.267 10.3438 13.8203 10.8839 13.8203 11.5503C13.8203 12.2166 14.267 12.7568 14.818 12.7568Z" fill="#3E436D"/>
<path d="M12.8461 5.77392C13.3824 5.77392 13.8172 5.24816 13.8172 4.59961C13.8172 3.95105 13.3824 3.42529 12.8461 3.42529C12.3098 3.42529 11.875 3.95105 11.875 4.59961C11.875 5.24816 12.3098 5.77392 12.8461 5.77392Z" fill="#F58D89"/>
<path d="M8.08047 4.09863C8.61679 4.09863 9.05157 3.57287 9.05157 2.92431C9.05157 2.27576 8.61679 1.75 8.08047 1.75C7.54415 1.75 7.10938 2.27576 7.10938 2.92431C7.10938 3.57287 7.54415 4.09863 8.08047 4.09863Z" fill="#F58D89"/>
<path d="M5.04922 6.53271C5.58554 6.53271 6.02032 6.00695 6.02032 5.3584C6.02032 4.70984 5.58554 4.18408 5.04922 4.18408C4.5129 4.18408 4.07812 4.70984 4.07812 5.3584C4.07812 6.00695 4.5129 6.53271 5.04922 6.53271Z" fill="#F58D89"/>
<path d="M9.7211 6.94873C10.2574 6.94873 10.6922 6.42297 10.6922 5.77441C10.6922 5.12586 10.2574 4.6001 9.7211 4.6001C9.18477 4.6001 8.75 5.12586 8.75 5.77441C8.75 6.42297 9.18477 6.94873 9.7211 6.94873Z" fill="#F58D89"/>
<path d="M34.2877 5.99373C34.2877 5.7251 34.236 5.46017 34.1365 5.21995C34.0371 4.97973 33.8927 4.77085 33.7149 4.60986C33.5371 4.44888 33.3307 4.34024 33.112 4.29255C32.8934 4.24486 32.6686 4.25944 32.4555 4.33514C32.382 4.00358 32.2464 3.6969 32.0592 3.43879C31.8721 3.18068 31.6384 2.97806 31.3761 2.84657C31.1139 2.71508 30.8302 2.65824 30.5469 2.68045C30.2637 2.70266 29.9884 2.80333 29.7424 2.97467C29.7094 2.66477 29.6075 2.3715 29.4475 2.12612C29.2875 1.88074 29.0755 1.69243 28.834 1.58125C28.5926 1.47008 28.3307 1.4402 28.0763 1.49481C27.8218 1.54941 27.5844 1.68645 27.3893 1.89133C27.1698 1.51319 26.8602 1.22497 26.5018 1.06511C26.1433 0.90526 25.7531 0.881377 25.3831 0.996647C25.0131 1.11192 24.681 1.36086 24.4311 1.71027C24.1811 2.05968 24.0252 2.49295 23.9841 2.95227C23.7765 2.73742 23.5224 2.59903 23.2517 2.55349C22.9811 2.50796 22.7053 2.55718 22.4571 2.69533C22.2088 2.83349 21.9986 3.05478 21.8511 3.33301C21.7037 3.61123 21.6253 3.93472 21.6253 4.26515V4.26515C21.3844 4.15361 21.127 4.10389 20.8694 4.11915C20.6119 4.13442 20.3597 4.21433 20.129 4.35381C19.8984 4.49329 19.6942 4.68929 19.5296 4.92934C19.365 5.16939 19.2434 5.44825 19.1728 5.74817C19.1021 6.04809 19.0838 6.36252 19.119 6.67146C19.1542 6.9804 19.2423 7.2771 19.3774 7.54268C19.5126 7.80826 19.6921 8.03691 19.9043 8.2141C20.1165 8.39129 20.3569 8.51314 20.6102 8.5719C21.7526 9.78681 24.1103 10.621 26.8326 10.621C30.3941 10.621 33.3294 9.19475 33.7402 7.3528C33.9109 7.19143 34.0489 6.98517 34.1437 6.74968C34.2386 6.5142 34.2878 6.25567 34.2877 5.99373V5.99373Z" fill="#FCC8BC"/>
<path d="M25.8501 0.925798C26.3154 0.925309 26.764 1.13496 27.1082 1.51366C26.7962 1.66918 26.5246 1.92347 26.3219 2.24981C26.1193 2.57615 25.993 2.96249 25.9565 3.3682C25.7489 3.15335 25.4947 3.01496 25.2241 2.96942C24.9535 2.92389 24.6777 2.97311 24.4295 3.11127C24.1812 3.24942 23.971 3.47072 23.8235 3.74894C23.6761 4.02716 23.5977 4.35065 23.5977 4.68108C23.3567 4.56903 23.099 4.51891 22.8411 4.53393C22.5832 4.54895 22.3307 4.62878 22.0998 4.76832C21.8688 4.90787 21.6644 5.10407 21.4996 5.34443C21.3348 5.58478 21.2132 5.86402 21.1426 6.16434C21.0719 6.46466 21.0538 6.77948 21.0894 7.08874C21.1249 7.39799 21.2134 7.6949 21.3491 7.96053C21.4848 8.22616 21.6647 8.4547 21.8775 8.63157C22.0903 8.80845 22.3312 8.92978 22.5849 8.98783C23.1902 9.63168 24.1359 10.1677 25.2968 10.5275C23.2423 10.2811 21.5316 9.5477 20.6115 8.56794C20.3598 8.50723 20.1213 8.38416 19.911 8.20646C19.7006 8.02876 19.523 7.8003 19.3893 7.53548C19.2556 7.27065 19.1687 6.9752 19.1341 6.66776C19.0996 6.36031 19.118 6.04753 19.1883 5.74914C19.2587 5.45074 19.3794 5.1732 19.5428 4.934C19.7062 4.69481 19.9089 4.49915 20.1379 4.35936C20.367 4.21956 20.6175 4.13867 20.8737 4.12177C21.1299 4.10488 21.3863 4.15234 21.6265 4.26119C21.6277 3.80527 21.7777 3.36837 22.0439 3.04546C22.3101 2.72255 22.6709 2.53976 23.0479 2.53681C23.3882 2.53761 23.717 2.68667 23.9738 2.9567C24.0234 2.39747 24.2426 1.88031 24.5892 1.50519C24.9357 1.13007 25.385 0.923637 25.8501 0.925798Z" fill="#FAB3A7"/>
<path d="M34.0295 22.9912C29.294 24.4469 24.3327 24.4469 19.5973 22.9912C18.9028 22.9912 18.3438 22.3642 18.3438 21.5916V7.59497C18.3438 6.81956 18.9051 6.19531 19.5973 6.19531C24.3418 7.55996 29.2849 7.55996 34.0295 6.19531C34.7239 6.19531 35.2818 6.82236 35.2818 7.59497V21.5916C35.2818 22.3642 34.7216 22.9912 34.0295 22.9912Z" fill="#32314B"/>
<path d="M35.2818 21.2037V21.5886C35.2818 22.364 34.7216 22.9883 34.0295 22.9883C29.2936 24.4439 24.3319 24.4439 19.5961 22.9883C18.9016 22.9883 18.3438 22.3612 18.3438 21.5886V7.59204C18.3438 6.81803 18.9051 6.19238 19.5961 6.19238C19.8832 6.27356 20.1694 6.34961 20.4549 6.42053V19.5605C20.4549 20.3359 21.0163 20.9602 21.7073 20.9602C26.1537 22.3276 30.8038 22.4111 35.2818 21.2037V21.2037Z" fill="#27273D"/>
<path d="M32.8774 16.8018C33.6553 16.8018 34.286 16.0392 34.286 15.0984C34.286 14.1577 33.6553 13.395 32.8774 13.395C32.0994 13.395 31.4688 14.1577 31.4688 15.0984C31.4688 16.0392 32.0994 16.8018 32.8774 16.8018Z" fill="#3E436D"/>
<path d="M32.8805 12.7568C33.4316 12.7568 33.8783 12.2166 33.8783 11.5503C33.8783 10.8839 33.4316 10.3438 32.8805 10.3438C32.3295 10.3438 31.8828 10.8839 31.8828 11.5503C31.8828 12.2166 32.3295 12.7568 32.8805 12.7568Z" fill="#3E436D"/>
<path d="M30.9086 5.77392C31.4449 5.77392 31.8797 5.24816 31.8797 4.59961C31.8797 3.95105 31.4449 3.42529 30.9086 3.42529C30.3723 3.42529 29.9375 3.95105 29.9375 4.59961C29.9375 5.24816 30.3723 5.77392 30.9086 5.77392Z" fill="#F58D89"/>
<path d="M26.143 4.09863C26.6793 4.09863 27.1141 3.57287 27.1141 2.92431C27.1141 2.27576 26.6793 1.75 26.143 1.75C25.6066 1.75 25.1719 2.27576 25.1719 2.92431C25.1719 3.57287 25.6066 4.09863 26.143 4.09863Z" fill="#F58D89"/>
<path d="M23.1117 6.53271C23.648 6.53271 24.0828 6.00695 24.0828 5.3584C24.0828 4.70984 23.648 4.18408 23.1117 4.18408C22.5754 4.18408 22.1406 4.70984 22.1406 5.3584C22.1406 6.00695 22.5754 6.53271 23.1117 6.53271Z" fill="#F58D89"/>
<path d="M27.7836 6.94873C28.3199 6.94873 28.7547 6.42297 28.7547 5.77441C28.7547 5.12586 28.3199 4.6001 27.7836 4.6001C27.2473 4.6001 26.8125 5.12586 26.8125 5.77441C26.8125 6.42297 27.2473 6.94873 27.7836 6.94873Z" fill="#F58D89"/>
<path d="M25.7978 12.5818C25.7978 12.3548 25.7608 12.1301 25.689 11.9204C25.6172 11.7106 25.5119 11.5201 25.3791 11.3596C25.2464 11.199 25.0888 11.0717 24.9154 10.9849C24.742 10.898 24.5561 10.8533 24.3684 10.8533C24.2317 10.8536 24.0957 10.8771 23.9644 10.9233C23.8909 10.5917 23.7553 10.285 23.5682 10.0269C23.381 9.7688 23.1473 9.56618 22.8851 9.43469C22.6229 9.3032 22.3392 9.24636 22.0559 9.26857C21.7726 9.29078 21.4974 9.39145 21.2514 9.56279C21.2183 9.25289 21.1164 8.95962 20.9565 8.71424C20.7965 8.46886 20.5845 8.28055 20.343 8.16937C20.1015 8.05819 19.8396 8.02832 19.5852 8.08292C19.3308 8.13753 19.0934 8.27457 18.8983 8.47945C18.6787 8.10182 18.3691 7.81408 18.0108 7.65456C17.6525 7.49504 17.2626 7.47131 16.8929 7.58654C16.5232 7.70176 16.1913 7.95047 15.9414 8.29953C15.6916 8.64859 15.5356 9.08143 15.4942 9.54039C15.2866 9.32554 15.0324 9.18715 14.7618 9.14161C14.4912 9.09607 14.2154 9.1453 13.9672 9.28345C13.7189 9.42161 13.5087 9.6429 13.3612 9.92112C13.2138 10.1993 13.1354 10.5228 13.1354 10.8533V10.8533C12.8944 10.7412 12.6367 10.6911 12.3788 10.7061C12.1209 10.7211 11.8684 10.801 11.6375 10.9405C11.4065 11.0801 11.2021 11.2763 11.0373 11.5166C10.8725 11.757 10.7509 12.0362 10.6803 12.3365C10.6096 12.6369 10.5915 12.9517 10.6271 13.2609C10.6626 13.5702 10.7511 13.8671 10.8868 14.1327C11.0225 14.3984 11.2024 14.6269 11.4152 14.8038C11.628 14.9806 11.8689 15.102 12.1226 15.16C13.2662 16.3749 15.6227 17.2091 18.3462 17.2091C21.9065 17.2091 24.8429 15.7829 25.2538 13.9409C25.4238 13.7791 25.5611 13.5727 25.6554 13.3372C25.7496 13.1018 25.7983 12.8434 25.7978 12.5818V12.5818Z" fill="#FCC8BC"/>
<path d="M17.3637 7.51367C17.8293 7.51297 18.2785 7.72262 18.623 8.10153C18.3108 8.2568 18.039 8.51102 17.8364 8.83741C17.6337 9.1638 17.5076 9.55027 17.4713 9.95608C17.2637 9.74123 17.0095 9.60284 16.7389 9.5573C16.4682 9.51176 16.1924 9.56099 15.9442 9.69914C15.696 9.8373 15.4857 10.0586 15.3383 10.3368C15.1909 10.615 15.1125 10.9385 15.1124 11.269C14.8719 11.1585 14.6151 11.1096 14.3581 11.1254C14.1012 11.1412 13.8497 11.2213 13.6197 11.3606C13.3897 11.5 13.1861 11.6956 13.0218 11.935C12.8575 12.1744 12.7362 12.4525 12.6653 12.7516C12.5945 13.0507 12.5758 13.3643 12.6104 13.6726C12.645 13.9809 12.7322 14.2771 12.8663 14.5426C13.0005 14.8081 13.1788 15.0369 13.3899 15.2148C13.601 15.3926 13.8403 15.5155 14.0927 15.5757C14.6981 16.2196 15.6437 16.7556 16.8035 17.1153C14.749 16.869 13.0394 16.1356 12.1193 15.1558C11.8676 15.0951 11.6291 14.972 11.4188 14.7943C11.2085 14.6166 11.0308 14.3882 10.8971 14.1234C10.7634 13.8585 10.6766 13.5631 10.642 13.2556C10.6074 12.9482 10.6258 12.6354 10.6961 12.337C10.7665 12.0386 10.8872 11.7611 11.0506 11.5219C11.214 11.2827 11.4167 11.087 11.6457 10.9472C11.8748 10.8074 12.1253 10.7265 12.3815 10.7097C12.6377 10.6928 12.8941 10.7402 13.1343 10.8491C13.1342 10.5185 13.2124 10.1948 13.3598 9.91643C13.5072 9.63804 13.7176 9.41667 13.966 9.27858C14.2144 9.14049 14.4903 9.0915 14.761 9.13741C15.0317 9.18332 15.2858 9.32221 15.4932 9.53758C15.5437 8.98069 15.7627 8.46602 16.1079 8.09245C16.4531 7.71888 16.9004 7.51275 17.3637 7.51367V7.51367Z" fill="#FAB3A7"/>
<path d="M25.5451 29.9082C20.8093 31.3639 15.8475 31.3639 11.1117 29.9082C10.4173 29.9082 9.85938 29.2812 9.85938 28.5085V14.512C9.85938 13.7366 10.4207 13.1123 11.1117 13.1123C15.8567 14.477 20.8001 14.477 25.5451 13.1123C26.2395 13.1123 26.7974 13.7394 26.7974 14.512V28.5085C26.7974 29.2812 26.2361 29.9082 25.5451 29.9082Z" fill="#32314B"/>
<path d="M26.7974 27.7921V28.177C26.7974 28.9524 26.2361 29.5767 25.5439 29.5767C20.8085 31.0323 15.8472 31.0323 11.1117 29.5767C10.4173 29.5767 9.85938 28.9496 9.85938 28.177V14.1804C9.85938 13.4064 10.4207 12.7808 11.1117 12.7808C11.398 12.8619 11.6839 12.938 11.9694 13.0089V26.1489C11.9694 26.9243 12.5308 27.5486 13.2229 27.5486C17.6693 28.916 22.3194 28.9994 26.7974 27.7921V27.7921Z" fill="#27273D"/>
<path d="M24.393 23.3902C25.1709 23.3902 25.8016 22.6275 25.8016 21.6868C25.8016 20.746 25.1709 19.9834 24.393 19.9834C23.615 19.9834 22.9844 20.746 22.9844 21.6868C22.9844 22.6275 23.615 23.3902 24.393 23.3902Z" fill="#3E436D"/>
<path d="M24.3883 19.3451C24.9394 19.3451 25.3861 18.805 25.3861 18.1386C25.3861 17.4723 24.9394 16.9321 24.3883 16.9321C23.8373 16.9321 23.3906 17.4723 23.3906 18.1386C23.3906 18.805 23.8373 19.3451 24.3883 19.3451Z" fill="#3E436D"/>
<path d="M22.4242 12.3623C22.9605 12.3623 23.3953 11.8365 23.3953 11.188C23.3953 10.5394 22.9605 10.0137 22.4242 10.0137C21.8879 10.0137 21.4531 10.5394 21.4531 11.188C21.4531 11.8365 21.8879 12.3623 22.4242 12.3623Z" fill="#F58D89"/>
<path d="M17.6508 10.687C18.1871 10.687 18.6219 10.1612 18.6219 9.51269C18.6219 8.86414 18.1871 8.33838 17.6508 8.33838C17.1145 8.33838 16.6797 8.86414 16.6797 9.51269C16.6797 10.1612 17.1145 10.687 17.6508 10.687Z" fill="#F58D89"/>
<path d="M14.6195 13.1211C15.1559 13.1211 15.5906 12.5953 15.5906 11.9468C15.5906 11.2982 15.1559 10.7725 14.6195 10.7725C14.0832 10.7725 13.6484 11.2982 13.6484 11.9468C13.6484 12.5953 14.0832 13.1211 14.6195 13.1211Z" fill="#F58D89"/>
<path d="M19.2992 13.5361C19.8355 13.5361 20.2703 13.0104 20.2703 12.3618C20.2703 11.7133 19.8355 11.1875 19.2992 11.1875C18.7629 11.1875 18.3281 11.7133 18.3281 12.3618C18.3281 13.0104 18.7629 13.5361 19.2992 13.5361Z" fill="#F58D89"/>
</svg>
