<svg width="35" height="35" viewBox="0 0 35 35" fill="none" xmlns="http://www.w3.org/2000/svg">
<path d="M32.7173 19.0183C32.6109 19.0183 32.516 18.9385 32.4961 18.8226C32.4734 18.6947 32.5514 18.5713 32.6719 18.5457C32.7839 18.5126 32.903 18.5773 32.9427 18.6947C32.9852 18.8196 32.9243 18.9566 32.8066 19.0002C32.791 19.0062 32.7754 19.0107 32.7584 19.0138C32.7442 19.0168 32.73 19.0183 32.7173 19.0183ZM32.6549 18.5503C32.6535 18.5503 32.6535 18.5503 32.6549 18.5503C32.6535 18.5503 32.6535 18.5503 32.6549 18.5503Z" fill="#6B184E"/>
<path d="M31.1832 19.0055C31.1619 19.0055 31.1406 19.001 31.1194 18.9935C31.1109 18.9905 31.1038 18.9875 31.0967 18.9845C31.0003 18.9453 30.9521 18.8295 30.9889 18.7271C31.0258 18.6248 31.135 18.5736 31.2314 18.6128L31.2456 18.6173C31.3434 18.6549 31.393 18.7693 31.3576 18.8731C31.332 18.9559 31.2612 19.0055 31.1832 19.0055Z" fill="#6B184E"/>
<path d="M30.6489 16.6521C30.2193 14.5799 32.4126 13.692 33.2717 14.2909L30.6489 16.6521Z" fill="#CC8237"/>
<path d="M12.0443 26.693C11.5084 26.9683 10.9881 27.2874 10.4734 27.6199C9.9602 27.954 9.45549 28.3032 8.9522 28.6583C7.94561 29.3686 6.95745 30.109 5.94803 30.8253C5.4419 31.182 4.93294 31.5356 4.40554 31.8606C3.87956 32.1887 3.33799 32.4957 2.76097 32.738C2.61637 32.7982 2.47034 32.8554 2.31864 32.902C2.24492 32.9276 2.16695 32.9457 2.09039 32.9682C2.01241 32.9848 1.93586 33.0058 1.85505 33.0164C1.69626 33.0435 1.5318 33.054 1.36451 33.0344C1.19864 33.0149 1.02567 32.9622 0.876812 32.8584C0.72795 32.756 0.614532 32.604 0.54081 32.4445C0.501113 32.3648 0.477012 32.2805 0.45291 32.1977C0.435898 32.1135 0.414631 32.0307 0.407543 31.9464C0.365011 31.6108 0.382024 31.2813 0.423138 30.9592C0.428809 30.9156 0.467088 30.8855 0.508202 30.8915C0.546481 30.8975 0.574835 30.9337 0.573417 30.9743V30.9758C0.560658 31.2918 0.563494 31.6108 0.621621 31.9103C0.675494 32.2083 0.801672 32.4882 1.02142 32.6221C1.23975 32.7575 1.52755 32.7545 1.80401 32.6943C2.0833 32.6402 2.36117 32.5288 2.63196 32.4069C2.90275 32.2835 3.16928 32.1406 3.43014 31.9871C3.69242 31.8351 3.95187 31.6771 4.20848 31.5115C4.72028 31.1789 5.22924 30.8373 5.73253 30.4837C6.74054 29.7794 7.73579 29.0481 8.74521 28.3317C9.24992 27.9751 9.75889 27.623 10.2792 27.2844C10.7995 26.9488 11.3283 26.6237 11.8812 26.3393C11.9748 26.2912 12.0868 26.3333 12.1322 26.4311C12.1775 26.5289 12.1393 26.6448 12.0443 26.693Z" fill="#6B184E"/>
<path d="M26.2238 18.4434C26.1104 18.5427 25.9884 18.6195 25.8651 18.6902C25.7418 18.7624 25.6156 18.8226 25.488 18.8798C25.3604 18.9385 25.2314 18.9897 25.1009 19.0408C24.9705 19.092 24.8415 19.1462 24.7139 19.2034C24.4573 19.3162 24.2106 19.4517 23.9526 19.5615C23.8236 19.6157 23.6946 19.6699 23.5599 19.712C23.4252 19.7542 23.2891 19.7918 23.1431 19.8083C23.0991 19.8128 23.0608 19.7797 23.0552 19.7346C23.0523 19.7075 23.0623 19.6819 23.0793 19.6639C23.1856 19.5555 23.3033 19.4712 23.4224 19.3915C23.5414 19.3117 23.6662 19.244 23.7924 19.1793C24.0447 19.0499 24.3099 18.9506 24.5679 18.8362C24.6969 18.7775 24.8259 18.7203 24.9535 18.6601C25.0811 18.5999 25.2101 18.5412 25.342 18.4916C25.4738 18.4419 25.6071 18.3953 25.7446 18.3607C25.8821 18.326 26.0225 18.299 26.1699 18.2959C26.2139 18.2944 26.2493 18.3321 26.2507 18.3787C26.2536 18.4028 26.2422 18.4284 26.2238 18.4434Z" fill="#6B184E"/>
<path d="M16.8028 23.4848C16.6809 23.6834 16.5236 23.8189 16.3577 23.9423C16.1918 24.0657 16.0103 24.162 15.8416 24.2793C15.6715 24.3937 15.5127 24.5276 15.3369 24.6345C15.1625 24.7428 14.9796 24.8376 14.7599 24.8723H14.7585C14.7145 24.8798 14.672 24.8467 14.6649 24.8C14.6621 24.7775 14.6663 24.7564 14.6777 24.7398C14.7982 24.5442 14.957 24.4073 15.1228 24.2839C15.2887 24.159 15.4702 24.0611 15.6403 23.9438C15.8133 23.8309 15.9721 23.6955 16.1479 23.5871C16.3237 23.4788 16.5065 23.3824 16.7249 23.3493C16.7702 23.3433 16.8114 23.3764 16.817 23.4231C16.8199 23.4441 16.8156 23.4652 16.8043 23.4833L16.8028 23.4848Z" fill="#6B184E"/>
<path d="M25.3248 8.33778C25.5119 8.44162 25.6792 8.57103 25.8394 8.70948C25.9996 8.84793 26.1485 8.99992 26.2889 9.15943C26.4306 9.31895 26.5653 9.48448 26.6887 9.65905C26.812 9.83512 26.9311 10.0142 27.0289 10.2113C27.0488 10.2505 27.0346 10.3001 26.9977 10.3212C26.9708 10.3362 26.9368 10.3332 26.9141 10.3137C26.751 10.1782 26.6022 10.0307 26.4533 9.88478C26.3059 9.7373 26.1627 9.58681 26.0209 9.43482C25.8791 9.28283 25.7402 9.12783 25.6055 8.96681C25.4722 8.80429 25.3404 8.64026 25.2241 8.45666C25.2 8.41904 25.21 8.36788 25.2454 8.34229C25.2695 8.32423 25.3007 8.32424 25.3248 8.33778Z" fill="#6B184E"/>
<path d="M17.3757 4.04357C17.9116 4.12935 18.4418 4.25576 18.9635 4.41226C19.4853 4.57028 19.9999 4.75688 20.5032 4.97809C21.0051 5.20081 21.4914 5.46115 21.9649 5.74557C22.437 6.0315 22.8921 6.34902 23.3202 6.70266C23.3528 6.72975 23.3585 6.77941 23.333 6.81553C23.3103 6.84713 23.2692 6.85466 23.238 6.8366C22.7645 6.56723 22.2895 6.30839 21.8075 6.0646C21.3269 5.81931 20.8392 5.59508 20.3458 5.37989C19.8553 5.16319 19.3591 4.95552 18.8572 4.7629C18.3553 4.56877 17.8492 4.38518 17.3402 4.19857C17.3006 4.18352 17.2793 4.13838 17.2935 4.09624C17.3048 4.06013 17.3402 4.03906 17.3757 4.04357Z" fill="#6B184E"/>
<path d="M29.5336 17.0795C26.3934 9.46792 17.6049 4.16629 9.83145 4.58464C9.32106 5.52367 8.79792 6.55902 8.27053 7.6666C10.4879 7.99917 10.8834 10.6191 9.96471 12.4475C8.82486 14.7169 6.84571 16.935 4.77582 16.1661C4.75598 16.1585 4.73613 16.151 4.7177 16.1435C3.92093 18.2924 3.17521 20.5001 2.52163 22.6746C3.61896 21.409 5.08205 21.0238 6.05603 21.6633C7.26252 22.4564 7.44541 24.0064 5.86039 25.9898C4.65248 27.5037 3.01642 28.214 2.00558 27.4119C1.74472 27.2042 1.55758 26.9228 1.44132 26.5902C1.34208 26.989 1.24709 27.3848 1.15636 27.7761C0.901168 28.8731 0.682838 29.9416 0.507039 30.9634C0.467343 31.1891 0.430482 31.4148 0.395038 31.636C0.339747 31.9927 0.288709 32.3448 0.243341 32.6894C0.0533655 34.1582 1.51363 35.2387 2.74989 34.5464C3.94645 33.7594 5.13309 32.9814 6.30555 32.2124C6.33532 32.1958 6.36368 32.1808 6.39204 32.1657C7.70202 31.5006 8.73696 32.867 9.58476 32.4607C10.0129 32.256 10.1533 31.8362 10.2412 30.6172C10.4184 28.6037 13.5842 28.2215 14.2675 30.843C14.8913 33.2538 16.7485 32.7451 16.2651 30.843C16.1829 30.5209 16.0397 30.22 15.8596 29.9446C14.8871 28.4698 14.3001 27.2614 15.8781 26.0635C17.1852 25.2494 18.4541 24.4729 19.6762 23.746C19.6776 23.746 19.679 23.7445 19.6804 23.743C20.8699 23.1095 21.8481 23.3126 22.7214 23.5113C23.9832 23.7987 25.2705 23.1652 25.8816 21.9583C26.3792 20.9741 26.8215 19.8635 27.6622 19.4181C27.6636 19.4166 27.6665 19.4151 27.6693 19.4151C27.726 19.385 27.7842 19.3594 27.8437 19.3353C27.977 19.2751 28.1088 19.2149 28.2407 19.1562C28.4235 19.0825 28.5965 19.0117 28.761 18.9485C28.7978 18.9335 28.8361 18.92 28.873 18.9049C29.5804 18.637 30.139 18.4926 30.7869 18.6069C30.8847 18.6716 30.9911 18.7258 31.0988 18.768C30.6466 18.5829 29.8881 17.9568 29.5336 17.0795ZM13.4906 10.7531C13.845 10.1918 14.388 9.63646 15.0714 9.18651C16.6564 8.14063 18.2995 8.12257 18.9418 8.9984C19.6648 9.98408 19.2111 11.34 17.069 12.5995C15.4357 13.5596 13.7501 13.7297 13.1986 12.7876C12.8838 12.2504 13.0213 11.4965 13.4906 10.7531ZM23.1113 19.7341C21.9871 20.2879 20.8515 20.9064 19.7059 21.5805L19.6988 21.5836L19.6932 21.5866C18.7234 22.1569 17.7466 22.7679 16.7641 23.415C15.0813 23.3849 13.7288 22.7724 13.4254 21.7551C12.9788 20.2548 14.7028 18.157 17.232 16.9712C19.7612 15.7898 22.3415 16.2548 23.039 18.1103C23.2233 18.5979 23.2318 19.2239 23.1113 19.7341Z" fill="#FFCA28"/>
<path d="M23.1144 19.7352C21.0331 20.76 18.915 22.003 16.7686 23.4161C15.0858 23.386 13.7332 22.7735 13.4299 21.7563C12.9833 20.2559 14.7072 18.1581 17.2365 16.9723C19.7657 15.791 22.346 16.256 23.0435 18.1115C23.2264 18.5991 23.2349 19.2251 23.1144 19.7352Z" fill="#E93B47"/>
<path d="M27.6713 19.6593C27.5848 19.6593 27.5026 19.6066 27.4643 19.5163C27.4147 19.3959 27.4657 19.2545 27.5791 19.2018C27.633 19.1762 27.6883 19.1521 27.7421 19.1266L27.7549 19.1205C27.8697 19.0694 28.0016 19.1251 28.0498 19.2469C28.098 19.3688 28.0455 19.5088 27.9307 19.56L27.9179 19.566C27.8655 19.5901 27.8116 19.6141 27.7592 19.6382C27.7322 19.6518 27.701 19.6593 27.6713 19.6593Z" fill="#6B184E"/>
<path d="M32.7196 18.7796C32.1979 18.9331 31.6464 18.9662 31.1701 18.8007C31.1545 18.7962 31.1389 18.7902 31.1233 18.7842C31.1162 18.7811 31.1091 18.7781 31.1006 18.7751C30.6483 18.584 29.8913 17.958 29.5354 17.0807C26.3951 9.46906 17.6066 4.16743 9.83323 4.58579C9.78503 4.54816 9.74108 4.50904 9.70138 4.46841C8.56437 3.30966 10.2132 0.486542 12.1172 0.254794C12.249 0.23824 12.3809 0.235231 12.5142 0.24426C21.667 0.539213 29.6531 6.199 34.2309 13.9325C35.5962 16.408 34.1586 18.3643 32.7196 18.7796Z" fill="#EB984E"/>
<path d="M15.8739 26.3062C15.8172 26.3062 15.7605 26.2836 15.7165 26.2385C15.6272 26.1467 15.6258 25.9947 15.7123 25.8999C15.7193 25.8923 15.7278 25.8848 15.7364 25.8773C15.8243 25.8021 15.9518 25.8066 16.0355 25.8923C16.1248 25.9841 16.1262 26.1361 16.0397 26.2309C16.0327 26.2385 16.0242 26.246 16.0156 26.2535C15.9745 26.2881 15.9235 26.3062 15.8739 26.3062Z" fill="#6B184E"/>
<path d="M17.0636 12.5999C15.4304 13.56 13.7447 13.7301 13.1932 12.788C12.8784 12.2508 13.016 11.4969 13.4852 10.7535C13.8397 10.1921 14.3827 9.63684 15.066 9.18689C16.651 8.14101 18.2942 8.12295 18.9364 8.99878C19.6594 9.98446 19.2058 11.3403 17.0636 12.5999Z" fill="#E93B47"/>
<path d="M9.9631 12.4479C8.82325 14.7173 6.8441 16.9354 4.77421 16.1665C4.75436 16.1589 4.73452 16.1514 4.71609 16.1439C4.70333 15.7782 4.71467 15.3975 4.74586 15.0107C4.98262 12.0762 6.41311 8.70535 8.26892 7.66699C8.83884 7.75277 9.28826 7.98903 9.62568 8.32612C10.6025 9.29375 10.645 11.0875 9.9631 12.4479Z" fill="#E93B47"/>
<path d="M5.38439 26.5171C3.65617 27.8369 2.55743 27.9332 1.93789 27.4381C0.639246 26.4012 1.44452 22.77 2.99126 22.3471C3.47754 21.9423 4.00352 21.6805 4.50823 21.5526C6.61498 21.0214 8.36445 22.8437 5.38439 26.5171Z" fill="#E93B47"/>
<g opacity="0.25">
<path d="M21.1108 13.7226C21.4018 13.589 21.5753 13.3274 21.4983 13.1382C21.4212 12.949 21.1228 12.9039 20.8317 13.0375C20.5407 13.171 20.3672 13.4327 20.4442 13.6219C20.5213 13.8111 20.8197 13.8562 21.1108 13.7226Z" fill="#E66E5F"/>
</g>
<g opacity="0.25">
<path d="M13.2748 9.13665C13.5659 9.00309 13.7394 8.74144 13.6623 8.55225C13.5853 8.36306 13.2869 8.31796 12.9958 8.45152C12.7047 8.58509 12.5312 8.84673 12.6083 9.03592C12.6853 9.22512 12.9837 9.27022 13.2748 9.13665Z" fill="#E66E5F"/>
</g>
<g opacity="0.25">
<path d="M23.7676 14.8587C23.9178 14.7898 24.0073 14.6547 23.9675 14.5571C23.9278 14.4594 23.7738 14.4362 23.6235 14.5051C23.4733 14.574 23.3838 14.709 23.4236 14.8067C23.4633 14.9043 23.6173 14.9276 23.7676 14.8587Z" fill="#E66E5F"/>
</g>
<g opacity="0.25">
<path d="M9.54289 21.4969C9.84151 21.3837 10.0306 21.1345 9.96531 20.9404C9.89999 20.7463 9.60495 20.6808 9.30633 20.794C9.00771 20.9072 8.81858 21.1564 8.8839 21.3505C8.94923 21.5446 9.24426 21.6101 9.54289 21.4969Z" fill="#E66E5F"/>
<path d="M10.7329 19.1656C10.8406 19.1248 10.9089 19.0353 10.8854 18.9656C10.862 18.8959 10.7557 18.8726 10.648 18.9134C10.5404 18.9542 10.4721 19.0438 10.4956 19.1134C10.519 19.1831 10.6253 19.2065 10.7329 19.1656Z" fill="#E66E5F"/>
<path d="M11.4226 20.7752C11.6268 20.6977 11.7561 20.5271 11.7113 20.3941C11.6666 20.261 11.4647 20.2159 11.2604 20.2934C11.0562 20.3708 10.9269 20.5415 10.9717 20.6745C11.0165 20.8076 11.2184 20.8526 11.4226 20.7752Z" fill="#E66E5F"/>
<path d="M13.5014 15.9169C13.7925 15.7834 13.966 15.5217 13.8889 15.3325C13.8119 15.1433 13.5134 15.0982 13.2224 15.2318C12.9313 15.3654 12.7578 15.627 12.8348 15.8162C12.9119 16.0054 13.2103 16.0505 13.5014 15.9169Z" fill="#E66E5F"/>
<path d="M13.8457 17.1282C13.9959 17.0593 14.0854 16.9243 14.0457 16.8266C14.0059 16.729 13.8519 16.7057 13.7017 16.7746C13.5515 16.8435 13.4619 16.9786 13.5017 17.0762C13.5415 17.1739 13.6955 17.1972 13.8457 17.1282Z" fill="#E66E5F"/>
<path d="M11.4823 16.9694C11.6764 16.8804 11.7921 16.7061 11.7409 16.5803C11.6896 16.4544 11.4907 16.4245 11.2967 16.5136C11.1026 16.6026 10.9869 16.7768 11.0381 16.9027C11.0894 17.0286 11.2883 17.0585 11.4823 16.9694Z" fill="#E66E5F"/>
</g>
<g opacity="0.25">
<path d="M18.5523 14.5061C18.5764 14.5768 18.507 14.6656 18.3992 14.7062C18.2915 14.7468 18.1851 14.7228 18.161 14.6535C18.1369 14.5828 18.2064 14.494 18.3141 14.4534C18.4219 14.4128 18.5296 14.4368 18.5523 14.5061Z" fill="#E66E5F"/>
</g>
<g opacity="0.25">
<path d="M11.8345 10.8151C11.9422 10.7742 12.0104 10.6847 11.987 10.615C11.9635 10.5454 11.8573 10.522 11.7496 10.5628C11.642 10.6036 11.5737 10.6932 11.5971 10.7628C11.6206 10.8325 11.7269 10.8559 11.8345 10.8151Z" fill="#E66E5F"/>
</g>
<g opacity="0.25">
<path d="M3.00919 30.3075C3.30027 30.174 3.47377 29.9123 3.39672 29.7231C3.31967 29.534 3.02124 29.4889 2.73017 29.6224C2.43909 29.756 2.26559 30.0176 2.34264 30.2068C2.41969 30.396 2.71812 30.4411 3.00919 30.3075Z" fill="#E66E5F"/>
</g>
<g opacity="0.25">
<path d="M10.3061 25.5195C10.5971 25.3859 10.7706 25.1243 10.6936 24.9351C10.6165 24.7459 10.3181 24.7008 10.027 24.8343C9.73596 24.9679 9.56246 25.2295 9.63951 25.4187C9.71657 25.6079 10.015 25.653 10.3061 25.5195Z" fill="#E66E5F"/>
</g>
<g opacity="0.25">
<path d="M7.31939 19.4147C7.48829 19.3372 7.58894 19.1853 7.5442 19.0755C7.49946 18.9656 7.32627 18.9394 7.15738 19.0169C6.98848 19.0944 6.88783 19.2463 6.93257 19.3561C6.97731 19.466 7.1505 19.4922 7.31939 19.4147Z" fill="#E66E5F"/>
</g>
<g opacity="0.25">
<path d="M5.4848 29.598C5.68819 29.5047 5.8095 29.322 5.75575 29.1901C5.702 29.0581 5.49355 29.0267 5.29015 29.1201C5.08676 29.2134 4.96545 29.3961 5.0192 29.528C5.07295 29.66 5.2814 29.6913 5.4848 29.598Z" fill="#E66E5F"/>
</g>
<g opacity="0.25">
<path d="M15.1918 11.1103C15.4101 11.0276 15.5573 10.8723 15.5207 10.7635C15.4841 10.6547 15.2775 10.6336 15.0592 10.7164C14.841 10.7991 14.6937 10.9544 14.7304 11.0632C14.767 11.172 14.9736 11.1931 15.1918 11.1103Z" fill="white"/>
</g>
<g opacity="0.25">
<path d="M17.6817 10.0332C17.8019 9.98761 17.8829 9.90181 17.8626 9.84155C17.8423 9.78128 17.7284 9.76937 17.6082 9.81494C17.4881 9.86052 17.4071 9.94631 17.4273 10.0066C17.4476 10.0668 17.5615 10.0788 17.6817 10.0332Z" fill="white"/>
</g>
<g opacity="0.25">
<path d="M16.9676 10.469C16.9817 10.5097 16.9264 10.5669 16.8456 10.5985C16.7648 10.6285 16.6883 10.621 16.6741 10.5804C16.6599 10.5398 16.7152 10.4826 16.796 10.451C16.8768 10.4209 16.9534 10.4284 16.9676 10.469Z" fill="white"/>
</g>
<g opacity="0.25">
<path d="M16.5876 9.82638C16.7403 9.76851 16.8433 9.66005 16.8177 9.58413C16.7922 9.50821 16.6477 9.49359 16.4951 9.55146C16.3425 9.60933 16.2395 9.71779 16.265 9.79371C16.2906 9.86963 16.435 9.88426 16.5876 9.82638Z" fill="white"/>
</g>
<g opacity="0.25">
<path d="M6.91143 12.6317C7.07596 12.4584 7.1472 12.2515 7.07055 12.1695C6.99389 12.0875 6.79838 12.1614 6.63385 12.3347C6.46932 12.508 6.39808 12.7149 6.47473 12.7969C6.55138 12.8789 6.7469 12.805 6.91143 12.6317Z" fill="white"/>
</g>
<g opacity="0.25">
<path d="M8.25225 10.826C8.29478 10.8712 8.25508 10.9855 8.16435 11.0819C8.07361 11.1782 7.96587 11.2188 7.92333 11.1737C7.8808 11.1285 7.9205 11.0141 8.01123 10.9178C8.10197 10.8215 8.20971 10.7809 8.25225 10.826Z" fill="white"/>
</g>
<g opacity="0.25">
<path d="M8.1245 12.0064C8.15286 12.0365 8.12592 12.1132 8.06496 12.178C8.004 12.2427 7.93169 12.2698 7.90192 12.2397C7.87356 12.2096 7.9005 12.1328 7.96146 12.0681C8.02384 12.0034 8.09615 11.9763 8.1245 12.0064Z" fill="white"/>
</g>
<g opacity="0.25">
<path d="M7.36298 10.3492C7.47804 10.228 7.52795 10.0834 7.47446 10.0262C7.42097 9.96893 7.28433 10.0208 7.16927 10.1419C7.05421 10.2631 7.0043 10.4077 7.05779 10.465C7.11128 10.5222 7.24792 10.4704 7.36298 10.3492Z" fill="white"/>
</g>
<g opacity="0.25">
<path d="M4.70359 23.0286C4.85037 22.8382 4.90108 22.6246 4.81685 22.5514C4.73262 22.4783 4.54535 22.5733 4.39858 22.7637C4.2518 22.9541 4.20109 23.1677 4.28532 23.2409C4.36955 23.314 4.55682 23.219 4.70359 23.0286Z" fill="white"/>
</g>
<g opacity="0.25">
<path d="M2.73352 25.3134C2.68674 25.2728 2.71509 25.1554 2.7959 25.05C2.87671 24.9447 2.98021 24.892 3.02699 24.9327C3.07378 24.9733 3.04542 25.0907 2.96461 25.196C2.8838 25.3014 2.78031 25.354 2.73352 25.3134Z" fill="white"/>
</g>
<g opacity="0.25">
<path d="M3.19481 24.2816C3.16362 24.2546 3.18205 24.1748 3.23735 24.1041C3.29122 24.0333 3.36211 23.9987 3.3933 24.0258C3.42449 24.0529 3.40606 24.1327 3.35076 24.2034C3.29547 24.2726 3.226 24.3087 3.19481 24.2816Z" fill="white"/>
</g>
<g opacity="0.25">
<path d="M4.04714 24.8081C4.14979 24.6749 4.18535 24.5256 4.12657 24.4746C4.0678 24.4235 3.93694 24.49 3.83429 24.6232C3.73165 24.7563 3.69609 24.9056 3.75486 24.9567C3.81364 25.0078 3.9445 24.9412 4.04714 24.8081Z" fill="white"/>
</g>
<g opacity="0.25">
<path d="M17.364 19.5144C17.6243 19.4157 17.7998 19.2304 17.7561 19.1005C17.7124 18.9706 17.4659 18.9453 17.2057 19.044C16.9454 19.1427 16.7698 19.328 16.8135 19.4579C16.8573 19.5878 17.1037 19.6131 17.364 19.5144Z" fill="white"/>
</g>
<g opacity="0.25">
<path d="M18.3907 18.0442C18.4106 18.1029 18.3312 18.1872 18.2135 18.2323C18.0958 18.2775 17.9838 18.2654 17.964 18.2067C17.9441 18.148 18.0235 18.0638 18.1412 18.0186C18.2589 17.9735 18.3709 17.9855 18.3907 18.0442Z" fill="white"/>
</g>
<g opacity="0.25">
<path d="M17.166 20.4172C17.1901 20.4895 17.0937 20.5918 16.9491 20.646C16.8045 20.7002 16.6684 20.6866 16.6443 20.6144C16.6202 20.5422 16.7166 20.4398 16.8612 20.3856C17.0058 20.3315 17.1419 20.345 17.166 20.4172Z" fill="white"/>
</g>
<g opacity="0.25">
<path d="M19.4184 18.7353C19.6366 18.6526 19.7839 18.4973 19.7473 18.3885C19.7107 18.2797 19.5041 18.2586 19.2858 18.3414C19.0676 18.4241 18.9203 18.5794 18.9569 18.6882C18.9935 18.797 19.2001 18.8181 19.4184 18.7353Z" fill="white"/>
</g>
<g opacity="0.25">
<path d="M18.8197 20.1926C18.9487 20.1437 19.0358 20.052 19.0142 19.9878C18.9926 19.9237 18.8705 19.9113 18.7415 19.9602C18.6124 20.0092 18.5253 20.1009 18.5469 20.165C18.5685 20.2292 18.6906 20.2416 18.8197 20.1926Z" fill="white"/>
</g>
<g opacity="0.25">
<path d="M20.4454 19.086C20.4596 19.1281 20.4015 19.1898 20.3164 19.2229C20.2313 19.2561 20.1491 19.247 20.1349 19.2049C20.1208 19.1628 20.1789 19.1011 20.264 19.0679C20.349 19.0348 20.4298 19.0439 20.4454 19.086Z" fill="white"/>
</g>
<g opacity="0.8">
<path d="M1.43347 26.5909C1.33423 26.9897 1.23924 27.3854 1.14851 27.7767C0.893314 28.8737 0.674983 29.9422 0.499184 30.964C0.459488 31.1897 0.422627 31.4155 0.387184 31.6367C0.331893 31.9933 0.280854 32.3455 0.235487 32.6901C0.0837899 33.8654 0.986883 34.7909 1.9878 34.7593C1.23924 34.5079 0.672148 33.7224 0.79549 32.7728C0.840857 32.4282 0.890478 32.0761 0.947187 31.7194C0.982631 31.4967 1.01949 31.2725 1.05919 31.0468C1.23499 30.0235 1.45332 28.9565 1.70851 27.8595C1.75388 27.6653 1.79924 27.4697 1.84603 27.2741C1.66314 27.086 1.52562 26.8542 1.43347 26.5909ZM9.82501 4.58528C9.31463 5.52431 8.79149 6.55965 8.26409 7.66723C8.45832 7.69582 8.63837 7.74248 8.80424 7.80568C9.3203 6.72369 9.88881 5.5845 10.385 4.66955C11.4356 4.61236 12.5045 4.66052 13.5749 4.80499C12.316 4.59581 11.057 4.51756 9.82501 4.58528Z" fill="white"/>
</g>
<g opacity="0.7">
<path d="M34.1206 13.9712C29.5413 6.23776 21.5566 0.57798 12.4038 0.283027C12.306 0.275503 12.2096 0.275503 12.1132 0.283027C12.1146 0.273998 12.1132 0.263464 12.1132 0.25293C11.9118 0.277007 11.7133 0.331182 11.5205 0.40793L11.5021 0.415455C10.4175 0.806719 9.50169 1.96697 9.27344 3.02188C9.33865 2.86386 9.41663 2.70736 9.50595 2.55537C9.23799 3.26566 9.24367 3.98198 9.67749 4.44547C9.69025 4.45902 9.70726 4.46805 9.72569 4.47106H9.72711C9.78807 4.48159 9.83769 4.4229 9.8221 4.3597C9.56549 3.33188 10.1765 1.9474 11.2809 1.14381C11.6467 1.39362 12.3613 1.21905 12.5739 0.821767C15.6263 0.964729 18.544 1.70061 21.2447 2.91202C21.2717 2.92406 21.2901 2.95115 21.2958 2.98275C21.4744 4.06625 24.0717 5.47029 25.1151 5.1031C25.1392 5.09407 25.1662 5.09708 25.1889 5.11213C25.678 5.4432 26.1572 5.78932 26.625 6.15199C26.6463 6.16854 26.6576 6.19412 26.6591 6.22121C26.6917 7.05189 27.3226 7.93976 28.4964 7.77573C28.5205 7.77272 28.5446 7.78025 28.5631 7.7968C30.6627 9.74409 32.4831 12.0134 33.9547 14.4964C34.2808 15.0864 34.4466 15.6477 34.492 16.1638C34.5019 16.2752 34.6536 16.2752 34.6621 16.1638C34.7089 15.5092 34.5601 14.7673 34.1206 13.9712Z" fill="white"/>
</g>
<g opacity="0.6">
<path d="M4.50681 21.5547C4.52666 21.6149 4.538 21.648 4.538 21.648C1.86984 22.9196 1.30274 26.0437 2.1066 27.371C2.1066 27.371 2.04563 27.3951 1.93789 27.4387C0.639246 26.4018 1.44452 22.7706 2.99126 22.3477C3.47612 21.9444 4.0021 21.6826 4.50681 21.5547Z" fill="white"/>
<path d="M9.31602 8.41881C9.4748 8.51362 9.61657 8.62648 9.74275 8.75139C10.1142 9.12008 10.3495 9.60766 10.463 10.1464C10.4006 9.44363 10.1468 8.79202 9.68037 8.33003C9.34295 7.99444 8.89353 7.75668 8.3236 7.6709C6.4678 8.70925 5.03589 12.0801 4.80055 15.0146C4.76936 15.4029 4.75801 15.7821 4.77077 16.1478C4.79062 16.1553 4.80905 16.1628 4.8289 16.1704C4.83174 15.9296 4.84308 15.6843 4.86293 15.436C4.95224 14.3359 5.20885 13.1757 5.59164 12.0982C6.39266 11.9251 6.75843 11.0282 6.3643 10.3676C6.75276 9.66634 7.19934 9.05838 7.68704 8.60692C8.1393 8.19158 8.79287 8.1043 9.31602 8.41881Z" fill="white"/>
<path d="M17.2365 16.9724C14.7072 18.1582 12.9833 20.256 13.4299 21.7563C13.4596 21.8572 13.5007 21.955 13.5518 22.0483C13.3136 20.5675 14.9936 18.6051 17.4066 17.4735C19.8522 16.3313 22.3445 16.7286 23.137 18.4321C23.1144 18.3207 23.0832 18.2124 23.0449 18.11C22.346 16.2561 19.7657 15.7911 17.2365 16.9724Z" fill="white"/>
<path d="M13.0854 12.0345C13.0273 11.568 13.3023 11.8269 13.6497 11.2415C13.9885 10.6696 14.5471 10.1249 15.2305 9.67491C16.8155 8.62903 18.4586 8.61097 19.1009 9.4868C19.1533 9.55753 19.1987 9.63127 19.2384 9.70651C19.2001 9.4567 19.098 9.21894 18.9364 9.00073C18.2928 8.1249 16.651 8.14296 15.066 9.18884C14.3841 9.63879 13.8397 10.1941 13.4852 10.7554C13.016 11.4988 12.8784 12.2527 13.1932 12.79C13.1946 12.7915 13.0826 12.0315 13.0854 12.0345Z" fill="white"/>
</g>
<g opacity="0.8">
<path d="M4.6231 18.0442C5.60417 18.5739 5.12355 20.1209 3.77671 20.5423C3.62501 21.0088 3.47757 21.4753 3.33296 21.9403C3.05083 22.1374 2.77721 22.3827 2.52344 22.6747C3.17701 20.5001 3.92274 18.291 4.7195 16.1436C4.73935 16.1511 4.75778 16.1586 4.77763 16.1661C4.93783 16.2263 5.09662 16.267 5.2554 16.2925C5.04133 16.8734 4.83008 17.4573 4.6231 18.0442Z" fill="white"/>
</g>
<path d="M15.8734 26.3067C15.7968 26.3067 15.7203 26.2645 15.6792 26.1893C15.6168 26.0749 15.6522 25.9289 15.76 25.8627C17.1323 25.0065 18.3771 24.248 19.5623 23.5422C19.5652 23.5407 19.5666 23.5392 19.5694 23.5377C19.5793 23.5317 19.5893 23.5272 19.5978 23.5242C19.714 23.4775 19.8444 23.5407 19.887 23.6641C19.9281 23.7785 19.8799 23.9064 19.7792 23.9606C18.5968 24.6633 17.3563 25.4203 15.9882 26.275C15.9514 26.2961 15.9117 26.3067 15.8734 26.3067Z" fill="#6B184E"/>
<path d="M32.7173 19.0183C32.6109 19.0183 32.516 18.9385 32.4961 18.8226C32.4734 18.6947 32.5514 18.5713 32.6719 18.5457C32.7839 18.5126 32.903 18.5773 32.9427 18.6947C32.9852 18.8196 32.9243 18.9566 32.8066 19.0002C32.791 19.0062 32.7754 19.0107 32.7584 19.0138C32.7442 19.0168 32.73 19.0183 32.7173 19.0183ZM32.6549 18.5503C32.6535 18.5503 32.6535 18.5503 32.6549 18.5503C32.6535 18.5503 32.6535 18.5503 32.6549 18.5503Z" fill="#6B184E"/>
<path d="M31.1833 19.0048C31.1649 19.0048 31.1464 19.0018 31.128 18.9958C30.6531 18.8423 29.7613 18.1516 29.3587 17.1569C26.3205 9.79207 17.7447 4.35651 9.83798 4.78239C9.7359 4.78841 9.64658 4.70413 9.64091 4.59428C9.63524 4.48442 9.71463 4.39112 9.81813 4.3851C17.8708 3.9517 26.6055 9.49261 29.7018 16.9989C30.0704 17.9093 30.8828 18.5007 31.2358 18.6151C31.335 18.6467 31.3903 18.758 31.3605 18.8634C31.3378 18.9507 31.2627 19.0048 31.1833 19.0048Z" fill="#6B184E"/>
<path d="M30.5805 16.6691C30.5224 16.484 30.4827 16.2883 30.4713 16.0882C30.4614 15.8866 30.4798 15.6804 30.5295 15.4817C30.6287 15.0814 30.857 14.7143 31.1589 14.4524C31.4623 14.1906 31.8295 14.0265 32.2109 13.9679C32.4009 13.9393 32.5965 13.9393 32.7879 13.9754C32.9779 14.0115 33.1679 14.0928 33.3167 14.2252C33.3493 14.2538 33.3536 14.3034 33.3266 14.338C33.3054 14.3651 33.2685 14.3742 33.2388 14.3606L33.2345 14.3591C32.9325 14.2222 32.5908 14.2447 32.2761 14.329C31.96 14.4163 31.6637 14.5758 31.4141 14.788C31.1632 14.9987 30.959 15.2696 30.8428 15.5886C30.7847 15.7481 30.745 15.9182 30.728 16.0942C30.7109 16.2703 30.7138 16.4509 30.7265 16.636V16.639C30.7294 16.6826 30.6982 16.7217 30.6571 16.7248C30.6216 16.7278 30.5904 16.7037 30.5805 16.6691Z" fill="#6B184E"/>
<path d="M0.692859 30.9815C0.665922 31.29 0.660251 31.6015 0.707036 31.8904C0.74815 32.1809 0.861569 32.4397 1.05722 32.5676C1.25144 32.6986 1.53215 32.7091 1.80578 32.6549C2.08223 32.6068 2.36011 32.5014 2.63231 32.384C3.17672 32.1448 3.7027 31.8363 4.21734 31.5097C4.73197 31.1817 5.2381 30.8325 5.73998 30.4774C6.74373 29.7656 7.73898 29.0342 8.76116 28.3405C9.01635 28.1659 9.27154 27.9929 9.52957 27.8228C9.78901 27.6543 10.0499 27.4887 10.3122 27.3277C10.8381 27.0042 11.3769 26.7002 11.9355 26.4413C11.9737 26.4233 12.0177 26.4428 12.0347 26.482C12.0503 26.5196 12.0347 26.5647 12.0007 26.5843C11.4704 26.8868 10.9586 27.2239 10.4511 27.57C10.1973 27.7431 9.9478 27.9221 9.69828 28.1012C9.44734 28.2788 9.19782 28.4594 8.94972 28.6415C7.95872 29.3743 6.96915 30.1147 5.95405 30.8235C5.44651 31.1771 4.93471 31.5248 4.40873 31.8543C3.88275 32.1809 3.34827 32.4999 2.77267 32.7527C2.62806 32.8144 2.48345 32.8746 2.33175 32.9243C2.25803 32.9514 2.18006 32.9709 2.1035 32.995C2.02411 33.0131 1.94755 33.0356 1.86674 33.0477C1.70654 33.0778 1.54066 33.0928 1.3677 33.0763C1.19615 33.0612 1.01468 33.0101 0.855898 32.9032C0.695694 32.7979 0.570934 32.6399 0.491541 32.4728C0.449009 32.3886 0.420655 32.3028 0.3923 32.217C0.371034 32.1312 0.346933 32.0439 0.337009 31.9582C0.281718 31.612 0.291642 31.275 0.318579 30.9454C0.327085 30.8355 0.419237 30.7543 0.522731 30.7648C0.624808 30.7738 0.701365 30.8702 0.692859 30.9815Z" fill="#6B184E"/>
<path d="M14.6774 24.7404C14.7838 24.6501 14.8929 24.5628 15.0007 24.477C15.1084 24.3897 15.2176 24.3025 15.3282 24.2182C15.5479 24.0481 15.7705 23.8841 15.9959 23.7201C16.2199 23.5561 16.4482 23.4011 16.675 23.2415C16.9033 23.085 17.1358 22.9345 17.3654 22.781C18.2926 22.1776 19.2425 21.6163 20.1995 21.067C21.1564 20.5177 22.1205 19.9805 23.1129 19.505C23.3596 19.3831 23.612 19.2732 23.8615 19.1573C24.1124 19.0445 24.3662 18.9406 24.62 18.8368C24.7461 18.7826 24.8751 18.736 25.0042 18.6878C25.1332 18.6397 25.2608 18.5915 25.3898 18.5449C25.5188 18.4982 25.6492 18.4576 25.7797 18.4154C25.9101 18.3733 26.0405 18.3312 26.171 18.292C26.2107 18.28 26.2532 18.3056 26.2631 18.3477C26.273 18.3853 26.256 18.4245 26.2234 18.441H26.222C25.9767 18.5659 25.73 18.6848 25.4834 18.8022C25.2381 18.9241 24.9914 19.04 24.7461 19.1588C24.2556 19.3996 23.7637 19.6344 23.276 19.8797C22.3006 20.3688 21.328 20.8699 20.3767 21.4146C19.4254 21.9594 18.4968 22.5478 17.5682 23.1347C17.1032 23.4266 16.641 23.7261 16.1731 24.015C15.9406 24.1625 15.7053 24.3055 15.4699 24.4484C15.3523 24.5207 15.2346 24.5914 15.1155 24.6606C14.9964 24.7313 14.8787 24.8021 14.7582 24.8683C14.7214 24.8894 14.676 24.8743 14.6562 24.8352C14.6406 24.8051 14.6491 24.7645 14.6774 24.7404Z" fill="#6B184E"/>
<path d="M25.3248 8.33778C25.5119 8.44162 25.6792 8.57103 25.8394 8.70948C25.9996 8.84793 26.1485 8.99992 26.2889 9.15943C26.4306 9.31895 26.5653 9.48448 26.6887 9.65905C26.812 9.83512 26.9311 10.0142 27.0289 10.2113C27.0488 10.2505 27.0346 10.3001 26.9977 10.3212C26.9708 10.3362 26.9368 10.3332 26.9141 10.3137C26.751 10.1782 26.6022 10.0307 26.4533 9.88478C26.3059 9.7373 26.1627 9.58681 26.0209 9.43482C25.8791 9.28283 25.7402 9.12783 25.6055 8.96681C25.4722 8.80429 25.3404 8.64026 25.2241 8.45666C25.2 8.41904 25.21 8.36788 25.2454 8.34229C25.2695 8.32423 25.3007 8.32424 25.3248 8.33778Z" fill="#6B184E"/>
<path d="M17.3757 4.04357C17.9116 4.12935 18.4418 4.25576 18.9635 4.41226C19.4853 4.57028 19.9999 4.75688 20.5032 4.97809C21.0051 5.20081 21.4914 5.46115 21.9649 5.74557C22.437 6.0315 22.8921 6.34902 23.3202 6.70266C23.3528 6.72975 23.3585 6.77941 23.333 6.81553C23.3103 6.84713 23.2692 6.85466 23.238 6.8366C22.7645 6.56723 22.2895 6.30839 21.8075 6.0646C21.3269 5.81931 20.8392 5.59508 20.3458 5.37989C19.8553 5.16319 19.3591 4.95552 18.8572 4.7629C18.3553 4.56877 17.8492 4.38518 17.3402 4.19857C17.3006 4.18352 17.2793 4.13838 17.2935 4.09624C17.3048 4.06013 17.3402 4.03906 17.3757 4.04357Z" fill="#6B184E"/>
<path d="M1.94494 35C1.55365 35 1.16378 34.8736 0.827775 34.6238C0.229493 34.1783 -0.0809902 33.4259 0.0182508 32.6584C0.246505 30.8993 0.634964 28.9023 1.17228 26.7248C0.763977 25.1763 1.41046 23.39 2.29796 22.6255C2.93168 20.5127 3.66323 18.3322 4.47417 16.1411C4.18212 15.1524 4.66132 12.7476 5.57717 10.6709C6.0195 9.66566 6.92968 7.93958 8.10782 7.47307C8.59552 6.45278 9.07613 5.5017 9.53972 4.63942C9.07045 4.16238 8.96696 3.41897 9.26043 2.56421C9.71269 1.25047 11.0879 -0.100898 12.5198 0.00594723C16.9275 0.148909 21.3125 1.56348 25.2 4.09616C28.8917 6.50093 32.0788 9.85828 34.4152 13.8055C35.2091 15.2457 35.0503 16.3924 34.7767 17.1012C34.4209 18.0237 33.6539 18.7565 32.7721 19.0108C31.9824 19.2441 31.2494 19.1839 30.705 18.8438C30.1266 18.752 29.619 18.8829 28.9456 19.1373C28.75 19.211 28.5373 19.2968 28.319 19.3856C28.2055 19.4352 28.085 19.4909 27.9645 19.5466L27.9319 19.5616C27.871 19.5887 27.8114 19.6158 27.7519 19.6444C27.6385 19.6971 27.5052 19.6414 27.4556 19.521C27.406 19.4006 27.4584 19.2591 27.5718 19.2065C27.6328 19.1779 27.6952 19.1493 27.7561 19.1222L27.7887 19.1072C27.9121 19.0515 28.0326 18.9958 28.1545 18.9416C28.3813 18.8498 28.5968 18.7625 28.7967 18.6873C29.5368 18.4059 30.1337 18.2569 30.8227 18.3788C30.8525 18.3833 30.8794 18.3954 30.9049 18.4119C31.3458 18.7039 31.9668 18.7535 32.6544 18.5504C33.4044 18.3337 34.0594 17.7091 34.3627 16.9206C34.5981 16.3111 34.7314 15.3179 34.0324 14.0538C29.1668 5.83578 21.1169 0.761389 12.5028 0.484494C12.4999 0.484494 12.4971 0.484494 12.4943 0.484494C11.2665 0.391193 10.0827 1.57853 9.68575 2.72975C9.56666 3.07436 9.35684 3.92461 9.96362 4.39412C10.0572 4.46636 10.0841 4.60029 10.026 4.70714C9.52554 5.62962 9.00099 6.66346 8.47075 7.77705C8.44382 7.83424 8.39561 7.87788 8.33749 7.89744C7.56341 8.15778 6.7071 9.24279 5.98689 10.8756C5.02425 13.0576 4.65423 15.357 4.92501 16.0568C4.9477 16.114 4.9477 16.1772 4.92643 16.2344C4.09848 18.4691 3.35275 20.6918 2.70768 22.8422C2.69351 22.8889 2.66657 22.931 2.62829 22.9611C1.83578 23.5962 1.22757 25.2696 1.6217 26.6555C1.63305 26.6977 1.63446 26.7428 1.62454 26.785C1.08297 28.97 0.69309 30.9685 0.464836 32.7262C0.386861 33.3236 0.619368 33.8879 1.0858 34.234C1.55223 34.5816 2.13209 34.6208 2.63538 34.3424C3.83053 33.5568 5.01433 32.7803 6.18538 32.0128C6.18963 32.0098 6.19246 32.0083 6.19672 32.0053C6.20239 32.0023 6.20664 31.9993 6.21231 31.9963C7.06437 31.5177 7.81718 31.8232 8.42255 32.0685C8.84078 32.2386 9.2023 32.3846 9.49152 32.2461C9.78215 32.1062 9.92676 31.8368 10.0161 30.6028C10.104 29.6006 10.8582 28.8647 11.8932 28.7669C12.8969 28.6721 14.0864 29.259 14.4833 30.7834C14.7655 31.8744 15.3156 32.3289 15.7139 32.2145C16.0117 32.1287 16.2427 31.6833 16.0457 30.9098C15.9748 30.6314 15.85 30.3545 15.6728 30.0866C14.7102 28.6254 13.9914 27.2018 15.7494 25.8715C15.85 25.7948 15.9918 25.8203 16.0641 25.9272C16.1364 26.034 16.1123 26.1845 16.0117 26.2613C14.6932 27.259 14.9569 28.1634 16.0428 29.8142C16.2484 30.1273 16.3959 30.4538 16.4809 30.7864C16.7588 31.8759 16.3392 32.5305 15.833 32.6765C15.239 32.848 14.4266 32.3695 14.0495 30.9113C13.6979 29.5659 12.6899 29.1732 11.9328 29.2439C11.258 29.3071 10.5421 29.7646 10.4641 30.6449C10.3776 31.8338 10.2443 32.4116 9.67582 32.684C9.21506 32.9052 8.75146 32.7171 8.26093 32.5185C7.68391 32.2852 7.08563 32.0429 6.41079 32.4282C5.24117 33.1942 4.05878 33.9707 2.86505 34.7547C2.8608 34.7577 2.85654 34.7607 2.85229 34.7622C2.56591 34.9202 2.25543 35 1.94494 35Z" fill="#6B184E"/>
<path d="M19.6783 23.9883C19.5961 23.9883 19.5167 23.9402 19.477 23.8574C19.4217 23.74 19.4656 23.5956 19.5762 23.5369C20.8635 22.8492 21.9212 23.0899 22.7704 23.2826C23.9272 23.5459 25.1252 22.9575 25.6852 21.8514C25.7547 21.7145 25.8227 21.576 25.8908 21.4361C26.3629 20.47 26.8506 19.4722 27.7679 19.1171C27.8841 19.072 28.0146 19.1352 28.0571 19.2601C28.0996 19.3835 28.0401 19.5219 27.9224 19.5671C27.1696 19.859 26.723 20.7724 26.2906 21.6573C26.2211 21.7988 26.1531 21.9402 26.0822 22.0787C25.4286 23.3713 24.0279 24.0591 22.6768 23.7521C21.8559 23.5655 20.9259 23.3533 19.7804 23.9658C19.7464 23.9793 19.7123 23.9883 19.6783 23.9883Z" fill="#6B184E"/>
<path d="M16.7679 23.6163C16.7665 23.6163 16.765 23.6163 16.765 23.6163C14.9163 23.5817 13.5695 22.8924 13.2505 21.8165C13.0166 21.0279 13.3086 20.0693 14.0742 19.1167C14.8057 18.2063 15.9016 17.3801 17.1606 16.7902C18.7541 16.0453 20.4384 15.9189 21.6661 16.4516C22.4133 16.7752 22.9492 17.3244 23.2171 18.0362C23.4043 18.5328 23.434 19.2025 23.2951 19.7834C23.2696 19.8902 23.1675 19.9549 23.0668 19.9279C22.9662 19.9008 22.9052 19.7924 22.9307 19.6856C23.0513 19.1814 23.0272 18.6066 22.8684 18.1837C22.6387 17.5743 22.1737 17.1017 21.5229 16.8188C20.3873 16.3267 18.8122 16.4501 17.3109 17.1529C14.8653 18.2996 13.2037 20.3372 13.6078 21.6946C13.8729 22.5885 15.1148 23.1844 16.7707 23.216C16.8742 23.2175 16.9564 23.3093 16.955 23.4191C16.9536 23.529 16.87 23.6163 16.7679 23.6163Z" fill="#6B184E"/>
<path d="M14.5499 13.6173C13.8637 13.6173 13.3264 13.3765 13.0429 12.8934C12.7381 12.3742 12.7848 11.676 13.1719 10.9311C13.5405 10.2223 14.1813 9.54209 14.9752 9.0184C16.5971 7.94845 18.3664 7.88825 19.0923 8.87694C19.4014 9.29831 19.5148 9.78287 19.4184 10.2795C19.2525 11.1418 18.4714 12.0056 17.1628 12.7745C16.2101 13.3343 15.2928 13.6173 14.5499 13.6173ZM17.4846 8.57296C16.7942 8.57296 15.9606 8.83782 15.1751 9.357C14.4351 9.84608 13.8411 10.4721 13.5022 11.1237C13.1832 11.7377 13.1336 12.2915 13.3633 12.6842C13.8283 13.4773 15.3835 13.3675 16.9842 12.4269C18.5139 11.5285 18.9534 10.7204 19.054 10.1997C19.1278 9.81598 19.0427 9.45331 18.7989 9.12224C18.5281 8.75355 18.0545 8.57296 17.4846 8.57296Z" fill="#6B184E"/>
<path d="M2.9869 27.9401C2.57859 27.9401 2.20431 27.8213 1.89099 27.5714C1.66699 27.3939 1.45292 27.2058 1.31114 26.8928C1.29838 26.8852 1.28704 26.8762 1.27712 26.8657C1.20198 26.7904 1.19914 26.664 1.27003 26.5843L1.29838 26.5527C1.34233 26.503 1.40897 26.4804 1.47276 26.494C1.53656 26.5075 1.58902 26.5557 1.6117 26.6204C1.70669 26.8913 1.84988 27.0402 2.11783 27.2524C2.99966 27.9522 4.51379 27.3683 5.71745 25.8604C6.53973 24.8311 6.91259 23.8725 6.79634 23.087C6.71978 22.5708 6.43765 22.1479 5.95704 21.8334C5.13476 21.2932 3.75673 21.7657 2.60411 22.9816C2.53039 23.0599 2.4113 23.0584 2.339 22.9816C2.26527 22.9034 2.26669 22.777 2.339 22.7002C3.6348 21.3308 5.16737 20.8477 6.15411 21.4948C6.72262 21.8695 7.0728 22.3977 7.16637 23.0253C7.30105 23.9282 6.89841 24.9981 6.00383 26.1193C5.06529 27.29 3.9382 27.9401 2.9869 27.9401Z" fill="#6B184E"/>
<path d="M5.62322 16.5219C5.32124 16.5219 5.01643 16.4693 4.70737 16.3549C4.68894 16.3489 4.66625 16.3398 4.64357 16.3308C4.54716 16.2917 4.49896 16.1758 4.53582 16.0735C4.57268 15.9712 4.68185 15.92 4.77825 15.9591C4.79527 15.9651 4.81086 15.9727 4.82787 15.9787C6.7815 16.7055 8.67276 14.5837 9.79276 12.355C10.3216 11.3001 10.3797 10.0254 9.94021 9.10597C9.60704 8.41073 9.01868 7.98184 8.23893 7.86446C8.13685 7.84941 8.06455 7.74859 8.07873 7.63873C8.0929 7.53038 8.18789 7.45363 8.29139 7.46868C9.19873 7.60412 9.8835 8.10825 10.2748 8.92388C10.7682 9.95471 10.71 11.3738 10.1245 12.5401C9.09949 14.5776 7.445 16.5219 5.62322 16.5219Z" fill="#6B184E"/>
<path d="M13.6315 10.7997C13.5507 11.1052 13.494 11.4227 13.5337 11.7101C13.5521 11.8531 13.6018 11.9825 13.6769 12.0849C13.752 12.1872 13.8598 12.2624 13.9845 12.3106C14.1107 12.3587 14.2511 12.3813 14.3943 12.3843C14.5389 12.3888 14.6849 12.3753 14.8323 12.3527C15.1272 12.3061 15.4207 12.2173 15.7071 12.1059C15.9935 11.9946 16.2728 11.8591 16.5421 11.7041C16.8129 11.5521 17.0738 11.3791 17.3276 11.1955C17.8294 10.8223 18.3001 10.3904 18.6631 9.86519C18.6872 9.82907 18.7339 9.82155 18.768 9.84713C18.7992 9.87121 18.8077 9.91635 18.7892 9.95096C18.7098 10.0984 18.6177 10.2384 18.5199 10.3723C18.422 10.5078 18.3171 10.6357 18.2065 10.7576C17.9854 11.0029 17.7444 11.2271 17.4892 11.4317C16.9788 11.8381 16.4174 12.1721 15.8177 12.4174C15.5171 12.5393 15.2066 12.6386 14.882 12.6943C14.7203 12.7214 14.5545 12.735 14.3843 12.7304C14.2156 12.7259 14.0427 12.7003 13.8725 12.6356C13.7038 12.5709 13.538 12.4596 13.4203 12.2985C13.3026 12.139 13.2374 11.9449 13.2161 11.7598C13.1722 11.3851 13.2459 11.0345 13.3423 10.7064C13.3664 10.6221 13.4515 10.5755 13.5309 10.6011C13.6088 10.6266 13.6528 10.7139 13.6315 10.7952V10.7997Z" fill="#6B184E"/>
<path d="M8.89078 8.55645C9.03964 8.66781 9.17433 8.80475 9.28775 8.95975C9.40116 9.11625 9.49048 9.29232 9.55711 9.47592C9.6918 9.84611 9.72582 10.2479 9.70031 10.6332C9.6436 11.4112 9.37848 12.1425 9.0283 12.8047C8.84967 13.1357 8.64977 13.4533 8.42293 13.7482C8.19893 14.0447 7.95083 14.3231 7.67721 14.5729C7.405 14.8227 7.1087 15.0469 6.77695 15.2109C6.44945 15.375 6.07801 15.4833 5.70514 15.4291C5.66403 15.4231 5.63568 15.3825 5.64135 15.3389C5.64702 15.2982 5.67962 15.2681 5.7179 15.2696H5.71932C6.05107 15.2832 6.37715 15.1613 6.67204 14.9927C6.8209 14.907 6.96125 14.8076 7.09735 14.6993C7.23346 14.5924 7.3653 14.4751 7.49006 14.3517C7.98769 13.8551 8.40875 13.2682 8.74334 12.6346C8.91063 12.3186 9.05666 11.989 9.17149 11.6489C9.28775 11.3103 9.37139 10.9597 9.40684 10.6046C9.44228 10.2509 9.42385 9.89276 9.32744 9.55718C9.23104 9.2231 9.04815 8.91761 8.79579 8.67834C8.7646 8.64824 8.76177 8.59858 8.79012 8.56547C8.81706 8.53839 8.85959 8.53387 8.89078 8.55645Z" fill="#6B184E"/>
<path d="M14.1379 20.8221C14.24 21.0614 14.3889 21.2646 14.5661 21.4361C14.7447 21.6077 14.9503 21.7461 15.17 21.8605C15.6124 22.0877 16.1029 22.2141 16.6062 22.2548H16.6076C16.6487 22.2578 16.6799 22.2969 16.6771 22.3406C16.6742 22.3782 16.6473 22.4083 16.6133 22.4143C16.3482 22.4579 16.0774 22.4474 15.8123 22.4023C15.5472 22.3571 15.2863 22.2713 15.041 22.1464C14.7958 22.0215 14.5647 21.856 14.3747 21.6408C14.1861 21.4271 14.0415 21.1577 13.9933 20.8688C13.9862 20.8252 14.0132 20.783 14.0543 20.7755C14.0911 20.7695 14.1238 20.789 14.1379 20.8221Z" fill="#6B184E"/>
<path d="M2.71084 26.8239C2.9632 26.8736 3.22264 26.8329 3.46791 26.7472C3.71459 26.6599 3.94568 26.5244 4.16401 26.3694C4.38234 26.2129 4.58508 26.0308 4.77364 25.8352C4.96361 25.6396 5.13799 25.4274 5.29536 25.2032C5.45131 24.9774 5.5945 24.7412 5.71217 24.4944C5.83126 24.2476 5.92625 23.9887 5.98296 23.7224C6.03967 23.4575 6.05243 23.1836 6.00564 22.9233C5.95744 22.6615 5.83977 22.4162 5.66397 22.2115L5.66114 22.207C5.63278 22.1739 5.63562 22.1242 5.66539 22.0941C5.69374 22.0655 5.73911 22.067 5.76605 22.0941C5.8185 22.1453 5.87238 22.1965 5.92342 22.2521C5.96737 22.3123 6.01699 22.371 6.0581 22.4357C6.13608 22.5667 6.20129 22.7096 6.24099 22.8616C6.32463 23.1641 6.3218 23.4831 6.27076 23.7841C6.16443 24.389 5.89081 24.9353 5.55055 25.4093C5.20605 25.8834 4.78782 26.2942 4.30721 26.6102C4.06761 26.7682 3.80675 26.8946 3.52887 26.9729C3.25241 27.0511 2.95186 27.0692 2.67115 26.9804C2.63145 26.9684 2.60877 26.9232 2.62011 26.8811C2.63145 26.842 2.66831 26.8179 2.70517 26.8254L2.71084 26.8239Z" fill="#6B184E"/>
<g opacity="0.3">
<path d="M34.0505 17.5496C34.2235 17.4412 34.4617 17.0274 34.6148 16.8769C34.2873 17.8611 33.499 18.5503 32.7122 18.7791C32.1905 18.9326 31.639 18.9657 31.1626 18.8001C31.147 18.7956 31.1314 18.7896 31.1158 18.7836C31.1087 18.7806 31.1016 18.7776 31.0931 18.7745C30.6409 18.5834 29.8838 17.9574 29.528 17.0801C26.3877 9.46848 17.5992 4.16686 9.82578 4.58521C8.91985 3.88394 9.33099 2.35199 10.2752 1.30762C9.96613 2.10369 9.99732 2.9118 10.5871 3.36627C18.946 2.44379 27.1377 7.78755 30.2893 15.8611C30.3588 16.0417 30.4467 16.2103 30.5459 16.3668C30.5445 15.5421 31.0265 14.7686 31.7992 14.4752C32.7817 14.102 33.8634 14.6467 34.2136 15.6896C34.395 16.2268 34.3355 17.0184 34.0505 17.5496Z" fill="#6B184E"/>
</g>
<g opacity="0.3">
<path d="M31.091 18.7744C30.9832 18.7323 30.8783 18.6781 30.7791 18.6134C30.1312 18.499 29.5726 18.6435 28.8651 18.9114C28.7262 18.964 28.2243 19.2725 28.0726 19.3342C28.0556 19.3087 28.0386 19.2831 28.0244 19.256C27.9621 19.2846 27.8997 19.3132 27.8373 19.3418C27.7777 19.3658 27.7196 19.3914 27.6629 19.4215C27.6601 19.423 27.6572 19.423 27.6558 19.4245C26.8151 19.87 26.3728 20.9806 25.8752 21.9647C25.2655 23.1716 23.9768 23.8052 22.715 23.5178C21.8417 23.3191 20.8635 23.1145 19.674 23.7495C19.6726 23.7495 19.6712 23.751 19.6698 23.7525C18.4477 24.4794 17.1788 25.2559 15.8717 26.07C14.2937 27.2679 14.8807 28.4763 15.8532 29.951C16.0333 30.2249 16.1765 30.5259 16.2587 30.8494C16.7421 32.7516 14.8849 33.2587 14.2611 30.8494C13.5778 28.228 10.412 28.6102 10.2348 30.6237C10.1469 31.8426 10.0065 32.2625 9.57835 32.4672C8.71212 32.8825 7.65024 31.4469 6.29773 32.2189C5.12526 32.9863 3.93862 33.7659 2.74206 34.5529C1.50722 35.2451 0.0455388 34.1646 0.235515 32.6959C0.280882 32.3513 0.330503 31.9992 0.387212 31.6425C1.08615 34.6718 5.45843 30.9804 9.37136 28.1302L14.712 24.8119C15.0465 24.5952 14.9785 24.0655 14.6042 23.9421C13.7621 23.6667 13.1567 23.1867 12.9667 22.5471C12.764 21.8654 13.0093 21.0603 13.5749 20.2718C13.3481 20.7955 13.2829 21.3056 13.419 21.7601C13.721 22.7789 15.0735 23.3898 16.7577 23.4199C17.7402 22.7728 18.717 22.1619 19.6868 21.5915C19.691 21.5885 19.6939 21.5855 19.6981 21.584L22.7292 19.9527L23.1956 19.7029L26.051 18.3982C26.679 18.1319 26.9767 17.3885 26.7584 16.7444C26.73 16.6586 26.6918 16.5743 26.645 16.4931C23.0142 10.284 15.8631 5.93345 9.06372 6.03728C9.31891 5.53315 9.5741 5.04708 9.82504 4.58659C17.5984 4.16824 26.387 9.46987 29.5272 17.0815C29.8817 17.9573 30.6401 18.5833 31.091 18.7744Z" fill="#6B184E"/>
</g>
<g opacity="0.3">
<path d="M22.7356 19.9219C22.7356 19.9324 22.7342 19.9414 22.7342 19.9505L19.7031 21.5817C20.7225 20.9813 21.7333 20.426 22.7356 19.9219Z" fill="#6B184E"/>
</g>
<g opacity="0.3">
<path d="M23.1939 18.9364C23.1953 18.965 23.1953 18.9951 23.1953 19.0237V19.0252C23.1953 19.0448 23.1897 19.2013 23.1783 19.3623C23.1783 19.3653 23.1783 19.3683 23.1769 19.3713C23.1627 19.4962 23.1415 19.6181 23.1145 19.734C21.0333 20.7588 18.9152 22.0018 16.7688 23.4149C15.0859 23.3848 13.7334 22.7723 13.43 21.755C13.2301 21.0839 13.4641 20.2953 14.0099 19.5203C13.8724 19.9462 13.8483 20.357 13.9603 20.7317C14.1205 21.272 14.4664 21.7294 15.008 22.0425C15.86 22.5361 16.9006 22.4864 17.7385 21.9642C19.1052 21.1125 20.5853 20.2923 21.9506 19.576C22.5942 19.2389 22.9203 18.4488 22.6878 17.728C22.6864 17.722 22.6835 17.716 22.6821 17.71L23.1656 18.95C23.1755 18.9455 23.184 18.9409 23.1939 18.9364Z" fill="#6B184E"/>
</g>
<g opacity="0.3">
<path d="M23.1889 19.0254C23.1889 19.1383 23.1832 19.2511 23.1719 19.3625C23.1832 19.2015 23.1889 19.045 23.1889 19.0254Z" fill="#6B184E"/>
</g>
<g opacity="0.3">
<path d="M23.1718 19.374C23.159 19.5636 23.1377 19.7563 23.1094 19.7367C23.1363 19.6208 23.1576 19.4989 23.1718 19.374Z" fill="#6B184E"/>
</g>
<g opacity="0.3">
<path d="M7.01874 23.9658C7.42988 27.0794 2.15735 30.2321 1.25 27.3442C1.25709 27.3111 1.34499 27.0854 1.47967 26.7859C1.90783 27.8649 3.09305 28.2667 5.3841 26.5166C6.16952 25.5489 6.62603 24.7107 6.83585 24.008C6.95353 23.9809 7.01874 23.9658 7.01874 23.9658Z" fill="#6B184E"/>
</g>
<g opacity="0.3">
<path d="M4.34375 17.1478C4.34375 17.1478 4.53089 16.7444 4.796 16.1756C6.85597 16.916 8.82236 14.7069 9.95796 12.4481C10.5052 11.3586 10.586 9.98762 10.0926 8.98689C10.1054 8.97334 10.1125 8.96582 10.1125 8.96582C13.1124 13.6565 5.61404 18.9205 4.34375 17.1478Z" fill="#6B184E"/>
</g>
<g opacity="0.3">
<path d="M9.9631 12.448C8.82325 14.7173 6.8441 16.9355 4.77421 16.1665C4.75436 16.159 4.73452 16.1515 4.71609 16.1439C4.70333 15.7782 4.71467 15.3975 4.74586 15.0108C6.27559 16.4088 10.2821 13.3178 9.6271 8.32617C10.6025 9.2938 10.645 11.0876 9.9631 12.448Z" fill="#6B184E"/>
</g>
<g opacity="0.3">
<path d="M19.0679 10.71C19.0736 11.5376 18.4044 12.4857 16.8761 13.3841C15.2429 14.3442 13.5572 14.5143 13.0057 13.5722C12.7647 13.1599 12.7888 12.6211 13.0241 12.0568C13.0142 12.3247 13.0681 12.5745 13.1929 12.7882C13.7443 13.7302 15.43 13.5602 17.0633 12.6001C18.1265 11.9755 18.773 11.327 19.0679 10.71Z" fill="#6B184E"/>
</g>
<g opacity="0.3">
<path d="M19.0625 9.19824C19.4198 10.2592 18.8272 11.5639 17.0635 12.6007C15.4303 13.5608 13.7446 13.7309 13.1931 12.7888C12.9876 12.4382 12.9748 11.9928 13.1222 11.5202C13.1506 11.6286 13.1917 11.7324 13.2484 11.8287C13.7999 12.7708 15.4856 12.6007 17.1188 11.6406C18.297 10.9484 18.8215 9.87092 19.0625 9.19824Z" fill="#6B184E"/>
</g>
<g opacity="0.3">
<path d="M1.28906 25.4576C2.11843 27.5193 3.83672 27.3523 5.6018 25.0453L6.06681 24.028L6.17031 23.1582C6.53892 24.1574 6.4978 25.1446 5.86549 26.1183L4.99075 26.8737L4.03379 27.5042C4.03379 27.5042 3.19449 27.7179 3.12077 27.742C3.04705 27.7661 2.2758 27.5825 2.24461 27.5659C2.21342 27.5494 1.62506 27.2725 1.59671 27.1175C1.56836 26.961 1.28906 25.4576 1.28906 25.4576Z" fill="#6B184E"/>
</g>
</svg>
