<svg width="36" height="36" viewBox="0 0 36 36" fill="none" xmlns="http://www.w3.org/2000/svg">
<path d="M9.27456 24.106H4.03273C2.25856 24.106 0.820312 25.5892 0.820312 27.419V32.5267C0.820312 34.3564 2.25856 35.8397 4.03273 35.8397H9.27456C11.0487 35.8397 12.487 34.3564 12.487 32.5267V27.419C12.487 25.5892 11.0487 24.106 9.27456 24.106Z" fill="#32314B"/>
<path d="M6.65559 33.9725C8.79749 33.9725 10.5338 32.1818 10.5338 29.9728C10.5338 27.7639 8.79749 25.9731 6.65559 25.9731C4.51369 25.9731 2.77734 27.7639 2.77734 29.9728C2.77734 32.1818 4.51369 33.9725 6.65559 33.9725Z" fill="#FC715A"/>
<path d="M3.40193 29.972C4.21739 29.5116 5.12462 29.2509 6.05341 29.2101C6.08961 29.2088 6.12515 29.2202 6.15426 29.2425C6.18336 29.2647 6.20432 29.2965 6.21373 29.3325C6.22313 29.3686 6.22043 29.4069 6.20606 29.4412C6.1917 29.4755 6.1665 29.5038 6.13459 29.5214C5.33194 29.9814 3.86711 30.9202 3.59256 31.8006C3.59256 31.8025 2.25543 30.4696 3.40193 29.972Z" fill="#F79589"/>
<path d="M6.88382 31.1638C7.14468 31.6341 7.7111 32.2606 8.93878 32.7723L10.1546 32.001C10.1546 32.001 8.31855 31.8815 7.12279 30.9503C7.09329 30.927 7.05691 30.9149 7.01979 30.9161C6.98267 30.9173 6.94708 30.9316 6.91901 30.9567C6.89094 30.9818 6.87211 31.016 6.8657 31.0538C6.85929 31.0915 6.86569 31.1304 6.88382 31.1638V31.1638Z" fill="#F79589"/>
<path d="M7.99609 26.0571C7.99609 26.0571 8.44302 27.4239 8.13656 28.7389C8.12776 28.7758 8.13142 28.8146 8.14693 28.849C8.16245 28.8834 8.18888 28.9113 8.22186 28.9281C8.25484 28.9449 8.29239 28.9495 8.3283 28.9413C8.36421 28.9331 8.39631 28.9125 8.41931 28.8829C8.81972 28.3646 9.26665 27.5537 9.09335 26.6497L7.99609 26.0571Z" fill="#F79589"/>
<path d="M12.2553 28.9532C12.1997 28.6268 11.6798 28.4302 11.5721 28.1263C11.4645 27.8225 11.7372 27.3202 11.5794 27.038C11.4217 26.7558 10.8653 26.7558 10.6619 26.5028C10.4585 26.2497 10.5524 25.6891 10.3089 25.4784C10.0654 25.2677 9.54546 25.4614 9.2691 25.2968C8.99273 25.1322 8.89879 24.5706 8.59779 24.4578C8.2968 24.3449 7.87815 24.7127 7.56165 24.6562C7.24515 24.5998 6.97517 24.106 6.64955 24.106C6.32393 24.106 6.04756 24.5998 5.73745 24.6562C5.42733 24.7127 4.99591 24.3468 4.70039 24.4578C4.40487 24.5688 4.30271 25.1341 4.02908 25.2968C3.75545 25.4596 3.23282 25.2677 2.9902 25.4784C2.74758 25.6891 2.84153 26.2516 2.63631 26.5028C2.43109 26.7539 1.87927 26.7539 1.72421 27.0389C1.56915 27.3239 1.84096 27.8159 1.73151 28.1263C1.62205 28.4367 1.10307 28.6268 1.04834 28.9532C0.993617 29.2796 1.41318 29.6389 1.41318 29.9719C1.41318 30.3049 0.99088 30.6727 1.04834 30.9906C1.10581 31.3086 1.62388 31.5136 1.73151 31.8194C1.83913 32.1251 1.5655 32.6246 1.72421 32.9058C1.88291 33.1871 2.43747 33.188 2.63631 33.442C2.83515 33.696 2.74667 34.2557 2.9902 34.4664C3.23373 34.6771 3.75363 34.4833 4.02908 34.6479C4.30454 34.8125 4.3994 35.3741 4.70039 35.487C5.00138 35.5999 5.42004 35.2321 5.73745 35.2894C6.05486 35.3468 6.32302 35.8388 6.64955 35.8388C6.97608 35.8388 7.25062 35.3449 7.56165 35.2894C7.87267 35.2339 8.30318 35.598 8.59779 35.487C8.8924 35.376 8.99638 34.8116 9.2691 34.6479C9.54182 34.4842 10.0663 34.6771 10.3089 34.4664C10.5515 34.2557 10.4576 33.6931 10.6619 33.442C10.8662 33.1908 11.4189 33.1908 11.5794 32.9058C11.74 32.6208 11.4618 32.1298 11.5721 31.8194C11.6825 31.5089 12.1997 31.318 12.2553 30.9906C12.311 30.6633 11.8859 30.3058 11.8859 29.9719C11.8859 29.638 12.3091 29.2711 12.2553 28.9532ZM10.1429 30.6068C10.1082 30.81 9.78443 30.9323 9.71694 31.1233C9.64944 31.3142 9.82001 31.6246 9.7215 31.8005C9.62299 31.9764 9.27731 31.9783 9.15052 32.1345C9.02374 32.2906 9.08121 32.6415 8.9298 32.7722C8.77839 32.903 8.45459 32.7826 8.28221 32.8851C8.10982 32.9877 8.05236 33.3376 7.86447 33.4081C7.67657 33.4787 7.41571 33.2492 7.2187 33.2849C7.02168 33.3206 6.85386 33.6273 6.65228 33.6273C6.45071 33.6273 6.27741 33.3197 6.08496 33.2849C5.8925 33.2501 5.62344 33.473 5.43919 33.4081C5.25495 33.3432 5.19201 32.9867 5.02145 32.8851C4.85089 32.7835 4.52527 32.9039 4.37386 32.7722C4.22245 32.6405 4.28265 32.2906 4.15404 32.1345C4.02544 31.9783 3.68158 31.9774 3.58216 31.8005C3.48274 31.6237 3.65512 31.3161 3.58216 31.1233C3.50919 30.9304 3.19087 30.81 3.15712 30.6068C3.12337 30.4037 3.38879 30.1798 3.38879 29.9719C3.38879 29.764 3.12428 29.5354 3.15894 29.3379C3.1936 29.1404 3.5174 29.0115 3.58398 28.8224C3.65056 28.6333 3.48091 28.3201 3.58398 28.1451C3.68705 27.9702 4.02909 27.9664 4.15587 27.8103C4.28265 27.6541 4.22427 27.3042 4.37568 27.1725C4.52709 27.0408 4.85089 27.1622 5.02327 27.0596C5.19566 26.9571 5.25403 26.6072 5.44102 26.5366C5.628 26.4661 5.88977 26.6956 6.08678 26.6598C6.2838 26.6241 6.45162 26.3174 6.65411 26.3174C6.85659 26.3174 7.02807 26.625 7.22052 26.6598C7.41297 26.6946 7.68204 26.4717 7.86629 26.5366C8.05053 26.6015 8.11347 26.958 8.28403 27.0596C8.45459 27.1612 8.78113 27.0418 8.93162 27.1725C9.08212 27.3033 9.02283 27.6541 9.15235 27.8103C9.28187 27.9664 9.6239 27.9674 9.72332 28.1442C9.82274 28.321 9.65036 28.6286 9.71876 28.8224C9.78717 29.0162 10.1101 29.1338 10.1447 29.3379C10.1794 29.542 9.91486 29.764 9.91486 29.9719C9.91486 30.1798 10.1766 30.4093 10.1429 30.6068V30.6068Z" fill="white"/>
<path d="M8.8236 24.6536C8.76967 24.5667 8.69188 24.4982 8.60013 24.457C8.51085 24.4297 8.41579 24.4297 8.3265 24.457C8.42107 24.5515 8.5371 24.6201 8.66398 24.6564C8.71698 24.6644 8.77089 24.6635 8.8236 24.6536V24.6536ZM8.66398 35.2887C8.53691 35.3243 8.42055 35.3922 8.32559 35.4862C8.41484 35.5139 8.50998 35.5139 8.59922 35.4862C8.69082 35.4448 8.76855 35.3764 8.82268 35.2896C8.77013 35.2808 8.71653 35.2808 8.66398 35.2896V35.2887ZM6.08274 35.4862C6.26516 35.6452 6.44758 35.838 6.65462 35.838C6.86167 35.838 7.02585 35.6603 7.20188 35.506C7.10203 35.4031 6.97832 35.3283 6.84252 35.2887C6.61723 35.2483 6.33356 35.426 6.08274 35.4872V35.4862ZM3.74502 26.503C3.94934 26.2518 3.85448 25.6893 4.09801 25.4786C4.34154 25.2679 4.86143 25.4616 5.13689 25.297C5.33025 25.1823 5.43515 24.869 5.58564 24.6546C5.29559 24.6085 4.95629 24.3648 4.7082 24.458C4.40721 24.5718 4.31053 25.1343 4.0369 25.297C3.76327 25.4598 3.24063 25.2679 2.99802 25.4786C2.7554 25.6893 2.84934 26.2518 2.64412 26.503C2.4389 26.7541 1.88708 26.7541 1.73202 27.0391C1.57696 27.3242 1.84877 27.8161 1.73932 28.1265C1.62987 28.437 1.11088 28.627 1.05616 28.9534C1.00143 29.2798 1.421 29.6391 1.421 29.9721C1.421 30.3051 0.998693 30.6738 1.05616 30.9908C1.11362 31.3078 1.63169 31.5148 1.73932 31.8196C1.84695 32.1243 1.57332 32.6248 1.73202 32.906C1.89073 33.1873 2.44528 33.1882 2.64412 33.4422C2.84296 33.6962 2.75449 34.2559 2.99802 34.4666C3.24155 34.6773 3.76144 34.4835 4.0369 34.6481C4.31235 34.8127 4.40721 35.3743 4.7082 35.4872C4.95629 35.5812 5.29559 35.3376 5.58564 35.2906C5.43515 35.0761 5.33025 34.7629 5.13689 34.6481C4.86326 34.4835 4.34063 34.6773 4.09801 34.4666C3.85539 34.2559 3.94934 33.6933 3.74502 33.4422C3.54071 33.191 2.98707 33.191 2.82745 32.906C2.66784 32.621 2.9442 32.13 2.83475 31.8196C2.7253 31.5091 2.20631 31.3182 2.15159 30.9908C2.09686 30.6635 2.51643 30.306 2.51643 29.9721C2.51643 29.6382 2.09321 29.2713 2.15159 28.9534C2.20996 28.6354 2.72712 28.4304 2.83475 28.1265C2.94238 27.8227 2.66875 27.3204 2.82745 27.0391C2.98616 26.7579 3.54071 26.7532 3.74502 26.503Z" fill="#E5E5E5"/>
<path d="M20.9425 24.106H15.7007C13.9265 24.106 12.4883 25.5892 12.4883 27.419V32.5267C12.4883 34.3564 13.9265 35.8397 15.7007 35.8397H20.9425C22.7167 35.8397 24.155 34.3564 24.155 32.5267V27.419C24.155 25.5892 22.7167 24.106 20.9425 24.106Z" fill="#32314B"/>
<path d="M18.3197 33.9725C20.4616 33.9725 22.1979 32.1818 22.1979 29.9728C22.1979 27.7639 20.4616 25.9731 18.3197 25.9731C16.1778 25.9731 14.4414 27.7639 14.4414 29.9728C14.4414 32.1818 16.1778 33.9725 18.3197 33.9725Z" fill="#FC715A"/>
<path d="M15.0648 29.972C15.8803 29.5116 16.7875 29.2509 17.7163 29.2101C17.7525 29.2088 17.7881 29.2202 17.8172 29.2425C17.8463 29.2647 17.8672 29.2965 17.8766 29.3325C17.886 29.3686 17.8833 29.4069 17.869 29.4412C17.8546 29.4755 17.8294 29.5038 17.7975 29.5214C16.9949 29.9814 15.53 30.9202 15.2555 31.8006C15.2573 31.8025 13.9202 30.4696 15.0648 29.972Z" fill="#F79589"/>
<path d="M18.5518 31.1638C18.8127 31.6341 19.3791 32.2606 20.6068 32.7723L21.8226 32.001C21.8226 32.001 19.9865 31.8815 18.7908 30.9503C18.7613 30.927 18.7249 30.9149 18.6878 30.9161C18.6506 30.9173 18.615 30.9316 18.587 30.9567C18.5589 30.9818 18.5401 31.016 18.5337 31.0538C18.5273 31.0915 18.5337 31.1304 18.5518 31.1638V31.1638Z" fill="#F79589"/>
<path d="M19.6641 26.0571C19.6641 26.0571 20.111 27.4239 19.8054 28.7389C19.796 28.7758 19.7993 28.8149 19.8146 28.8496C19.8299 28.8843 19.8563 28.9125 19.8895 28.9294C19.9226 28.9463 19.9604 28.9509 19.9964 28.9425C20.0324 28.934 20.0645 28.9129 20.0873 28.8829C20.4877 28.3646 20.9346 27.5537 20.7613 26.6497L19.6641 26.0571Z" fill="#F79589"/>
<path d="M23.9219 28.9532C23.8662 28.6268 23.3463 28.4302 23.2387 28.1263C23.1311 27.8225 23.4038 27.3202 23.246 27.038C23.0882 26.7558 22.5318 26.7558 22.3284 26.5028C22.125 26.2497 22.219 25.6891 21.9754 25.4784C21.7319 25.2677 21.212 25.4614 20.9357 25.2968C20.6593 25.1322 20.5653 24.5706 20.2643 24.4578C19.9634 24.3449 19.5447 24.7127 19.2282 24.6562C18.9117 24.5998 18.6417 24.106 18.3161 24.106C17.9905 24.106 17.715 24.5998 17.404 24.6562C17.093 24.7127 16.6625 24.3468 16.3669 24.4578C16.0714 24.5688 15.9693 25.1341 15.6956 25.2968C15.422 25.4596 14.8994 25.2677 14.6568 25.4784C14.4141 25.6891 14.5163 26.2525 14.3083 26.5028C14.1004 26.753 13.5513 26.7539 13.3917 27.0389C13.2321 27.3239 13.5084 27.8159 13.399 28.1263C13.2895 28.4367 12.7705 28.6268 12.7158 28.9532C12.6611 29.2796 13.0852 29.6389 13.0852 29.9719C13.0852 30.3049 12.662 30.6727 12.7158 30.9906C12.7696 31.3086 13.2913 31.5136 13.399 31.8194C13.5066 32.1251 13.233 32.6246 13.3917 32.9058C13.5504 33.1871 14.1049 33.188 14.3083 33.442C14.5117 33.696 14.4187 34.2557 14.6622 34.4664C14.9058 34.6771 15.4257 34.4833 15.7011 34.6479C15.9766 34.8125 16.0714 35.3741 16.3724 35.487C16.6734 35.5999 17.093 35.2321 17.4095 35.2894C17.726 35.3468 17.995 35.8388 18.3216 35.8388C18.6481 35.8388 18.9227 35.3449 19.2337 35.2894C19.5447 35.2339 19.9752 35.598 20.2698 35.487C20.5644 35.376 20.6684 34.8116 20.9411 34.6479C21.2138 34.4842 21.7383 34.6771 21.9809 34.4664C22.2235 34.2557 22.1296 33.6931 22.3339 33.442C22.5382 33.1908 23.0919 33.1908 23.2515 32.9058C23.4111 32.6208 23.1347 32.1298 23.2442 31.8194C23.3536 31.5089 23.8717 31.318 23.9273 30.9906C23.983 30.6633 23.5579 30.3058 23.5579 29.9719C23.5579 29.638 23.9757 29.2711 23.9219 28.9532ZM21.8131 30.6068C21.7784 30.81 21.4546 30.9323 21.3871 31.1233C21.3196 31.3142 21.4902 31.6246 21.3871 31.8005C21.2841 31.9764 20.943 31.9783 20.8162 32.1345C20.6894 32.2906 20.7478 32.6415 20.5964 32.7722C20.4449 32.903 20.1202 32.7826 19.9479 32.8851C19.7755 32.9877 19.718 33.3376 19.5301 33.4081C19.3422 33.4787 19.0814 33.2492 18.8843 33.2849C18.6873 33.3206 18.5195 33.6273 18.3179 33.6273C18.1164 33.6273 17.9431 33.3197 17.7506 33.2849C17.5582 33.2501 17.2891 33.473 17.1048 33.4081C16.9206 33.3432 16.8577 32.9867 16.6871 32.8851C16.5165 32.7835 16.1909 32.9039 16.0395 32.7722C15.8881 32.6405 15.9483 32.2906 15.8197 32.1345C15.6911 31.9783 15.3472 31.9774 15.2478 31.8005C15.1484 31.6237 15.3208 31.3161 15.2533 31.1233C15.1858 30.9304 14.862 30.81 14.8273 30.6068C14.7927 30.4037 15.0572 30.1798 15.0572 29.9719C15.0572 29.764 14.7936 29.5354 14.8273 29.3379C14.8611 29.1404 15.1858 29.0115 15.2533 28.8224C15.3208 28.6333 15.1548 28.322 15.246 28.1451C15.3372 27.9683 15.6911 27.9664 15.8179 27.8103C15.9446 27.6541 15.8863 27.3042 16.0377 27.1725C16.1891 27.0408 16.5129 27.1622 16.6853 27.0596C16.8577 26.9571 16.916 26.6072 17.103 26.5366C17.29 26.4661 17.5518 26.6956 17.7488 26.6598C17.9458 26.6241 18.1136 26.3174 18.3161 26.3174C18.5186 26.3174 18.6901 26.625 18.8825 26.6598C19.075 26.6946 19.345 26.4717 19.5283 26.5366C19.7116 26.6015 19.7764 26.958 19.946 27.0596C20.1157 27.1612 20.4431 27.0418 20.5945 27.1725C20.7459 27.3033 20.6857 27.6541 20.8143 27.8103C20.943 27.9664 21.2859 27.9674 21.3853 28.1442C21.4847 28.321 21.3133 28.6286 21.3853 28.8224C21.4574 29.0162 21.7766 29.1338 21.8113 29.3379C21.8459 29.542 21.5814 29.764 21.5814 29.9719C21.5814 30.1798 21.8432 30.4093 21.8131 30.6068Z" fill="white"/>
<path d="M20.4878 24.6536C20.4341 24.5665 20.3562 24.498 20.2643 24.457C20.1751 24.4297 20.08 24.4297 19.9907 24.457C20.0854 24.5514 20.2014 24.6199 20.3282 24.6564C20.3812 24.6644 20.4351 24.6635 20.4878 24.6536ZM20.3282 35.2887C20.2015 35.3245 20.0855 35.3924 19.9907 35.4862C20.0799 35.514 20.1751 35.514 20.2643 35.4862C20.3562 35.4453 20.4341 35.3768 20.4878 35.2896C20.435 35.2807 20.3811 35.2807 20.3282 35.2896V35.2887ZM17.747 35.4862C17.9294 35.6452 18.1164 35.838 18.3188 35.838C18.5213 35.838 18.691 35.6603 18.8661 35.506C18.7662 35.4031 18.6425 35.3283 18.5067 35.2887C18.2814 35.2483 17.9978 35.426 17.747 35.4872V35.4862ZM15.4092 26.502C15.6108 26.2527 15.5196 25.6883 15.7622 25.4786C16.0048 25.2688 16.5257 25.4616 16.802 25.297C16.9945 25.1823 17.0994 24.869 17.2499 24.6546C16.9598 24.6085 16.6205 24.3648 16.3724 24.458C16.0714 24.5718 15.9747 25.1343 15.7011 25.297C15.4275 25.4598 14.9049 25.2679 14.6622 25.4786C14.4196 25.6893 14.5163 26.2527 14.3083 26.503C14.1004 26.7532 13.5513 26.7541 13.3917 27.0391C13.2321 27.3242 13.5084 27.8161 13.399 28.1265C13.2895 28.437 12.7705 28.627 12.7158 28.9534C12.6611 29.2798 13.0852 29.6391 13.0852 29.9721C13.0852 30.3051 12.662 30.6738 12.7158 30.9908C12.7696 31.3078 13.2913 31.5148 13.399 31.8196C13.5066 32.1243 13.233 32.6248 13.3917 32.906C13.5504 33.1873 14.1049 33.1882 14.3083 33.4422C14.5117 33.6962 14.4187 34.2559 14.6622 34.4666C14.9058 34.6773 15.4257 34.4835 15.7011 34.6481C15.9766 34.8127 16.0714 35.3743 16.3724 35.4872C16.6205 35.5812 16.9598 35.3376 17.2499 35.2906C17.0994 35.0761 16.9945 34.7629 16.802 34.6481C16.5284 34.4835 16.0048 34.6773 15.7622 34.4666C15.5196 34.2559 15.6136 33.6933 15.4092 33.4422C15.2049 33.191 14.6513 33.191 14.4917 32.906C14.3321 32.621 14.6084 32.13 14.499 31.8196C14.3895 31.5091 13.8714 31.3182 13.8158 30.9908C13.7602 30.6635 14.1852 30.306 14.1852 29.9721C14.1852 29.6382 13.762 29.2713 13.8158 28.9534C13.8696 28.6354 14.3913 28.4304 14.499 28.1265C14.6066 27.8227 14.333 27.3204 14.4917 27.0391C14.6504 26.7579 15.2049 26.7532 15.4092 26.503V26.502Z" fill="#E5E5E5"/>
<path d="M32.6066 24.106H27.3648C25.5906 24.106 24.1523 25.5892 24.1523 27.419V32.5267C24.1523 34.3564 25.5906 35.8397 27.3648 35.8397H32.6066C34.3808 35.8397 35.819 34.3564 35.819 32.5267V27.419C35.819 25.5892 34.3808 24.106 32.6066 24.106Z" fill="#32314B"/>
<path d="M29.9876 33.9725C32.1295 33.9725 33.8659 32.1818 33.8659 29.9728C33.8659 27.7639 32.1295 25.9731 29.9876 25.9731C27.8457 25.9731 26.1094 27.7639 26.1094 29.9728C26.1094 32.1818 27.8457 33.9725 29.9876 33.9725Z" fill="#FC715A"/>
<path d="M26.7344 29.972C27.5498 29.5116 28.457 29.2509 29.3858 29.2101C29.422 29.2088 29.4576 29.2202 29.4867 29.2425C29.5158 29.2647 29.5367 29.2965 29.5462 29.3325C29.5556 29.3686 29.5529 29.4069 29.5385 29.4412C29.5241 29.4755 29.4989 29.5038 29.467 29.5214C28.6644 29.9814 27.1968 30.9202 26.9232 31.8025C26.9232 31.8025 25.5879 30.4696 26.7344 29.972Z" fill="#F79589"/>
<path d="M30.2159 31.1638C30.4767 31.6341 31.0431 32.2606 32.2708 32.7723L33.4866 32.001C33.4866 32.001 31.6506 31.8815 30.4548 30.9503C30.4253 30.927 30.3889 30.9149 30.3518 30.9161C30.3147 30.9173 30.2791 30.9316 30.251 30.9567C30.223 30.9818 30.2041 31.016 30.1977 31.0538C30.1913 31.0915 30.1977 31.1304 30.2159 31.1638V31.1638Z" fill="#F79589"/>
<path d="M31.332 26.0571C31.332 26.0571 31.7799 27.4239 31.4734 28.7389C31.4603 28.777 31.4611 28.8186 31.4757 28.856C31.4902 28.8935 31.5176 28.9242 31.5525 28.9423C31.5874 28.9604 31.6276 28.9648 31.6655 28.9545C31.7033 28.9443 31.7362 28.9201 31.758 28.8866C32.1584 28.3683 32.6053 27.5575 32.432 26.6535L31.332 26.0571Z" fill="#F79589"/>
<path d="M35.5887 28.9531C35.533 28.6267 35.0131 28.4301 34.9055 28.1262C34.7979 27.8224 35.0715 27.3201 34.9128 27.0379C34.7541 26.7557 34.1995 26.7557 33.9952 26.5026C33.7909 26.2496 33.8858 25.689 33.6422 25.4783C33.3987 25.2676 32.8788 25.4613 32.6025 25.2967C32.3261 25.1321 32.2321 24.5705 31.9311 24.4577C31.6302 24.3448 31.2106 24.7126 30.8977 24.6533C30.5849 24.5941 30.3113 24.103 29.9856 24.103C29.66 24.103 29.3846 24.5969 29.0735 24.6533C28.7625 24.7098 28.332 24.3438 28.0365 24.4548C27.741 24.5658 27.6388 25.1312 27.3661 25.2939C27.0934 25.4566 26.5689 25.2647 26.3263 25.4754C26.0837 25.6862 26.1776 26.2487 25.9733 26.4998C25.769 26.751 25.2154 26.751 25.0557 27.036C24.8961 27.321 25.1725 27.813 25.063 28.1234C24.9536 28.4338 24.4346 28.6238 24.3799 28.9502C24.3251 29.2766 24.7493 29.636 24.7493 29.969C24.7493 30.302 24.3261 30.6698 24.3799 30.9877C24.4337 31.3056 24.9554 31.5107 25.063 31.8164C25.1707 32.1221 24.897 32.6216 25.0557 32.9029C25.2144 33.1841 25.769 33.1851 25.9733 33.4391C26.1776 33.693 26.0828 34.2527 26.3263 34.4634C26.5698 34.6741 27.0897 34.4804 27.3661 34.645C27.6425 34.8096 27.7364 35.3712 28.0365 35.484C28.3366 35.5969 28.757 35.2291 29.0735 35.2865C29.39 35.3439 29.6591 35.8359 29.9856 35.8359C30.3122 35.8359 30.5867 35.342 30.8977 35.2865C31.2088 35.231 31.6393 35.595 31.9339 35.484C32.2285 35.3731 32.3325 34.8087 32.6052 34.645C32.8779 34.4813 33.4024 34.6741 33.645 34.4634C33.8876 34.2527 33.7937 33.6902 33.998 33.4391C34.2023 33.1879 34.7559 33.1879 34.9155 32.9029C35.0752 32.6179 34.7988 32.1268 34.9082 31.8164C35.0177 31.506 35.5358 31.3151 35.5914 30.9877C35.647 30.6604 35.2266 30.3029 35.2266 29.969C35.2266 29.635 35.6452 29.271 35.5887 28.9531ZM33.4762 30.6067C33.4416 30.8099 33.1178 30.9322 33.0503 31.1232C32.9828 31.3141 33.1543 31.6245 33.0549 31.8004C32.9554 31.9763 32.6107 31.9782 32.4839 32.1344C32.3571 32.2905 32.4155 32.6414 32.2641 32.7721C32.1127 32.9029 31.7879 32.7825 31.6156 32.885C31.4432 32.9875 31.3857 33.3375 31.1978 33.408C31.0099 33.4786 30.7491 33.249 30.5521 33.2848C30.355 33.3205 30.1872 33.6272 29.9856 33.6272C29.7841 33.6272 29.6108 33.3196 29.4183 33.2848C29.2259 33.25 28.9568 33.4729 28.7735 33.408C28.5901 33.3431 28.5254 32.9866 28.3548 32.885C28.1842 32.7834 27.8586 32.9038 27.7072 32.7721C27.5558 32.6404 27.616 32.2905 27.4874 32.1344C27.3588 31.9782 27.0149 31.9773 26.9237 31.8023C26.8325 31.6274 26.9958 31.3179 26.9283 31.125C26.8608 30.9322 26.537 30.8118 26.5023 30.6086C26.4677 30.4054 26.7322 30.1816 26.7322 29.9737C26.7322 29.7658 26.4686 29.5372 26.5023 29.3397C26.5361 29.1421 26.8608 29.0133 26.9283 28.8242C26.9958 28.6351 26.8243 28.3219 26.9237 28.1469C27.0231 27.972 27.3679 27.9682 27.4947 27.812C27.6215 27.6559 27.5631 27.306 27.7145 27.1743C27.8659 27.0426 28.1897 27.1639 28.3621 27.0614C28.5345 26.9589 28.5929 26.6089 28.7808 26.5384C28.9686 26.4678 29.2295 26.6974 29.4256 26.6616C29.6217 26.6259 29.7905 26.3192 29.9929 26.3192C30.1954 26.3192 30.3678 26.6268 30.5594 26.6616C30.7509 26.6964 31.0218 26.4735 31.2051 26.5384C31.3885 26.6033 31.4532 26.9598 31.6229 27.0614C31.7925 27.163 32.12 27.0435 32.2714 27.1743C32.4228 27.305 32.3626 27.6559 32.4912 27.812C32.6198 27.9682 32.9627 27.9691 33.0622 28.146C33.1616 28.3228 32.9901 28.6304 33.0576 28.8242C33.1251 29.018 33.4489 29.1355 33.4835 29.3397C33.5182 29.5438 33.2537 29.7658 33.2537 29.9737C33.2537 30.1816 33.5127 30.4092 33.479 30.6067H33.4762Z" fill="white"/>
<path d="M32.1558 24.6536C32.1021 24.5665 32.0242 24.498 31.9323 24.457C31.843 24.4297 31.748 24.4297 31.6587 24.457C31.7534 24.5514 31.8694 24.6199 31.9962 24.6564C32.0492 24.6644 32.1031 24.6635 32.1558 24.6536V24.6536ZM31.9962 35.2887C31.8695 35.3245 31.7535 35.3924 31.6587 35.4862C31.7479 35.514 31.8431 35.514 31.9323 35.4862C32.0242 35.4453 32.1021 35.3768 32.1558 35.2896C32.1029 35.2807 32.049 35.2807 31.9962 35.2896V35.2887ZM29.4149 35.4862C29.5973 35.6452 29.7843 35.838 29.9868 35.838C30.1893 35.838 30.3589 35.6603 30.5341 35.506C30.4342 35.4031 30.3105 35.3283 30.1747 35.2887C29.9494 35.2483 29.6657 35.426 29.4149 35.4872V35.4862ZM27.0772 26.503C27.2815 26.2518 27.1867 25.6893 27.4302 25.4786C27.6737 25.2679 28.1936 25.4616 28.47 25.297C28.6624 25.1823 28.7673 24.869 28.9178 24.6546C28.6278 24.6085 28.2885 24.3648 28.0404 24.458C27.7403 24.5718 27.6427 25.1343 27.37 25.297C27.0973 25.4598 26.5728 25.2679 26.3302 25.4786C26.0876 25.6893 26.1815 26.2518 25.9772 26.503C25.7729 26.7541 25.2193 26.7541 25.0596 27.0391C24.9 27.3242 25.1764 27.8161 25.0669 28.1265C24.9575 28.437 24.4385 28.627 24.3838 28.9534C24.3291 29.2798 24.7532 29.6391 24.7532 29.9721C24.7532 30.3051 24.33 30.6738 24.3838 30.9908C24.4376 31.3078 24.9593 31.5148 25.0669 31.8196C25.1746 32.1243 24.9009 32.6248 25.0596 32.906C25.2183 33.1873 25.7729 33.1882 25.9772 33.4422C26.1815 33.6962 26.0867 34.2559 26.3302 34.4666C26.5737 34.6773 27.0936 34.4835 27.37 34.6481C27.6464 34.8127 27.7403 35.3743 28.0404 35.4872C28.2885 35.5812 28.6278 35.3376 28.9178 35.2906C28.7673 35.0761 28.6624 34.7629 28.47 34.6481C28.1964 34.4835 27.6728 34.6773 27.4302 34.4666C27.1876 34.2559 27.2815 33.6933 27.0772 33.4422C26.8729 33.191 26.3193 33.191 26.1596 32.906C26 32.621 26.2764 32.13 26.1669 31.8196C26.0575 31.5091 25.5394 31.3182 25.4838 30.9908C25.4281 30.6635 25.8486 30.306 25.8486 29.9721C25.8486 29.6382 25.4254 29.2713 25.4838 28.9534C25.5421 28.6354 26.0593 28.4304 26.1669 28.1265C26.2746 27.8227 26.0018 27.3204 26.1596 27.0391C26.3174 26.7579 26.8729 26.7532 27.0772 26.503Z" fill="#E5E5E5"/>
<path d="M15.1066 12.4731H9.86476C8.09059 12.4731 6.65234 13.9564 6.65234 15.7861V20.8939C6.65234 22.7236 8.09059 24.2069 9.86476 24.2069H15.1066C16.8808 24.2069 18.319 22.7236 18.319 20.8939V15.7861C18.319 13.9564 16.8808 12.4731 15.1066 12.4731Z" fill="#32314B"/>
<path d="M12.4876 22.3397C14.6295 22.3397 16.3659 20.549 16.3659 18.34C16.3659 16.131 14.6295 14.3403 12.4876 14.3403C10.3457 14.3403 8.60938 16.131 8.60938 18.34C8.60938 20.549 10.3457 22.3397 12.4876 22.3397Z" fill="#FC715A"/>
<path d="M9.23337 18.3396C10.0487 17.8787 10.9559 17.6177 11.8848 17.5767C11.921 17.5757 11.9565 17.5873 11.9855 17.6096C12.0145 17.6319 12.0354 17.6636 12.0449 17.6996C12.0544 17.7356 12.0518 17.7739 12.0377 17.8082C12.0235 17.8426 11.9986 17.871 11.9669 17.889C11.1634 18.3481 9.69945 19.2878 9.42491 20.1673C9.42491 20.1673 8.08777 18.8372 9.23337 18.3396Z" fill="#F79589"/>
<path d="M12.7166 19.5308C12.9774 20.0011 13.5438 20.6276 14.7724 21.1393L15.9874 20.3689C15.9874 20.3689 14.1513 20.2485 12.9564 19.3173C12.927 19.2934 12.8904 19.2809 12.853 19.2818C12.8156 19.2827 12.7796 19.297 12.7513 19.3222C12.7229 19.3474 12.704 19.382 12.6976 19.4201C12.6913 19.4581 12.698 19.4973 12.7166 19.5308V19.5308Z" fill="#F79589"/>
<path d="M13.832 14.4238C13.832 14.4238 14.279 15.7906 13.9725 17.1056C13.9637 17.1425 13.9674 17.1813 13.9829 17.2157C13.9984 17.2501 14.0248 17.278 14.0578 17.2948C14.0908 17.3116 14.1283 17.3162 14.1642 17.308C14.2001 17.2998 14.2322 17.2792 14.2552 17.2496C14.6557 16.7313 15.1017 15.9204 14.9284 15.0164L13.832 14.4238Z" fill="#F79589"/>
<path d="M18.0905 17.3213C18.0358 16.9949 17.515 16.7973 17.4073 16.4935C17.2997 16.1897 17.5733 15.6883 17.4146 15.4061C17.2559 15.1239 16.7014 15.1239 16.498 14.8699C16.2946 14.616 16.3876 14.0563 16.1441 13.8456C15.9005 13.6349 15.3806 13.8286 15.1052 13.664C14.8297 13.4994 14.7349 12.9378 14.4339 12.8259C14.1329 12.714 13.7133 13.0808 13.3968 13.0234C13.0803 12.966 12.8113 12.4731 12.4847 12.4731C12.1582 12.4731 11.8837 12.967 11.5726 13.0234C11.2616 13.0799 10.8311 12.7149 10.5365 12.8259C10.2419 12.9369 10.1379 13.5013 9.86518 13.664C9.59246 13.8268 9.068 13.6358 8.82538 13.8456C8.58276 14.0553 8.68127 14.6188 8.47787 14.8709C8.27447 15.123 7.71992 15.122 7.5603 15.4071C7.40068 15.6921 7.67705 16.184 7.5676 16.4945C7.45814 16.8049 6.94007 16.9958 6.88443 17.3222C6.8288 17.6486 7.24927 18.007 7.24927 18.341C7.24927 18.6749 6.82606 19.0418 6.88443 19.3597C6.94281 19.6776 7.45997 19.8827 7.5676 20.1875C7.67522 20.4923 7.40251 20.9927 7.5603 21.2749C7.71809 21.5571 8.27447 21.5571 8.47787 21.8111C8.68127 22.065 8.58732 22.6238 8.83085 22.8345C9.07439 23.0452 9.59428 22.8524 9.87065 23.016C10.147 23.1797 10.241 23.7422 10.542 23.8551C10.8429 23.968 11.2616 23.6002 11.5781 23.6576C11.8946 23.7149 12.1646 24.2079 12.4902 24.2079C12.8158 24.2079 13.0913 23.7131 13.4023 23.6576C13.7133 23.6021 14.1438 23.9661 14.4394 23.8551C14.7349 23.7441 14.837 23.1797 15.1107 23.016C15.3843 22.8524 15.9069 23.0452 16.1495 22.8345C16.3922 22.6238 16.2982 22.0622 16.5034 21.8111C16.7087 21.5599 17.2605 21.559 17.4201 21.2749C17.5797 20.9908 17.3033 20.4979 17.4128 20.1875C17.5223 19.8771 18.0412 19.6861 18.096 19.3597C18.1507 19.0333 17.7311 18.6749 17.7311 18.341C17.7311 18.007 18.1443 17.6392 18.0905 17.3213ZM15.9781 18.974C15.9434 19.1782 15.6196 19.3004 15.5521 19.4905C15.4846 19.6805 15.6561 19.9918 15.5576 20.1677C15.4591 20.3436 15.1125 20.3455 14.9857 20.5017C14.8589 20.6578 14.9173 21.0087 14.7659 21.1394C14.6145 21.2702 14.2907 21.1507 14.1183 21.2523C13.9459 21.3539 13.8875 21.7057 13.7006 21.7753C13.5136 21.8449 13.2518 21.6173 13.0548 21.6521C12.8578 21.6869 12.6899 21.9954 12.4875 21.9954C12.285 21.9954 12.1135 21.6869 11.921 21.6521C11.7286 21.6173 11.4595 21.8402 11.2753 21.7753C11.091 21.7104 11.0272 21.3548 10.8575 21.2523C10.6879 21.1498 10.3604 21.2711 10.2099 21.1404C10.0595 21.0096 10.1187 20.6578 9.98922 20.5017C9.8597 20.3455 9.51767 20.3446 9.41825 20.1677C9.31883 19.9909 9.4903 19.6842 9.41825 19.4905C9.34619 19.2967 9.02696 19.1782 8.9923 18.974C8.95764 18.7699 9.22214 18.5479 9.22214 18.34C9.22214 18.1321 8.95855 17.9036 8.9923 17.7051C9.02604 17.5066 9.35075 17.3787 9.41825 17.1896C9.48574 17.0005 9.31518 16.6882 9.41825 16.5123C9.52131 16.3364 9.86244 16.3336 9.98922 16.1784C10.116 16.0232 10.0576 15.6714 10.2099 15.5397C10.3623 15.408 10.6852 15.5293 10.8575 15.4268C11.0299 15.3243 11.0874 14.9744 11.2753 14.9038C11.4632 14.8333 11.724 15.0628 11.921 15.027C12.1181 14.9913 12.2859 14.6846 12.4875 14.6846C12.689 14.6846 12.8623 14.9932 13.0548 15.027C13.2472 15.0609 13.5163 14.8389 13.7006 14.9038C13.8848 14.9687 13.9477 15.3252 14.1183 15.4268C14.2889 15.5284 14.6145 15.4089 14.7659 15.5397C14.9173 15.6704 14.8571 16.0222 14.9857 16.1784C15.1143 16.3345 15.4582 16.3345 15.5576 16.5114C15.657 16.6882 15.4846 16.9958 15.5521 17.1896C15.6196 17.3834 15.9434 17.501 15.9781 17.7051C16.0127 17.9092 15.7482 18.1321 15.7482 18.34C15.7482 18.5479 16.0118 18.7765 15.9781 18.974Z" fill="white"/>
<path d="M14.6564 13.0212C14.603 12.9344 14.5255 12.8662 14.4339 12.8256C14.3447 12.7977 14.2495 12.7977 14.1603 12.8256C14.2549 12.9198 14.3709 12.9881 14.4977 13.024C14.5504 13.0325 14.6041 13.0315 14.6564 13.0212V13.0212ZM14.4977 23.6563C14.3706 23.6922 14.2543 23.7605 14.1593 23.8548C14.2486 23.8824 14.3437 23.8824 14.433 23.8548C14.5244 23.8139 14.6019 23.7458 14.6555 23.6591C14.6035 23.6489 14.5501 23.648 14.4977 23.6563V23.6563ZM11.9165 23.8548C12.0989 24.0128 12.2859 24.2066 12.4875 24.2066C12.689 24.2066 12.8596 24.0279 13.0347 23.8736C12.9346 23.7711 12.811 23.6963 12.6754 23.6563C12.451 23.6187 12.1673 23.7927 11.9165 23.8548ZM9.57786 14.8706C9.78309 14.6194 9.68732 14.0569 9.93085 13.8462C10.1744 13.6355 10.6952 13.8292 10.9706 13.6656C11.1631 13.5508 11.268 13.2366 11.4185 13.0222C11.1293 12.9761 10.7891 12.7334 10.542 12.8265C10.241 12.9394 10.1434 13.5019 9.87065 13.6656C9.59793 13.8292 9.07347 13.6364 8.83085 13.8462C8.58824 14.0559 8.68127 14.6185 8.47787 14.8706C8.27447 15.1227 7.71992 15.1217 7.5603 15.4067C7.40068 15.6917 7.67705 16.1837 7.5676 16.4941C7.45814 16.8045 6.94007 16.9955 6.88443 17.3219C6.8288 17.6483 7.24927 18.0067 7.24927 18.3406C7.24927 18.6746 6.82606 19.0414 6.88443 19.3594C6.94281 19.6773 7.45997 19.8824 7.5676 20.1872C7.67522 20.4919 7.40251 20.9924 7.5603 21.2746C7.71809 21.5568 8.27447 21.5568 8.47787 21.8107C8.68127 22.0647 8.58732 22.6244 8.83085 22.8342C9.07439 23.0439 9.59428 22.852 9.87065 23.0157C10.147 23.1794 10.241 23.7419 10.542 23.8548C10.7891 23.9488 11.1293 23.7052 11.4185 23.6591C11.268 23.4447 11.1631 23.1305 10.9706 23.0157C10.697 22.852 10.1744 23.0449 9.93085 22.8342C9.68732 22.6235 9.78309 22.0619 9.57786 21.8107C9.37264 21.5596 8.82082 21.5596 8.66029 21.2746C8.49976 20.9895 8.77795 20.4976 8.66759 20.1872C8.55723 19.8767 8.04006 19.6858 7.98443 19.3594C7.92879 19.033 8.34927 18.6746 8.34927 18.3406C8.34927 18.0067 7.92605 17.6399 7.98443 17.3219C8.0428 17.004 8.55996 16.7989 8.66759 16.4941C8.77522 16.1894 8.5025 15.6889 8.66029 15.4067C8.81809 15.1245 9.37447 15.1208 9.57786 14.8706Z" fill="#E5E5E5"/>
<path d="M26.7746 12.4731H21.5327C19.7586 12.4731 18.3203 13.9564 18.3203 15.7861V20.8939C18.3203 22.7236 19.7586 24.2069 21.5327 24.2069H26.7746C28.5487 24.2069 29.987 22.7236 29.987 20.8939V15.7861C29.987 13.9564 28.5487 12.4731 26.7746 12.4731Z" fill="#32314B"/>
<path d="M24.1556 22.3397C26.2975 22.3397 28.0338 20.549 28.0338 18.34C28.0338 16.131 26.2975 14.3403 24.1556 14.3403C22.0137 14.3403 20.2773 16.131 20.2773 18.34C20.2773 20.549 22.0137 22.3397 24.1556 22.3397Z" fill="#FC715A"/>
<path d="M20.9032 18.3396C21.7166 17.8797 22.6216 17.6187 23.5483 17.5767C23.5845 17.5757 23.6199 17.5873 23.649 17.6096C23.678 17.6319 23.6989 17.6636 23.7084 17.6996C23.7178 17.7356 23.7153 17.7739 23.7012 17.8082C23.687 17.8426 23.6621 17.871 23.6304 17.889C22.8278 18.3481 21.3629 19.2878 21.0884 20.1673C21.092 20.1673 19.7549 18.8372 20.9032 18.3396Z" fill="#F79589"/>
<path d="M24.3859 19.5309C24.6468 20.0012 25.2123 20.6277 26.4409 21.1394L27.6539 20.369C27.6539 20.369 25.8179 20.2486 24.6221 19.3174C24.5925 19.2957 24.5567 19.2849 24.5204 19.2868C24.4841 19.2887 24.4495 19.3032 24.4222 19.3279C24.3949 19.3526 24.3765 19.3861 24.3699 19.4229C24.3633 19.4597 24.3689 19.4978 24.3859 19.5309V19.5309Z" fill="#F79589"/>
<path d="M25.4961 14.4238C25.4961 14.4238 25.943 15.7906 25.6366 17.1056C25.6278 17.1425 25.6314 17.1813 25.6469 17.2157C25.6624 17.2501 25.6889 17.278 25.7219 17.2948C25.7548 17.3116 25.7924 17.3162 25.8283 17.308C25.8642 17.2998 25.8963 17.2792 25.9193 17.2496C26.3197 16.7313 26.7657 15.9204 26.5933 15.0164L25.4961 14.4238Z" fill="#F79589"/>
<path d="M29.7565 17.3213C29.7009 16.9949 29.1801 16.7973 29.0725 16.4935C28.9648 16.1897 29.2385 15.6883 29.0797 15.4061C28.921 15.1239 28.3665 15.1239 28.1631 14.8699C27.9597 14.616 28.0527 14.0563 27.8101 13.8456C27.5675 13.6349 27.0458 13.8286 26.7703 13.664C26.4949 13.4994 26.4 12.9378 26.099 12.8259C25.798 12.714 25.3794 13.0808 25.0619 13.0234C24.7445 12.966 24.4764 12.4731 24.1498 12.4731C23.8233 12.4731 23.5488 12.967 23.2377 13.0234C22.9267 13.0799 22.4971 12.7149 22.2016 12.8259C21.9061 12.9369 21.803 13.5013 21.5303 13.664C21.2576 13.8268 20.734 13.6358 20.4905 13.8456C20.247 14.0553 20.3427 14.6188 20.1375 14.8699C19.9323 15.1211 19.3805 15.1211 19.22 15.4061C19.0594 15.6911 19.3376 16.1831 19.2272 16.4935C19.1169 16.8039 18.5997 16.9949 18.5441 17.3213C18.4884 17.6477 18.9135 18.0061 18.9135 18.34C18.9135 18.674 18.4903 19.0408 18.5441 19.3588C18.5979 19.6767 19.1196 19.8818 19.2272 20.1865C19.3349 20.4913 19.0622 20.9917 19.22 21.2739C19.3777 21.5561 19.9341 21.5561 20.1375 21.8101C20.3409 22.0641 20.247 22.6228 20.4905 22.8336C20.734 23.0443 21.2548 22.8514 21.5303 23.0151C21.8058 23.1788 21.9006 23.7413 22.2016 23.8542C22.5026 23.967 22.9212 23.5992 23.2377 23.6566C23.5542 23.714 23.8242 24.2069 24.1498 24.2069C24.4755 24.2069 24.7518 23.7121 25.0619 23.6566C25.3721 23.6011 25.8035 23.9652 26.099 23.8542C26.3945 23.7432 26.4967 23.1788 26.7703 23.0151C27.0439 22.8514 27.5666 23.0443 27.8101 22.8336C28.0536 22.6228 27.9579 22.0613 28.1631 21.8101C28.3683 21.559 28.9201 21.558 29.0797 21.2739C29.2394 20.9899 28.963 20.497 29.0725 20.1865C29.1819 19.8761 29.7009 19.6852 29.7565 19.3588C29.8122 19.0324 29.3844 18.674 29.3844 18.34C29.3844 18.0061 29.8103 17.6392 29.7565 17.3213ZM27.6432 18.974C27.6094 19.1782 27.2847 19.3004 27.2182 19.4905C27.1516 19.6805 27.3212 19.9918 27.2227 20.1677C27.1242 20.3436 26.7776 20.3455 26.6508 20.5017C26.524 20.6578 26.5824 21.0087 26.431 21.1394C26.2796 21.2702 25.9558 21.1507 25.7834 21.2523C25.611 21.3539 25.5527 21.7057 25.3657 21.7753C25.1787 21.8449 24.9169 21.6173 24.7199 21.6521C24.5229 21.6869 24.3551 21.9954 24.1526 21.9954C23.9501 21.9954 23.7786 21.6869 23.5862 21.6521C23.3937 21.6173 23.1247 21.8402 22.9404 21.7753C22.7562 21.7104 22.6932 21.3548 22.5227 21.2523C22.3521 21.1498 22.0256 21.2711 21.8751 21.1404C21.7246 21.0096 21.7839 20.6578 21.6553 20.5017C21.5267 20.3455 21.1828 20.3446 21.0834 20.1677C20.984 19.9909 21.1563 19.6842 21.0879 19.4905C21.0195 19.2967 20.6966 19.1782 20.662 18.974C20.6273 18.7699 20.8918 18.5479 20.8918 18.34C20.8918 18.1321 20.6282 17.9036 20.662 17.7051C20.6957 17.5066 21.0204 17.3787 21.0879 17.1896C21.1554 17.0005 20.9849 16.6882 21.0834 16.5123C21.1819 16.3364 21.5276 16.3336 21.6553 16.1784C21.783 16.0232 21.7237 15.6714 21.8751 15.5397C22.0265 15.408 22.3503 15.5293 22.5227 15.4268C22.695 15.3243 22.7525 14.9744 22.9404 14.9038C23.1283 14.8333 23.3892 15.0628 23.5862 15.027C23.7832 14.9913 23.951 14.6846 24.1526 14.6846C24.3542 14.6846 24.5275 14.9932 24.7199 15.027C24.9124 15.0609 25.1814 14.8389 25.3657 14.9038C25.5499 14.9687 25.6129 15.3252 25.7834 15.4268C25.954 15.5284 26.2805 15.4089 26.431 15.5397C26.5815 15.6704 26.5222 16.0222 26.6508 16.1784C26.7794 16.3345 27.1233 16.3345 27.2227 16.5114C27.3221 16.6882 27.1497 16.9958 27.2182 17.1896C27.2866 17.3834 27.6094 17.501 27.6432 17.7051C27.6769 17.9092 27.4133 18.1321 27.4133 18.34C27.4133 18.5479 27.6779 18.7765 27.6432 18.974V18.974Z" fill="white"/>
<path d="M26.3239 13.0212C26.2705 12.9344 26.1929 12.8662 26.1013 12.8256C26.0121 12.7977 25.9169 12.7977 25.8277 12.8256C25.9223 12.9198 26.0384 12.9881 26.1652 13.024C26.2179 13.0325 26.2715 13.0315 26.3239 13.0212V13.0212ZM26.1652 23.6563C26.0381 23.6922 25.9217 23.7605 25.8268 23.8548C25.916 23.8824 26.0112 23.8824 26.1004 23.8548C26.1919 23.8139 26.2694 23.7458 26.323 23.6591C26.2709 23.6489 26.2176 23.648 26.1652 23.6563V23.6563ZM23.584 23.8548C23.7664 24.0128 23.9534 24.2066 24.1549 24.2066C24.3565 24.2066 24.5271 24.0279 24.7022 23.8736C24.6022 23.7709 24.4786 23.6961 24.3428 23.6563C24.1184 23.6187 23.8348 23.7927 23.584 23.8548ZM21.2453 14.8706C21.4505 14.6194 21.3548 14.0569 21.5983 13.8462C21.8418 13.6355 22.3627 13.8292 22.6381 13.6656C22.8306 13.5508 22.9364 13.2366 23.0869 13.0222C22.7968 12.9761 22.4566 12.7334 22.2094 12.8265C21.9084 12.9394 21.8108 13.5019 21.5381 13.6656C21.2654 13.8292 20.7418 13.6364 20.4983 13.8462C20.2548 14.0559 20.3506 14.6194 20.1453 14.8706C19.9401 15.1217 19.3883 15.1217 19.2278 15.4067C19.0672 15.6917 19.3454 16.1837 19.2351 16.4941C19.1247 16.8045 18.6075 16.9955 18.5519 17.3219C18.4963 17.6483 18.9213 18.0067 18.9213 18.3406C18.9213 18.6746 18.4981 19.0414 18.5519 19.3594C18.6057 19.6773 19.1274 19.8824 19.2351 20.1872C19.3427 20.4919 19.07 20.9924 19.2278 21.2746C19.3856 21.5568 19.9419 21.5568 20.1453 21.8107C20.3487 22.0647 20.2548 22.6244 20.4983 22.8342C20.7418 23.0439 21.2627 22.852 21.5381 23.0157C21.8136 23.1794 21.9084 23.7419 22.2094 23.8548C22.4566 23.9488 22.7968 23.7052 23.0869 23.6591C22.9364 23.4447 22.8306 23.1305 22.6381 23.0157C22.3645 22.852 21.8418 23.0449 21.5983 22.8342C21.3548 22.6235 21.4505 22.0619 21.2453 21.8107C21.0401 21.5596 20.4883 21.5596 20.3278 21.2746C20.1672 20.9895 20.4454 20.4976 20.336 20.1872C20.2265 19.8767 19.7075 19.6858 19.6519 19.3594C19.5963 19.033 20.0213 18.6746 20.0213 18.3406C20.0213 18.0067 19.5981 17.6399 19.6519 17.3219C19.7057 17.004 20.2283 16.7989 20.336 16.4941C20.4436 16.1894 20.17 15.6889 20.3278 15.4067C20.4855 15.1245 21.0419 15.1208 21.2453 14.8706Z" fill="#E5E5E5"/>
<path d="M20.9425 0.839844H15.7007C13.9265 0.839844 12.4883 2.32312 12.4883 4.15284V9.26061C12.4883 11.0903 13.9265 12.5736 15.7007 12.5736H20.9425C22.7167 12.5736 24.155 11.0903 24.155 9.26061V4.15284C24.155 2.32312 22.7167 0.839844 20.9425 0.839844Z" fill="#32314B"/>
<path d="M18.3197 10.7064C20.4616 10.7064 22.1979 8.91567 22.1979 6.70671C22.1979 4.49775 20.4616 2.70703 18.3197 2.70703C16.1778 2.70703 14.4414 4.49775 14.4414 6.70671C14.4414 8.91567 16.1778 10.7064 18.3197 10.7064Z" fill="#FC715A"/>
<path d="M15.0648 6.70676C15.8802 6.24588 16.7874 5.98484 17.7163 5.94388C17.7524 5.94312 17.7877 5.95486 17.8166 5.97722C17.8454 5.99958 17.8662 6.03127 17.8755 6.06723C17.8849 6.10319 17.8823 6.14134 17.8681 6.1756C17.854 6.20985 17.8291 6.23822 17.7975 6.25618C16.9949 6.71522 15.53 7.65494 15.2555 8.53445C15.2573 8.53445 13.9202 7.20436 15.0648 6.70676Z" fill="#F79589"/>
<path d="M18.5518 7.89865C18.8127 8.36898 19.3791 8.99546 20.6068 9.50623L21.8226 8.73583C21.8226 8.73583 19.9865 8.61543 18.7908 7.68512C18.7613 7.66185 18.7249 7.64979 18.6878 7.65096C18.6506 7.65213 18.615 7.66646 18.587 7.69154C18.5589 7.71662 18.5401 7.75091 18.5337 7.78864C18.5273 7.82637 18.5337 7.86522 18.5518 7.89865V7.89865Z" fill="#F79589"/>
<path d="M19.6641 2.7915C19.6641 2.7915 20.111 4.15734 19.8054 5.47238C19.796 5.50925 19.7993 5.54834 19.8146 5.58304C19.8299 5.61775 19.8563 5.64594 19.8895 5.66286C19.9226 5.67978 19.9604 5.68438 19.9964 5.6759C20.0324 5.66742 20.0645 5.64637 20.0873 5.6163C20.4877 5.09894 20.9346 4.28715 20.7613 3.38412L19.6641 2.7915Z" fill="#F79589"/>
<path d="M23.9219 5.68799C23.8662 5.36159 23.3463 5.16499 23.2387 4.86022C23.1311 4.55544 23.4038 4.05501 23.246 3.77281C23.0882 3.49062 22.5318 3.49062 22.3284 3.23758C22.125 2.98454 22.219 2.42391 21.9754 2.21226C21.7319 2.00062 21.212 2.19533 20.9357 2.03072C20.6593 1.8661 20.5653 1.30547 20.2643 1.19259C19.9634 1.07971 19.5447 1.44751 19.2282 1.39013C18.9117 1.33275 18.6417 0.839844 18.3161 0.839844C17.9905 0.839844 17.715 1.33463 17.404 1.39013C17.093 1.44563 16.6625 1.08159 16.3669 1.19259C16.0714 1.30359 15.9757 1.86798 15.702 2.03166C15.4284 2.19533 14.9058 2.0025 14.6631 2.21226C14.4205 2.42203 14.5145 2.98643 14.3093 3.23758C14.104 3.48874 13.5513 3.48874 13.3917 3.77093C13.2321 4.05313 13.5084 4.54792 13.399 4.85833C13.2895 5.16875 12.7705 5.3597 12.7158 5.68611C12.6611 6.01252 13.0852 6.37091 13.0852 6.70485C13.0852 7.03878 12.662 7.40563 12.7158 7.72358C12.7696 8.04152 13.2913 8.24658 13.399 8.55136C13.5066 8.85613 13.233 9.3575 13.3917 9.63876C13.5504 9.92001 14.1049 9.92096 14.3083 10.1749C14.5117 10.4289 14.4187 10.9886 14.6622 11.1993C14.9058 11.41 15.4257 11.2162 15.7011 11.3809C15.9766 11.5455 16.0714 12.1061 16.3724 12.2199C16.6734 12.3337 17.093 11.965 17.4095 12.0214C17.726 12.0779 17.995 12.5717 18.3216 12.5717C18.6481 12.5717 18.9227 12.0769 19.2337 12.0214C19.5447 11.9659 19.9752 12.33 20.2698 12.2199C20.5644 12.1099 20.6684 11.5436 20.9411 11.3809C21.2138 11.2181 21.7383 11.41 21.9809 11.1993C22.2235 10.9886 22.1296 10.4261 22.3339 10.1749C22.5382 9.92378 23.0919 9.92378 23.2515 9.63876C23.4111 9.35374 23.1347 8.86177 23.2442 8.55136C23.3536 8.24094 23.8717 8.05093 23.9273 7.72358C23.983 7.39623 23.5579 7.03878 23.5579 6.70485C23.5579 6.37091 23.9757 6.00594 23.9219 5.68799ZM21.8131 7.34543C21.7784 7.54862 21.4546 7.6709 21.3871 7.86091C21.3196 8.05093 21.4902 8.36322 21.3871 8.53819C21.2841 8.71315 20.943 8.71597 20.8162 8.87212C20.6894 9.02827 20.7478 9.37914 20.5964 9.50989C20.4449 9.64064 20.1202 9.52118 19.9479 9.62371C19.7755 9.72624 19.7153 10.0733 19.5328 10.142C19.3504 10.2107 19.0841 9.98398 18.8871 10.0197C18.6901 10.0555 18.5222 10.3621 18.3207 10.3621C18.1191 10.3621 17.9458 10.0536 17.7533 10.0197C17.5609 9.98586 17.2918 10.2079 17.1076 10.142C16.9233 10.0762 16.8604 9.72153 16.6898 9.61994C16.5193 9.51835 16.1936 9.63782 16.0422 9.50707C15.8908 9.37631 15.951 9.02451 15.8224 8.86836C15.6938 8.71221 15.35 8.71221 15.2505 8.53443C15.1511 8.35664 15.3235 8.05093 15.256 7.85715C15.1885 7.66338 14.8647 7.54485 14.8301 7.34167C14.7954 7.13849 15.0599 6.91461 15.0599 6.70673C15.0599 6.49884 14.7963 6.27026 14.8301 6.07178C14.8638 5.8733 15.1867 5.74632 15.2542 5.55818C15.3217 5.37005 15.1502 5.05681 15.2487 4.88091C15.3472 4.70501 15.6938 4.70313 15.8206 4.54698C15.9474 4.39083 15.889 4.03996 16.0404 3.90827C16.1918 3.77658 16.5156 3.89886 16.688 3.79539C16.8604 3.69192 16.9188 3.34387 17.1057 3.27333C17.2927 3.20278 17.5545 3.4323 17.7515 3.39655C17.9485 3.36081 18.1164 3.05415 18.3188 3.05415C18.5213 3.05415 18.6928 3.36175 18.8853 3.39655C19.0777 3.43136 19.3504 3.20654 19.5328 3.27144C19.7153 3.33635 19.7809 3.69286 19.9506 3.79351C20.1202 3.89416 20.4477 3.77564 20.5991 3.90639C20.7505 4.03714 20.6903 4.38895 20.8189 4.54509C20.9475 4.70124 21.2905 4.70124 21.3899 4.87903C21.4893 5.05681 21.3178 5.36347 21.3899 5.5563C21.4619 5.74914 21.7812 5.8686 21.8158 6.07178C21.8505 6.27496 21.586 6.49884 21.586 6.70673C21.586 6.91461 21.8432 7.14319 21.8131 7.34543Z" fill="white"/>
<path d="M20.4878 1.38907C20.4336 1.30165 20.3551 1.23313 20.2625 1.19247C20.1732 1.16514 20.0782 1.16514 19.9889 1.19247C20.0836 1.28658 20.1996 1.3548 20.3264 1.39095C20.3799 1.39947 20.4345 1.39884 20.4878 1.38907V1.38907ZM20.3282 12.0185C20.2014 12.0547 20.0854 12.1229 19.9907 12.217C20.0799 12.2448 20.1751 12.2448 20.2643 12.217C20.3562 12.176 20.4341 12.1075 20.4878 12.0204C20.4348 12.0124 20.3809 12.0134 20.3282 12.0232V12.0185ZM17.747 12.217C17.9294 12.376 18.1164 12.5688 18.3188 12.5688C18.5213 12.5688 18.691 12.391 18.8661 12.2358C18.7658 12.1336 18.6422 12.0589 18.5067 12.0185C18.2814 11.9828 17.9978 12.1596 17.747 12.2217V12.217ZM15.4092 3.23747C15.6136 2.98631 15.5187 2.4238 15.7622 2.21215C16.0058 2.0005 16.5257 2.19616 16.802 2.03154C16.9945 1.91678 17.0994 1.60354 17.2499 1.38907C16.9598 1.34204 16.6205 1.09935 16.3724 1.19247C16.0714 1.30535 15.9747 1.86787 15.7011 2.03154C15.4275 2.19522 14.9049 2.00238 14.6622 2.21215C14.4196 2.42191 14.5136 2.98631 14.3083 3.23747C14.1031 3.48862 13.5513 3.48862 13.3917 3.77082C13.2321 4.05302 13.5084 4.5478 13.399 4.85822C13.2895 5.16864 12.7705 5.35959 12.7158 5.686C12.6611 6.01241 13.0852 6.37174 13.0852 6.70473C13.0852 7.03772 12.662 7.40552 12.7158 7.72346C12.7696 8.04141 13.2913 8.24647 13.399 8.55124C13.5066 8.85602 13.233 9.35739 13.3917 9.63864C13.5504 9.9199 14.1049 9.92084 14.3083 10.1748C14.5117 10.4288 14.4187 10.9885 14.6622 11.1992C14.9058 11.4099 15.4257 11.2161 15.7011 11.3807C15.9766 11.5454 16.0714 12.106 16.3724 12.2198C16.6205 12.3139 16.9598 12.0693 17.2499 12.0232C17.0994 11.8087 16.9945 11.4955 16.802 11.3807C16.5284 11.2161 16.0048 11.4099 15.7622 11.1992C15.5196 10.9885 15.6136 10.426 15.4092 10.1748C15.2049 9.92366 14.6513 9.92366 14.4917 9.63864C14.3321 9.35362 14.6084 8.86166 14.499 8.55124C14.3895 8.24082 13.8714 8.05081 13.8158 7.72346C13.7602 7.39611 14.1852 7.03866 14.1852 6.70473C14.1852 6.3708 13.762 6.00394 13.8158 5.686C13.8696 5.36806 14.3913 5.16299 14.499 4.85822C14.6066 4.55345 14.3339 4.05302 14.4917 3.77082C14.6495 3.48862 15.2049 3.48862 15.4092 3.23747Z" fill="#E5E5E5"/>
</svg>
