<svg width="35" height="30" viewBox="0 0 35 30" fill="none" xmlns="http://www.w3.org/2000/svg">
<path d="M15.9912 4.82449C15.9914 4.56888 15.9396 4.31674 15.84 4.08809C15.7404 3.85945 15.5956 3.66061 15.4173 3.50737C15.239 3.35412 15.0319 3.25069 14.8127 3.2053C14.5934 3.15991 14.3679 3.1738 14.1541 3.24588C14.0795 2.93102 13.943 2.63995 13.7551 2.395C13.5672 2.15005 13.3329 1.95773 13.0702 1.8328C12.8074 1.70787 12.5232 1.65365 12.2394 1.6743C11.9555 1.69495 11.6795 1.78991 11.4326 1.95191C11.3992 1.65732 11.2969 1.37862 11.1364 1.14544C10.9759 0.912256 10.7634 0.733318 10.5214 0.627643C10.2793 0.521967 10.0169 0.493505 9.76185 0.545284C9.50685 0.597063 9.26884 0.727147 9.07313 0.921705C8.85336 0.561314 8.54291 0.286489 8.1833 0.133985C7.82368 -0.0185197 7.43205 -0.0414345 7.06078 0.0683085C6.68951 0.178051 6.35629 0.415218 6.1057 0.748091C5.85511 1.08096 5.69909 1.49367 5.6585 1.93102C5.45028 1.72671 5.19539 1.5951 4.924 1.55177C4.65261 1.50844 4.37609 1.5552 4.12714 1.68652C3.8782 1.81784 3.66726 2.02823 3.51928 2.29277C3.3713 2.55732 3.29249 2.86496 3.29216 3.17929V3.17929C3.05099 3.07418 2.79344 3.02763 2.53578 3.04259C2.27813 3.05755 2.02599 3.13369 1.79531 3.26619C1.56462 3.39869 1.36042 3.58467 1.19562 3.81236C1.03082 4.04005 0.909002 4.3045 0.837878 4.58898C0.766754 4.87346 0.74787 5.17178 0.782421 5.46506C0.816972 5.75834 0.904206 6.04021 1.0386 6.29282C1.173 6.54544 1.35164 6.76331 1.56322 6.93265C1.77479 7.10199 2.0147 7.21912 2.26777 7.27662C3.42078 8.43218 5.78939 9.22736 8.5211 9.22736C12.0917 9.22736 15.0362 7.86942 15.4483 6.11845C15.6186 5.96434 15.756 5.76769 15.8501 5.54346C15.9442 5.31923 15.9924 5.07334 15.9912 4.82449Z" fill="white"/>
<path d="M7.53184 0.00244186C7.99855 0.00209365 8.44862 0.201349 8.79412 0.561288C8.48108 0.709368 8.2086 0.951449 8.00531 1.26209C7.80202 1.57273 7.67542 1.94045 7.63883 2.32661C7.43074 2.12214 7.1759 1.9904 6.90453 1.94699C6.63316 1.90359 6.35663 1.95034 6.10771 2.08171C5.8588 2.21308 5.64793 2.42356 5.5001 2.6882C5.35227 2.95285 5.27367 3.26056 5.27363 3.57488C5.03206 3.46852 4.77384 3.421 4.5154 3.43536C4.25695 3.44971 4.00394 3.52562 3.77246 3.65826C3.54098 3.7909 3.33611 3.97735 3.17086 4.20577C3.00562 4.43419 2.88364 4.69956 2.81267 4.985C2.7417 5.27045 2.7233 5.56971 2.75865 5.86376C2.79399 6.1578 2.8823 6.44019 3.01796 6.69295C3.15362 6.94571 3.33366 7.16331 3.54662 7.3319C3.75958 7.50049 4.0008 7.61639 4.25493 7.67221C4.8616 8.28329 5.80973 8.79513 6.97298 9.13984C4.91282 8.90481 3.19867 8.20886 2.27558 7.27658C2.02284 7.2193 1.7832 7.10252 1.57179 6.93361C1.36039 6.7647 1.18182 6.54734 1.04735 6.29525C0.912891 6.04315 0.825462 5.76181 0.790588 5.46899C0.755714 5.17617 0.774153 4.87824 0.844741 4.594C0.915329 4.30977 1.03653 4.04542 1.20069 3.81765C1.36485 3.58988 1.56841 3.40364 1.79849 3.27069C2.02858 3.13774 2.2802 3.06097 2.53746 3.04523C2.79472 3.02949 3.05203 3.07512 3.29314 3.17925C3.29319 2.86493 3.37178 2.55721 3.51961 2.29257C3.66744 2.02793 3.87831 1.81745 4.12723 1.68608C4.37614 1.55471 4.65267 1.50796 4.92404 1.55136C5.19541 1.59477 5.45025 1.72651 5.65835 1.93098C5.7088 1.40128 5.92788 0.911576 6.2736 0.555703C6.61931 0.19983 7.06735 0.00282593 7.53184 0.00244186V0.00244186Z" fill="#E2E2E2"/>
<path d="M16.986 6.34472V19.663C16.986 20.4007 16.4225 20.9975 15.7339 20.9975C13.3893 21.6762 10.9813 22.0247 8.56319 22.0355C7.92427 22.0355 7.28574 22.0124 6.64758 21.9663C4.83072 21.8314 3.02833 21.5071 1.2627 20.9975C1.01117 21.0002 0.764237 20.92 0.551318 20.7663V20.7663C0.386438 20.6525 0.249423 20.4925 0.153081 20.3014C0.0567385 20.1102 0.0042162 19.8942 0.000423713 19.6735C-0.000141238 19.6674 -0.000141238 19.6613 0.000423713 19.6552V6.33688C0.000423713 5.59915 0.569529 5.00244 1.25246 5.00244C2.4472 5.32758 3.6572 5.5739 4.87652 5.74017V5.74017C5.31056 5.79936 5.74384 5.84767 6.17636 5.8851C8.00602 6.04204 9.84421 6.01276 11.6694 5.79762C12.0867 5.748 12.5041 5.68881 12.9214 5.62004C13.8585 5.46597 14.7953 5.26271 15.7316 5.01028C16.4225 5.01028 16.986 5.60699 16.986 6.34472Z" fill="#F58D89"/>
<path d="M16.9842 19.2932V19.6601C16.9842 20.3978 16.4208 20.9945 15.7322 20.9945C10.9835 22.3785 6.00853 22.3785 1.25985 20.9945C0.566674 20.9945 0.0078125 20.3978 0.0078125 19.6601V6.34177C0.0078125 5.60404 0.576918 5.00732 1.25985 5.00732C1.54667 5.08393 1.8335 5.15661 2.12033 5.22538V17.7276C2.12033 18.4653 2.68261 19.062 3.37237 19.062C7.83098 20.3634 12.494 20.4426 16.9842 19.2932V19.2932Z" fill="#DD7A7A"/>
<path d="M4.87724 5.73975C3.99397 6.96066 3.01729 8.0885 1.95886 9.1098C1.27594 9.77049 0.612358 10.3476 0 10.8399V12.361C0.918211 11.6634 1.80065 10.9057 2.64293 10.0917C3.94529 8.83576 5.12804 7.42512 6.17138 5.88338C5.74038 5.84943 5.309 5.80155 4.87724 5.73975Z" fill="#FFE0DC"/>
<path d="M12.9187 5.61963C12.2854 7.44172 11.4634 9.16983 10.4704 10.7668C9.10041 12.958 7.49414 14.9414 5.68992 16.6699C4.092 18.2161 2.3715 19.5874 0.550894 20.7659V20.7659C0.386015 20.652 0.248999 20.4921 0.152657 20.3009C0.0563148 20.1098 0.00379248 19.8938 0 19.673C0.250407 19.5124 0.541789 19.3179 0.865041 19.0933C2.31886 18.0828 3.7018 16.9438 5.0013 15.6867C7.2561 13.4983 10.0151 10.1622 11.6667 5.79721C12.0848 5.74759 12.5021 5.6884 12.9187 5.61963Z" fill="#FFE0DC"/>
<path d="M16.9891 9.35791V12.0607C16.6856 12.6509 16.3551 13.2341 15.9977 13.8104C14.6276 16.0008 13.0214 17.9834 11.2172 19.7109C10.2839 20.6145 9.38015 21.3888 8.56405 22.0325C7.92513 22.0325 7.28659 22.0094 6.64844 21.9633C8.01086 20.9966 9.30929 19.9161 10.5332 18.7303C12.6923 16.6307 15.3205 13.4722 16.9891 9.35791Z" fill="#FFE0DC"/>
<path d="M12.0381 3.67021C12.1076 3.56309 12.1558 3.43978 12.1794 3.30897C12.2029 3.17815 12.2011 3.04302 12.1742 2.91307C12.1473 2.78312 12.0959 2.66151 12.0236 2.55681C11.9513 2.45211 11.8599 2.36685 11.7558 2.30705C11.7604 2.27467 11.7627 2.24192 11.7626 2.20912C11.7624 2.07414 11.7276 1.94222 11.6624 1.82983C11.5973 1.71744 11.5047 1.62957 11.3963 1.57719C11.2878 1.52481 11.1683 1.51025 11.0527 1.53533C10.9371 1.5604 10.8305 1.624 10.7462 1.71817C10.5769 1.45294 10.3228 1.27555 10.0397 1.22488C9.75656 1.17422 9.46747 1.25441 9.2358 1.44789C9.1739 1.16872 9.02949 0.922826 8.82721 0.752162C8.62492 0.581497 8.37728 0.496629 8.12653 0.512036C7.87579 0.527443 7.63747 0.642169 7.45223 0.836646C7.26699 1.03112 7.1463 1.2933 7.11076 1.57846C6.87515 1.49337 6.6213 1.50287 6.39103 1.60541C6.16076 1.70794 5.9678 1.89738 5.84393 2.14253C5.7354 2.08423 5.61409 2.06478 5.49579 2.08673C5.37749 2.10867 5.2677 2.17099 5.18072 2.26555C5.09374 2.36011 5.03361 2.48254 5.00817 2.61687C4.98272 2.75121 4.99315 2.89122 5.03807 3.01866C4.94097 3.12297 4.86771 3.25307 4.82475 3.3975C4.78178 3.54193 4.77042 3.69626 4.79167 3.84691C4.81292 3.99755 4.86613 4.1399 4.94661 4.26141C5.02709 4.38292 5.13237 4.47988 5.25319 4.54374C5.23057 4.62244 5.22017 4.70508 5.22246 4.78791C5.22239 4.92622 5.25879 5.06133 5.32688 5.17548C5.39498 5.28963 5.49158 5.37748 5.604 5.42748C5.71642 5.47748 5.83939 5.4873 5.95677 5.45565C6.07414 5.424 6.18042 5.35235 6.26165 5.25013C6.44759 5.40975 6.67364 5.49589 6.90588 5.4956C7.10016 5.49565 7.2909 5.43596 7.45825 5.32275C7.62559 5.20954 7.76344 5.04694 7.85742 4.85189C7.99201 4.91766 8.13683 4.95142 8.28311 4.95112C8.33035 4.95115 8.37752 4.94722 8.42425 4.93937C8.45637 5.07051 8.52181 5.1877 8.61223 5.27598C8.70265 5.36427 8.81396 5.41965 8.93193 5.43506C9.04991 5.45047 9.16921 5.42521 9.27462 5.36251C9.38003 5.2998 9.46677 5.20249 9.52376 5.083C9.69258 5.20185 9.88682 5.26468 10.0849 5.26449C10.3656 5.26459 10.6354 5.13959 10.8373 4.91587C10.984 5.08492 11.1817 5.18292 11.3895 5.18965C11.5974 5.19637 11.7996 5.11131 11.9543 4.95201C12.1091 4.7927 12.2047 4.57132 12.2213 4.33354C12.238 4.09576 12.1744 3.85972 12.0438 3.67413L12.0381 3.67021Z" fill="#F55B4B"/>
<path d="M12.2082 4.22941V4.24769C12.2092 4.43179 12.1626 4.6121 12.0744 4.76589C11.9862 4.91967 11.8602 5.04004 11.7124 5.11182C11.5646 5.1836 11.4016 5.20358 11.244 5.16924C11.0863 5.13489 10.941 5.04776 10.8264 4.91883C10.6543 5.10968 10.4319 5.22963 10.194 5.25988C9.95609 5.29012 9.71616 5.22895 9.51181 5.08596C9.45512 5.2056 9.3686 5.30312 9.26333 5.36603C9.15805 5.42894 9.0388 5.45439 8.92085 5.4391C8.80289 5.42382 8.69159 5.3685 8.6012 5.28024C8.51081 5.19197 8.44543 5.07477 8.41344 4.94364C8.36662 4.95041 8.31948 4.9539 8.2723 4.95408C8.12565 4.95423 7.98049 4.92048 7.84547 4.85485C7.77093 5.01005 7.66834 5.14519 7.54455 5.25119C7.42077 5.35718 7.27866 5.4316 7.12775 5.46943C6.97685 5.50727 6.82064 5.50766 6.66959 5.47057C6.51855 5.43348 6.37616 5.35978 6.25197 5.2544C6.17023 5.35498 6.06401 5.42503 5.94711 5.45546C5.83021 5.48588 5.70803 5.47527 5.59646 5.425C5.48488 5.37473 5.38906 5.28713 5.32145 5.17358C5.25384 5.06002 5.21757 4.92577 5.21734 4.78826C5.21749 4.70754 5.23021 4.62751 5.2549 4.55192C5.1338 4.48861 5.02817 4.39201 4.94739 4.27068C4.86661 4.14935 4.81315 4.00703 4.79177 3.85634C4.77038 3.70565 4.78172 3.55124 4.82478 3.40678C4.86784 3.26232 4.9413 3.13227 5.03864 3.02815C5.00444 2.93078 4.99024 2.82568 4.99713 2.721C5.00401 2.61632 5.0318 2.51486 5.07835 2.42447C5.1249 2.33409 5.18895 2.2572 5.26556 2.19977C5.34216 2.14233 5.42926 2.10589 5.5201 2.09326C5.5201 2.11285 5.53035 2.13113 5.53718 2.14941C5.44006 2.25358 5.36678 2.38357 5.3238 2.52791C5.28082 2.67225 5.26946 2.8265 5.29072 2.97706C5.31197 3.12763 5.3652 3.26988 5.44569 3.39128C5.52619 3.51268 5.63148 3.60949 5.7523 3.67318C5.72852 3.749 5.7162 3.82893 5.71587 3.90951C5.71557 4.04794 5.7518 4.18323 5.81981 4.29758C5.88782 4.41194 5.98441 4.49999 6.09688 4.55016C6.20935 4.60032 6.33242 4.61025 6.4499 4.57864C6.56739 4.54702 6.67377 4.47535 6.75506 4.37304C6.87931 4.47821 7.0217 4.55174 7.17271 4.58871C7.32372 4.62568 7.47987 4.62524 7.63072 4.58741C7.78157 4.54959 7.92364 4.47526 8.04743 4.36938C8.17123 4.26351 8.27389 4.12854 8.34856 3.97349C8.48354 4.03926 8.62873 4.07302 8.77539 4.07273C8.8222 4.07258 8.86896 4.06909 8.91539 4.06228C8.94764 4.19334 9.0132 4.3104 9.10369 4.39855C9.19418 4.48669 9.3055 4.54192 9.42346 4.55719C9.54143 4.57246 9.66068 4.54708 9.76602 4.48428C9.87135 4.42148 9.958 4.32412 10.0149 4.2046C10.1837 4.32346 10.378 4.38629 10.576 4.3861C10.8567 4.38619 11.1265 4.26119 11.3284 4.03747C11.481 4.20651 11.6853 4.30026 11.8975 4.29861C12.004 4.29886 12.1095 4.27536 12.2082 4.22941V4.22941Z" fill="#DB4F45"/>
<path d="M8.5136 2.00686C8.74115 2.00686 8.92563 1.79524 8.92563 1.53419C8.92563 1.27314 8.74115 1.06152 8.5136 1.06152C8.28604 1.06152 8.10156 1.27314 8.10156 1.53419C8.10156 1.79524 8.28604 2.00686 8.5136 2.00686Z" fill="#F78077"/>
<path d="M9.98234 2.95364C10.2099 2.95364 10.3944 2.74202 10.3944 2.48097C10.3944 2.21992 10.2099 2.0083 9.98234 2.0083C9.75479 2.0083 9.57031 2.21992 9.57031 2.48097C9.57031 2.74202 9.75479 2.95364 9.98234 2.95364Z" fill="#F78077"/>
<path d="M34.0068 4.82449C34.0068 4.56882 33.9549 4.31667 33.8551 4.08804C33.7554 3.85942 33.6105 3.66061 33.4321 3.50739C33.2537 3.35417 33.0466 3.25076 32.8273 3.20537C32.608 3.15998 32.3824 3.17385 32.1686 3.24588C32.0941 2.93106 31.9578 2.63999 31.77 2.39504C31.5822 2.15008 31.348 1.95775 31.0853 1.83281C30.8227 1.70786 30.5385 1.65363 30.2547 1.67428C29.971 1.69493 29.6951 1.7899 29.4483 1.95191C29.415 1.65708 29.3126 1.37811 29.1521 1.14472C28.9916 0.911322 28.7789 0.732239 28.5367 0.626531C28.2944 0.520822 28.0318 0.492446 27.7766 0.544426C27.5214 0.596405 27.2833 0.726791 27.0876 0.921705C26.8678 0.561314 26.5574 0.286489 26.1978 0.133985C25.8382 -0.0185197 25.4465 -0.0414344 25.0753 0.0683085C24.704 0.178051 24.3708 0.415218 24.1202 0.748091C23.8696 1.08096 23.7136 1.49367 23.673 1.93102C23.4649 1.72655 23.2101 1.59481 22.9387 1.5514C22.6673 1.508 22.3908 1.55475 22.1419 1.68612C21.8929 1.81749 21.6821 2.02797 21.5343 2.29261C21.3864 2.55725 21.3078 2.86497 21.3078 3.17929V3.17929C21.0666 3.07418 20.8091 3.02763 20.5514 3.04259C20.2938 3.05755 20.0416 3.13369 19.8109 3.26619C19.5802 3.39869 19.376 3.58466 19.2112 3.81236C19.0464 4.04005 18.9246 4.3045 18.8535 4.58898C18.7824 4.87346 18.7635 5.17178 18.798 5.46506C18.8326 5.75834 18.9198 6.04021 19.0542 6.29282C19.1886 6.54544 19.3673 6.76331 19.5788 6.93265C19.7904 7.10199 20.0303 7.21912 20.2834 7.27662C21.4296 8.43218 23.7925 9.22605 26.5231 9.22605C30.0948 9.22605 33.0382 7.86811 33.4514 6.11715C33.6236 5.96443 33.7632 5.76858 33.8595 5.54456C33.9558 5.32054 34.0061 5.07425 34.0068 4.82449V4.82449Z" fill="white"/>
<path d="M25.5404 0.00244413C26.0072 0.00159196 26.4575 0.200915 26.8027 0.56129C26.4898 0.709439 26.2175 0.951569 26.0144 1.26222C25.8113 1.57287 25.6849 1.94055 25.6486 2.32662C25.4403 2.1223 25.1855 1.9907 24.9141 1.94737C24.6427 1.90404 24.3662 1.9508 24.1172 2.08212C23.8683 2.21344 23.6573 2.42382 23.5094 2.68837C23.3614 2.95291 23.2826 3.26055 23.2822 3.57488C23.0407 3.46852 22.7824 3.421 22.524 3.43536C22.2656 3.44971 22.0125 3.52562 21.7811 3.65826C21.5496 3.7909 21.3447 3.97736 21.1795 4.20577C21.0142 4.43419 20.8922 4.69956 20.8213 4.98501C20.7503 5.27045 20.7319 5.56971 20.7672 5.86376C20.8026 6.1578 20.8909 6.44019 21.0266 6.69295C21.1622 6.94571 21.3423 7.16331 21.5552 7.3319C21.7682 7.50049 22.0094 7.61639 22.2635 7.67221C22.8702 8.28329 23.8195 8.79513 24.9827 9.13984C22.9226 8.90481 21.2073 8.20886 20.2842 7.27658C20.0328 7.21718 19.7949 7.09886 19.5853 6.92903C19.3756 6.7592 19.1989 6.54152 19.066 6.28965C18.9331 6.03778 18.8471 5.75713 18.8132 5.46531C18.7793 5.1735 18.7983 4.87679 18.8691 4.59381C18.9398 4.31082 19.0608 4.04765 19.2243 3.82079C19.3879 3.59394 19.5906 3.40829 19.8196 3.27548C20.0486 3.14268 20.2991 3.06558 20.5553 3.04902C20.8115 3.03246 21.068 3.07679 21.3086 3.17925C21.3086 2.86493 21.3872 2.55722 21.535 2.29257C21.6829 2.02793 21.8937 1.81745 22.1427 1.68608C22.3916 1.55471 22.6681 1.50796 22.9395 1.55137C23.2108 1.59477 23.4657 1.72652 23.6738 1.93098C23.7239 1.40251 23.9419 0.913726 24.2862 0.557981C24.6306 0.202236 25.0771 0.00446603 25.5404 0.00244413V0.00244413Z" fill="#E2E2E2"/>
<path d="M35.0033 6.34421V19.6625C35.0033 20.4002 34.441 20.9969 33.7512 20.9969C31.4066 21.6757 28.9986 22.0242 26.5805 22.035C25.9424 22.035 25.3038 22.0119 24.6649 21.9658C22.8477 21.8308 21.0449 21.5066 19.2789 20.9969C19.0307 20.9981 18.7873 20.9189 18.5766 20.7684V20.7684C18.4119 20.6554 18.2749 20.4963 18.1782 20.3062C18.0815 20.116 18.0282 19.9009 18.0234 19.6808V6.34421C18.0234 5.60648 18.5857 5.00977 19.2755 5.00977C20.4685 5.33192 21.6766 5.57561 22.8938 5.73966V5.73966C23.3279 5.79885 23.7612 5.84716 24.1937 5.88459C26.023 6.04151 27.8608 6.01224 29.6856 5.79711C30.1029 5.74749 30.5202 5.6883 30.9376 5.61953C31.874 5.46546 32.8111 5.2622 33.749 5.00977C34.441 5.00977 35.0033 5.60648 35.0033 6.34421Z" fill="#F58D89"/>
<path d="M35.001 19.2932V19.6601C35.001 20.3978 34.4387 20.9945 33.749 20.9945C28.9999 22.3785 24.0245 22.3785 19.2755 20.9945C18.5823 20.9945 18.0234 20.3978 18.0234 19.6601V6.34177C18.0234 5.60404 18.5857 5.00732 19.2755 5.00732C19.5623 5.08393 19.8491 5.15661 20.136 5.22538V17.7276C20.136 18.4653 20.7051 19.062 21.388 19.062C25.8469 20.3638 30.5104 20.443 35.001 19.2932V19.2932Z" fill="#DD7A7A"/>
<path d="M22.8894 5.73975C22.0069 6.96054 21.031 8.08839 19.9734 9.1098C19.2904 9.77049 18.628 10.3476 18.0156 10.8399V12.361C18.9333 11.663 19.8153 10.9054 20.6574 10.0917C21.9595 8.8354 23.1422 7.42479 24.1859 5.88338C23.7579 5.84943 23.3258 5.80155 22.8894 5.73975Z" fill="#FFE0DC"/>
<path d="M30.9298 5.61963C30.2974 7.4422 29.4753 9.17044 28.4815 10.7668C27.1118 12.9583 25.5055 14.9418 23.701 16.6699C22.1054 18.216 20.3872 19.5873 18.5688 20.7659V20.7659C18.4041 20.6528 18.2671 20.4938 18.1704 20.3036C18.0736 20.1135 18.0204 19.8984 18.0156 19.6783C18.266 19.5177 18.5574 19.3231 18.8818 19.0985C20.3354 18.0857 21.7183 16.945 23.0181 15.6867C25.2729 13.4983 28.0319 10.1622 29.6823 5.79721C30.0966 5.74759 30.5124 5.6884 30.9298 5.61963Z" fill="#FFE0DC"/>
<path d="M34.9958 9.35791V12.0607C34.6922 12.6509 34.3622 13.2341 34.0055 13.8104C32.6351 16.0005 31.0289 17.983 29.225 19.7109C28.2917 20.6145 27.388 21.3888 26.5719 22.0325C25.9337 22.0325 25.2952 22.0094 24.6562 21.9633C26.0185 20.9963 27.3169 19.9158 28.541 18.7303C30.7002 16.6307 33.3283 13.4722 34.9958 9.35791Z" fill="#FFE0DC"/>
<path d="M30.0475 3.67021C30.1171 3.56309 30.1653 3.43978 30.1888 3.30897C30.2123 3.17815 30.2106 3.04302 30.1837 2.91307C30.1568 2.78312 30.1054 2.66151 30.0331 2.55681C29.9608 2.45211 29.8694 2.36685 29.7653 2.30705C29.7693 2.2746 29.7715 2.24189 29.7721 2.20912C29.7719 2.07414 29.7371 1.94222 29.6719 1.82983C29.6067 1.71744 29.5142 1.62957 29.4057 1.57719C29.2973 1.52481 29.1778 1.51025 29.0622 1.53533C28.9466 1.5604 28.8399 1.624 28.7557 1.71817C28.5864 1.45294 28.3323 1.27555 28.0492 1.22488C27.766 1.17422 27.4769 1.25441 27.2452 1.44789C27.1834 1.16872 27.0389 0.922826 26.8367 0.752162C26.6344 0.581497 26.3867 0.496629 26.136 0.512036C25.8852 0.527443 25.6469 0.642169 25.4617 0.836646C25.2764 1.03112 25.1558 1.2933 25.1202 1.57846C24.8844 1.49353 24.6305 1.5031 24.4001 1.6056C24.1696 1.70811 23.9765 1.89745 23.8522 2.14253C23.7741 2.10105 23.6891 2.07966 23.603 2.07985C23.5244 2.07968 23.4466 2.09729 23.3739 2.13166C23.3013 2.16603 23.2353 2.2165 23.1797 2.28017C23.1241 2.34384 23.08 2.41947 23.0499 2.50272C23.0198 2.58598 23.0043 2.67522 23.0043 2.76535C23.004 2.8521 23.0183 2.9381 23.0464 3.01866C22.9491 3.12291 22.8756 3.25307 22.8326 3.39762C22.7895 3.54217 22.7782 3.69666 22.7996 3.84744C22.821 3.99821 22.8744 4.14061 22.9552 4.26206C23.0359 4.38351 23.1415 4.48025 23.2626 4.54374C23.2383 4.6194 23.226 4.69943 23.2262 4.78007C23.2264 4.9181 23.2629 5.05286 23.3309 5.16671C23.399 5.28055 23.4954 5.36818 23.6076 5.41813C23.7197 5.46807 23.8424 5.47801 23.9596 5.44664C24.0768 5.41527 24.183 5.34404 24.2643 5.2423C24.388 5.34799 24.53 5.42215 24.6808 5.45981C24.8315 5.49747 24.9875 5.49777 25.1384 5.46069C25.2893 5.42361 25.4315 5.34999 25.5555 5.24478C25.6796 5.13956 25.7826 5.00516 25.8578 4.85058C25.9928 4.91635 26.1379 4.95011 26.2846 4.94982C26.3315 4.9499 26.3783 4.94597 26.4246 4.93806C26.4567 5.0692 26.5222 5.18639 26.6126 5.27468C26.703 5.36296 26.8143 5.41834 26.9323 5.43376C27.0503 5.44917 27.1696 5.42391 27.275 5.3612C27.3804 5.2985 27.4671 5.20119 27.5241 5.08169C27.7281 5.22595 27.9681 5.28822 28.2064 5.25867C28.4446 5.22911 28.6675 5.10943 28.8399 4.91848C28.9542 5.04709 29.099 5.13411 29.2563 5.16863C29.4135 5.20314 29.5761 5.1836 29.7237 5.11247C29.8714 5.04134 29.9974 4.92178 30.0859 4.76879C30.1745 4.61581 30.2217 4.43622 30.2217 4.25256C30.2235 4.04129 30.162 3.8357 30.0475 3.67021V3.67021Z" fill="#F55B4B"/>
<path d="M30.2207 4.22912V4.2474C30.2217 4.4315 30.1751 4.61181 30.0869 4.76559C29.9986 4.91937 29.8727 5.03975 29.7249 5.11153C29.5771 5.18331 29.4141 5.20328 29.2564 5.16894C29.0988 5.13459 28.9535 5.04746 28.8389 4.91853C28.6664 5.10846 28.4439 5.22728 28.2061 5.25635C27.9684 5.28542 27.7289 5.22308 27.5254 5.07914C27.4685 5.19865 27.3819 5.29602 27.2766 5.35881C27.1712 5.42161 27.052 5.44699 26.934 5.43172C26.816 5.41645 26.7047 5.36122 26.6142 5.27308C26.5237 5.18494 26.4582 5.06787 26.4259 4.93681C26.3795 4.94363 26.3327 4.94712 26.2859 4.94726C26.1393 4.94755 25.9941 4.9138 25.8591 4.84803C25.7846 5.00323 25.682 5.13836 25.5582 5.24436C25.4344 5.35036 25.2923 5.42477 25.1414 5.46261C24.9905 5.50044 24.8343 5.50083 24.6832 5.46375C24.5322 5.42666 24.3898 5.35295 24.2656 5.24757C24.1841 5.34967 24.0777 5.42114 23.9602 5.45264C23.8427 5.48413 23.7197 5.47417 23.6072 5.42406C23.4947 5.37395 23.3981 5.28603 23.3299 5.17182C23.2618 5.05762 23.2253 4.92245 23.2253 4.78404C23.2254 4.70333 23.2381 4.62329 23.2628 4.54771C23.1416 4.48451 23.0359 4.38792 22.955 4.26653C22.8742 4.14515 22.8207 4.00272 22.7995 3.85193C22.7782 3.70114 22.7897 3.54665 22.833 3.4022C22.8763 3.25774 22.9501 3.12781 23.0477 3.02394C23.018 2.94115 23.0033 2.85231 23.0045 2.7628C23.0045 2.59548 23.0578 2.43395 23.1545 2.30865C23.2512 2.18334 23.3844 2.10292 23.5292 2.08252C23.5337 2.10169 23.5394 2.12045 23.5462 2.13867C23.4491 2.24284 23.3759 2.37283 23.3329 2.51717C23.2899 2.66151 23.2785 2.81576 23.2998 2.96632C23.321 3.11689 23.3743 3.25914 23.4548 3.38054C23.5353 3.50193 23.6406 3.59875 23.7614 3.66244C23.7376 3.73826 23.7253 3.81819 23.7249 3.89877C23.7246 4.0372 23.7609 4.17249 23.8289 4.28684C23.8969 4.40119 23.9935 4.48925 24.106 4.53941C24.2184 4.58958 24.3415 4.59951 24.459 4.56789C24.5765 4.53628 24.6828 4.46461 24.7641 4.3623C24.8883 4.46768 25.0307 4.54138 25.1818 4.57847C25.3328 4.61556 25.489 4.61517 25.6399 4.57733C25.7908 4.5395 25.9329 4.46508 26.0567 4.35909C26.1805 4.25309 26.2831 4.11796 26.3576 3.96275C26.4926 4.02852 26.6378 4.06228 26.7845 4.06198C26.8313 4.06184 26.878 4.05835 26.9245 4.05154C26.9567 4.18259 27.0223 4.29966 27.1128 4.38781C27.2033 4.47595 27.3146 4.53118 27.4325 4.54645C27.5505 4.56172 27.6698 4.53633 27.7751 4.47354C27.8804 4.41074 27.9671 4.31338 28.024 4.19386C28.2283 4.33685 28.4683 4.39802 28.7062 4.36778C28.9441 4.33753 29.1665 4.21758 29.3386 4.02673C29.453 4.15452 29.5974 4.24115 29.7541 4.27595C29.9109 4.31075 30.0731 4.2922 30.2207 4.22259V4.22912Z" fill="#DB4F45"/>
<path d="M26.5292 2.00686C26.7568 2.00686 26.9413 1.79524 26.9413 1.53419C26.9413 1.27314 26.7568 1.06152 26.5292 1.06152C26.3017 1.06152 26.1172 1.27314 26.1172 1.53419C26.1172 1.79524 26.3017 2.00686 26.5292 2.00686Z" fill="#F78077"/>
<path d="M27.998 2.95364C28.2255 2.95364 28.41 2.74202 28.41 2.48097C28.41 2.21992 28.2255 2.0083 27.998 2.0083C27.7704 2.0083 27.5859 2.21992 27.5859 2.48097C27.5859 2.74202 27.7704 2.95364 27.998 2.95364Z" fill="#F78077"/>
<path d="M25.431 12.7893C25.4313 12.5334 25.3795 12.281 25.2797 12.0521C25.18 11.8232 25.035 11.6242 24.8564 11.4709C24.6778 11.3176 24.4704 11.2142 24.2508 11.169C24.0313 11.1239 23.8055 11.1382 23.5916 11.2107C23.517 10.8959 23.3805 10.6048 23.1926 10.3598C23.0047 10.1149 22.7704 9.92258 22.5077 9.79765C22.2449 9.67272 21.9607 9.6185 21.6769 9.63914C21.393 9.65979 21.117 9.75476 20.8701 9.91676C20.8367 9.62216 20.7344 9.34346 20.5739 9.11028C20.4134 8.8771 20.2009 8.69816 19.9589 8.59249C19.7168 8.48681 19.4544 8.45835 19.1994 8.51013C18.9443 8.56191 18.7063 8.69199 18.5106 8.88655C18.2909 8.52616 17.9804 8.25133 17.6208 8.09883C17.2612 7.94632 16.8696 7.92341 16.4983 8.03315C16.127 8.1429 15.7938 8.38006 15.5432 8.71293C15.2926 9.04581 15.1366 9.45852 15.096 9.89587C14.8878 9.69155 14.6329 9.55995 14.3615 9.51662C14.0901 9.47329 13.8136 9.52005 13.5646 9.65137C13.3157 9.78269 13.1048 9.99307 12.9568 10.2576C12.8088 10.5222 12.73 10.8298 12.7297 11.1441C12.4885 11.039 12.2309 10.9925 11.9733 11.0074C11.7156 11.0224 11.4635 11.0985 11.2328 11.231C11.0021 11.3635 10.7979 11.5495 10.6331 11.7772C10.4683 12.0049 10.3465 12.2693 10.2754 12.5538C10.2043 12.8383 10.1854 13.1366 10.2199 13.4299C10.2545 13.7232 10.3417 14.0051 10.4761 14.2577C10.6105 14.5103 10.7891 14.7282 11.0007 14.8975C11.2123 15.0668 11.4522 15.184 11.7053 15.2415C12.8514 16.397 15.2155 17.1909 17.9461 17.1909C21.5166 17.1909 24.4612 15.833 24.8732 14.082C25.0461 13.9297 25.1863 13.7341 25.283 13.51C25.3797 13.2859 25.4303 13.0394 25.431 12.7893V12.7893Z" fill="white"/>
<path d="M16.9693 7.96729C17.4361 7.96694 17.8861 8.16619 18.2316 8.52613C17.9186 8.67421 17.6461 8.91629 17.4428 9.22693C17.2395 9.53757 17.1129 9.9053 17.0763 10.2915C16.8682 10.087 16.6134 9.95524 16.342 9.91184C16.0707 9.86843 15.7941 9.91519 15.5452 10.0466C15.2963 10.1779 15.0854 10.3884 14.9376 10.653C14.7898 10.9177 14.7112 11.2254 14.7111 11.5397C14.4696 11.4334 14.2113 11.3858 13.9529 11.4002C13.6945 11.4146 13.4414 11.4905 13.21 11.6231C12.9785 11.7557 12.7736 11.9422 12.6084 12.1706C12.4431 12.399 12.3211 12.6644 12.2502 12.9498C12.1792 13.2353 12.1608 13.5346 12.1961 13.8286C12.2315 14.1226 12.3198 14.405 12.4555 14.6578C12.5911 14.9106 12.7712 15.1282 12.9841 15.2967C13.1971 15.4653 13.4383 15.5812 13.6924 15.6371C14.2991 16.2481 15.2472 16.76 16.4105 17.1047C14.3503 16.8697 12.6362 16.1737 11.7131 15.2414C11.4603 15.1841 11.2207 15.0674 11.0093 14.8985C10.7979 14.7295 10.6193 14.5122 10.4849 14.2601C10.3504 14.008 10.263 13.7267 10.2281 13.4338C10.1932 13.141 10.2117 12.8431 10.2822 12.5588C10.3528 12.2746 10.474 12.0103 10.6382 11.7825C10.8024 11.5547 11.0059 11.3685 11.236 11.2355C11.4661 11.1026 11.7177 11.0258 11.975 11.0101C12.2322 10.9943 12.4895 11.04 12.7306 11.1441C12.731 10.8298 12.8098 10.5221 12.9578 10.2576C13.1057 9.99303 13.3167 9.78265 13.5656 9.65133C13.8146 9.52001 14.0911 9.47325 14.3625 9.51658C14.6339 9.55991 14.8888 9.69151 15.097 9.89583C15.1469 9.36613 15.3657 8.87627 15.7113 8.52032C16.0569 8.16436 16.5049 7.96741 16.9693 7.96729V7.96729Z" fill="#E2E2E2"/>
<path d="M26.4311 14.3091V27.6273C26.4311 28.3651 25.8677 28.9618 25.1791 28.9618C22.8344 29.6405 20.4265 29.9891 18.0083 29.9998C17.3694 29.9998 16.7309 29.9768 16.0927 29.9306C14.2759 29.7957 12.4735 29.4714 10.7079 28.9618C10.4597 28.9632 10.2162 28.884 10.0056 28.7333C9.84113 28.62 9.7043 28.4609 9.60779 28.2708C9.51128 28.0806 9.45822 27.8656 9.45355 27.6456C9.45298 27.6396 9.45298 27.6334 9.45355 27.6273V14.3091C9.45355 13.5713 10.017 12.9746 10.7056 12.9746C11.8986 13.2969 13.1067 13.5406 14.324 13.7045V13.7045C14.758 13.7637 15.1913 13.812 15.6238 13.8494C17.4535 14.0064 19.2916 13.9771 21.1168 13.762C21.5349 13.7123 21.9522 13.6531 22.3688 13.5844C23.306 13.4303 24.2427 13.227 25.1791 12.9746C25.8711 12.9746 26.4311 13.5713 26.4311 14.3091Z" fill="#F58D89"/>
<path d="M26.4274 27.258V27.6249C26.4274 28.3626 25.864 28.9593 25.1697 28.9593C20.421 30.3434 15.446 30.3434 10.6973 28.9593C10.0042 28.9593 9.44531 28.3626 9.44531 27.6249V14.3066C9.44531 13.5689 10.0087 12.9722 10.6973 12.9722C10.9842 13.0488 11.271 13.1215 11.5578 13.1902V25.6924C11.5578 26.4302 12.1201 27.0269 12.8099 27.0269C17.2703 28.3293 21.9354 28.4084 26.4274 27.258V27.258Z" fill="#DD7A7A"/>
<path d="M22.3661 13.5845C21.7333 15.4068 20.9113 17.135 19.9178 18.7316C18.5478 20.9228 16.9416 22.9063 15.1374 24.6347C13.5416 26.1805 11.8234 27.5518 10.0052 28.7308V28.7308C9.84071 28.6175 9.70387 28.4584 9.60736 28.2683C9.51085 28.0781 9.4578 27.8631 9.45312 27.6431C9.70353 27.4825 9.99491 27.288 10.3182 27.0634C11.7721 26.0512 13.1551 24.9104 14.4544 23.6515C16.7092 21.4632 19.4682 18.1271 21.1198 13.762C21.5341 13.7124 21.9495 13.6532 22.3661 13.5845Z" fill="#FFE0DC"/>
<path d="M26.4266 17.3228V20.0256C26.1231 20.6158 25.7926 21.199 25.4352 21.7752C24.0651 23.9656 22.4589 25.9482 20.6547 27.6758C19.7214 28.5793 18.8176 29.3536 18.0015 29.9973C17.3626 29.9973 16.7241 29.9743 16.0859 29.9281C17.4484 28.9615 18.7468 27.8809 19.9707 26.6952C22.1298 24.5956 24.758 21.4371 26.4266 17.3228Z" fill="#FFE0DC"/>
<path d="M21.4749 11.6351C21.5445 11.5279 21.5927 11.4046 21.6162 11.2738C21.6398 11.143 21.638 11.0079 21.6111 10.8779C21.5842 10.748 21.5328 10.6264 21.4605 10.5217C21.3882 10.417 21.2968 10.3317 21.1927 10.2719C21.1972 10.2395 21.1995 10.2068 21.1995 10.174C21.1993 10.039 21.1645 9.90707 21.0993 9.79468C21.0341 9.68229 20.9416 9.59442 20.8331 9.54204C20.7247 9.48966 20.6052 9.4751 20.4896 9.50017C20.374 9.52524 20.2674 9.58884 20.1831 9.68301C20.0138 9.41779 19.7597 9.24039 19.4766 9.18973C19.1934 9.13906 18.9043 9.21926 18.6727 9.41273C18.6108 9.13356 18.4664 8.88767 18.2641 8.71701C18.0618 8.54634 17.8141 8.46147 17.5634 8.47688C17.3127 8.49229 17.0743 8.60701 16.8891 8.80149C16.7038 8.99597 16.5832 9.25814 16.5476 9.5433C16.3118 9.45889 16.0579 9.46915 15.8279 9.57239C15.5978 9.67564 15.4052 9.86571 15.2819 10.1113C15.1734 10.053 15.0521 10.0335 14.9338 10.0555C14.8155 10.0774 14.7057 10.1397 14.6187 10.2343C14.5317 10.3289 14.4716 10.4513 14.4462 10.5856C14.4207 10.72 14.4312 10.86 14.4761 10.9874C14.3788 11.0917 14.3053 11.2218 14.2623 11.3664C14.2192 11.5109 14.2079 11.6654 14.2293 11.8162C14.2506 11.967 14.3041 12.1094 14.3848 12.2308C14.4656 12.3523 14.5712 12.449 14.6923 12.5125C14.6676 12.5881 14.6549 12.6681 14.6548 12.7488C14.6547 12.8872 14.6911 13.0223 14.7592 13.1364C14.8273 13.2506 14.9239 13.3384 15.0363 13.3884C15.1487 13.4384 15.2717 13.4482 15.3891 13.4166C15.5065 13.3849 15.6127 13.3133 15.694 13.2111C15.8799 13.3707 16.106 13.4568 16.3382 13.4565C16.5325 13.4566 16.7232 13.3969 16.8906 13.2837C17.0579 13.1705 17.1957 13.0079 17.2897 12.8128C17.4243 12.8786 17.5691 12.9123 17.7154 12.912C17.7627 12.9121 17.8098 12.9082 17.8566 12.9003C17.8887 13.0314 17.9541 13.1486 18.0445 13.2369C18.135 13.3252 18.2463 13.3806 18.3642 13.396C18.4822 13.4114 18.6015 13.3861 18.7069 13.3234C18.8123 13.2607 18.8991 13.1634 18.9561 13.0439C19.1249 13.1628 19.3191 13.2256 19.5172 13.2254C19.7979 13.2255 20.0677 13.1005 20.2696 12.8768C20.4163 13.0458 20.614 13.1438 20.8218 13.1506C21.0297 13.1573 21.2319 13.0722 21.3867 12.9129C21.5414 12.7536 21.637 12.5322 21.6536 12.2945C21.6703 12.0567 21.6067 11.8206 21.4761 11.6351H21.4749Z" fill="#F55B4B"/>
<path d="M21.656 12.1941V12.2124C21.6581 12.3978 21.6119 12.5797 21.5234 12.7349C21.4349 12.8901 21.3081 13.0115 21.1591 13.0836C21.0102 13.1556 20.8458 13.1751 20.6872 13.1394C20.5285 13.1038 20.3828 13.0147 20.2685 12.8835C20.0964 13.0744 19.874 13.1943 19.6361 13.2245C19.3981 13.2548 19.1582 13.1936 18.9539 13.0506C18.8972 13.1703 18.8107 13.2678 18.7054 13.3307C18.6001 13.3936 18.4809 13.4191 18.3629 13.4038C18.2449 13.3885 18.1336 13.3332 18.0433 13.2449C17.9529 13.1566 17.8875 13.0394 17.8555 12.9083C17.8087 12.9151 17.7615 12.9186 17.7144 12.9188C17.5677 12.9189 17.4225 12.8852 17.2875 12.8195C17.213 12.9747 17.1104 13.1099 16.9866 13.2159C16.8628 13.3219 16.7207 13.3963 16.5698 13.4341C16.4189 13.4719 16.2627 13.4723 16.1116 13.4352C15.9606 13.3982 15.8182 13.3245 15.694 13.2191C15.6127 13.3214 15.5064 13.3931 15.3889 13.4247C15.2714 13.4563 15.1483 13.4464 15.0358 13.3962C14.9234 13.346 14.8268 13.258 14.7588 13.1436C14.6908 13.0293 14.6545 12.894 14.6548 12.7555C14.655 12.6748 14.6677 12.5948 14.6924 12.5192C14.5713 12.4559 14.4657 12.3593 14.3849 12.238C14.3041 12.1166 14.2507 11.9743 14.2293 11.8236C14.2079 11.6729 14.2192 11.5185 14.2623 11.3741C14.3053 11.2296 14.3788 11.0996 14.4761 10.9954C14.4419 10.8981 14.4277 10.793 14.4346 10.6883C14.4415 10.5836 14.4693 10.4821 14.5159 10.3918C14.5624 10.3014 14.6265 10.2245 14.7031 10.1671C14.7797 10.1096 14.8668 10.0732 14.9576 10.0605C14.9633 10.0801 14.9678 10.0984 14.9747 10.1167C14.8773 10.2208 14.8039 10.3509 14.7608 10.4953C14.7178 10.6398 14.7064 10.7942 14.7278 10.9449C14.7492 11.0956 14.8026 11.2379 14.8834 11.3592C14.9642 11.4805 15.0698 11.5771 15.1909 11.6405C15.1662 11.716 15.1535 11.7961 15.1534 11.8768C15.1531 12.0152 15.1893 12.1505 15.2573 12.2649C15.3253 12.3792 15.4219 12.4673 15.5344 12.5174C15.6469 12.5676 15.7699 12.5775 15.8874 12.5459C16.0049 12.5143 16.1113 12.4426 16.1926 12.3403C16.3168 12.4455 16.4592 12.519 16.6102 12.556C16.7612 12.593 16.9174 12.5925 17.0682 12.5547C17.2191 12.5169 17.3611 12.4425 17.4849 12.3367C17.6087 12.2308 17.7114 12.0958 17.7861 11.9408C17.921 12.0065 18.0662 12.0403 18.2129 12.04C18.2597 12.0399 18.3065 12.0364 18.3529 12.0296C18.3851 12.1606 18.4507 12.2777 18.5412 12.3658C18.6317 12.454 18.743 12.5092 18.861 12.5245C18.9789 12.5397 19.0982 12.5144 19.2035 12.4516C19.3089 12.3888 19.3955 12.2914 19.4524 12.1719C19.6212 12.2907 19.8155 12.3536 20.0135 12.3534C20.2942 12.3535 20.564 12.2285 20.7659 12.0048C20.9185 12.1738 21.1228 12.2675 21.335 12.2659C21.4451 12.2669 21.5543 12.2424 21.656 12.1941V12.1941Z" fill="#DB4F45"/>
<path d="M17.9589 9.9717C18.1865 9.9717 18.3709 9.76008 18.3709 9.49904C18.3709 9.23799 18.1865 9.02637 17.9589 9.02637C17.7313 9.02637 17.5469 9.23799 17.5469 9.49904C17.5469 9.76008 17.7313 9.9717 17.9589 9.9717Z" fill="#F78077"/>
<path d="M19.4277 10.9185C19.6552 10.9185 19.8397 10.7069 19.8397 10.4458C19.8397 10.1848 19.6552 9.97314 19.4277 9.97314C19.2001 9.97314 19.0156 10.1848 19.0156 10.4458C19.0156 10.7069 19.2001 10.9185 19.4277 10.9185Z" fill="#F78077"/>
</svg>
