<svg width="36" height="36" viewBox="0 0 36 36" fill="none" xmlns="http://www.w3.org/2000/svg">
<path d="M28.8039 18.4692C28.9544 17.9105 29.0319 17.3241 29.0334 16.7334C29.0334 11.4177 22.7357 7.10986 14.9666 7.10986C7.1976 7.10986 0.899897 11.4147 0.899897 16.7304C0.900802 17.321 0.978047 17.9074 1.12854 18.4662C0.732383 18.7138 0.427181 19.1475 0.277192 19.6758C0.127202 20.2041 0.144128 20.7859 0.324405 21.2986C0.504683 21.8114 0.834245 22.2151 1.24371 22.4248C1.65317 22.6344 2.11059 22.6337 2.51965 22.4228C2.51965 22.4779 2.51243 22.5331 2.51243 22.5892C2.51253 22.9305 2.57582 23.267 2.69717 23.5713C2.81853 23.8756 2.99452 24.1393 3.21089 24.3409C3.42726 24.5424 3.67791 24.6763 3.94251 24.7316C4.20712 24.7868 4.47823 24.7619 4.73387 24.6589C4.74249 25.2178 4.8866 25.7595 5.1465 26.2101C5.40639 26.6606 5.76934 26.9979 6.18567 27.1758C6.602 27.3536 7.05135 27.3634 7.47219 27.2036C7.89303 27.0439 8.26479 26.7225 8.53656 26.2834C8.89433 26.7285 9.36388 26.9989 9.86272 27.0471C10.3616 27.0952 10.8578 26.9181 11.2642 26.5469C11.4052 26.8717 11.6093 27.1451 11.8569 27.3409C12.1046 27.5367 12.3876 27.6484 12.6789 27.6653C12.9701 27.6822 13.2599 27.6038 13.5206 27.4374C13.7812 27.2711 14.004 27.0225 14.1676 26.7154C14.3455 27.168 14.6194 27.5482 14.9583 27.8128C15.2972 28.0775 15.6876 28.2161 16.0852 28.2129C16.4829 28.2097 16.8719 28.0649 17.2081 27.7948C17.5444 27.5247 17.8145 27.1402 17.9879 26.6847C18.1085 26.9751 18.2968 27.2109 18.5268 27.3599C18.7568 27.5089 19.0174 27.5637 19.2728 27.5168C19.5283 27.47 19.7661 27.3238 19.9537 27.0982C20.1413 26.8727 20.2696 26.5788 20.3209 26.2569C20.5818 26.6879 20.9384 27.0091 21.3446 27.1788C21.7508 27.3484 22.1877 27.3586 22.5985 27.2081C23.0093 27.0575 23.375 26.7532 23.6481 26.3347C23.9213 25.9161 24.0891 25.4027 24.13 24.8611C24.4406 25.1945 24.8196 25.408 25.2224 25.4764C25.6252 25.5448 26.0349 25.4652 26.4034 25.2471C26.7718 25.0289 27.0836 24.6813 27.3019 24.2451C27.5203 23.809 27.6361 23.3024 27.6358 22.7853C27.636 22.6959 27.6325 22.6066 27.6254 22.5178C28.0348 22.6559 28.4699 22.5949 28.8458 22.3468C29.2218 22.0987 29.5116 21.6812 29.6588 21.1758C29.806 20.6704 29.8 20.1134 29.6419 19.6133C29.4839 19.1133 29.1851 18.7061 28.8039 18.4713V18.4692Z" fill="white"/>
<path d="M23.4796 25.3439C23.6824 25.3443 23.8843 25.3075 24.0789 25.2346C23.9848 25.732 23.7822 26.1854 23.4943 26.5425C23.2064 26.8995 22.845 27.1456 22.4519 27.2524C22.0588 27.3592 21.65 27.3222 21.2726 27.1459C20.8953 26.9695 20.5649 26.6609 20.3195 26.2557C20.2679 26.5768 20.1396 26.8698 19.9523 27.0948C19.765 27.3198 19.5278 27.4657 19.2729 27.5127C19.018 27.5597 18.7579 27.5055 18.5282 27.3575C18.2984 27.2095 18.1101 26.9748 17.9889 26.6855C17.8153 27.1407 17.5451 27.5249 17.2089 27.7947C16.8726 28.0645 16.4838 28.2092 16.0863 28.2124C15.6888 28.2156 15.2985 28.0772 14.9596 27.8127C14.6207 27.5483 14.3467 27.1685 14.1686 26.7162C14.005 27.0235 13.7821 27.2723 13.5213 27.4386C13.2606 27.605 12.9706 27.6835 12.6792 27.6665C12.3878 27.6495 12.1047 27.5376 11.857 27.3415C11.6093 27.1455 11.4053 26.8718 11.2644 26.5467C10.858 26.9189 10.3614 27.0965 9.86206 27.0483C9.36277 27.0001 8.89287 26.7292 8.53517 26.2832C8.26339 26.7223 7.89163 27.0437 7.47079 27.2034C7.04995 27.3632 6.60061 27.3534 6.18428 27.1756C5.76795 26.9977 5.40499 26.6604 5.1451 26.2099C4.88521 25.7593 4.74109 25.2175 4.73248 24.6587C4.47727 24.7602 4.20689 24.7839 3.94316 24.7279C3.67944 24.6719 3.42975 24.5378 3.21425 24.3363C2.99875 24.1349 2.82348 23.8718 2.70258 23.5683C2.58168 23.2648 2.51854 22.9293 2.51825 22.589C2.51825 22.5339 2.51825 22.4787 2.52387 22.4236C2.11152 22.6593 1.64248 22.6769 1.21993 22.4725C0.797391 22.2681 0.455954 21.8584 0.270736 21.3336C0.0855188 20.8088 0.071693 20.2118 0.2323 19.674C0.392908 19.1362 0.714793 18.7017 1.12714 18.4659C0.976523 17.9073 0.899274 17.3208 0.898501 16.7301C0.898501 14.7564 1.76734 12.9195 3.25874 11.394C2.68592 12.4427 2.37625 13.5771 2.37625 14.7636C2.37688 15.3542 2.45413 15.9407 2.6049 16.4994C2.20508 16.7447 1.89621 17.1789 1.74394 17.7095C1.59167 18.2401 1.60802 18.8254 1.7895 19.341C1.97098 19.8565 2.30328 20.2617 2.71578 20.4703C3.12827 20.6789 3.58842 20.6745 3.99841 20.458C3.99841 20.5122 3.99119 20.5673 3.99119 20.6235C3.99174 20.964 4.0552 21.2996 4.17643 21.6031C4.29767 21.9067 4.47329 22.1697 4.68911 22.3709C4.90494 22.5722 5.15492 22.706 5.41887 22.7616C5.68283 22.8173 5.95336 22.7931 6.20863 22.6911C6.21898 23.2482 6.36387 23.7877 6.6236 24.2363C6.88333 24.685 7.2453 25.0209 7.66031 25.1985C8.07531 25.3761 8.52322 25.3867 8.94313 25.2289C9.36305 25.0712 9.73461 24.7526 10.0073 24.3167C10.3654 24.7629 10.8358 25.0339 11.3355 25.0819C11.8353 25.1299 12.3323 24.9518 12.739 24.5791C12.8798 24.9042 13.0839 25.1779 13.3316 25.3739C13.5793 25.57 13.8624 25.6819 14.1538 25.6989C14.4452 25.7159 14.7351 25.6374 14.9959 25.4711C15.2566 25.3047 15.4795 25.0559 15.6431 24.7486C15.8211 25.2011 16.0951 25.5813 16.4341 25.8458C16.773 26.1104 17.1634 26.2489 17.5611 26.2456C17.9587 26.2423 18.3476 26.0974 18.6839 25.8272C19.0201 25.557 19.2902 25.1724 19.4635 24.7169C19.585 25.0048 19.7731 25.2382 20.0024 25.3853C20.2317 25.5324 20.491 25.5861 20.7451 25.5391C20.9991 25.4922 21.2357 25.3468 21.4227 25.1228C21.6096 24.8988 21.7379 24.607 21.79 24.287C21.989 24.6165 22.2449 24.8832 22.5379 25.0664C22.8309 25.2497 23.1531 25.3446 23.4796 25.3439V25.3439Z" fill="#DBDDDC"/>
<path d="M24.4939 27.2781C24.5605 22.9692 25.4943 19.4975 26.5798 19.5241C27.6652 19.5506 28.4923 23.0672 28.4249 27.3771C28.3575 31.687 26.3391 35.1311 26.3391 35.1311C26.3391 35.1311 24.4273 31.5849 24.4939 27.2781Z" fill="#D84C41"/>
<path d="M2.81259 2.75489C4.6305 0.491187 10.1179 -0.801483 13.2034 0.93433C14.1288 1.45631 15.0261 2.05563 15.8893 2.72834C16.3996 3.12452 16.8962 3.54111 17.3791 3.97813C18.5196 5.01138 19.5988 6.14987 20.6082 7.38441C21.2949 8.2176 21.9359 9.07529 22.5296 9.93707C23.7717 11.7283 24.8756 13.6673 25.8261 15.7275C27.7635 19.9956 28.0467 23.1068 26.1365 22.0193C25.8574 21.859 24.0314 20.8962 21.5268 19.6331C19.3904 18.559 16.7606 17.2683 14.1709 16.0767C13.2202 15.6387 12.2744 15.215 11.363 14.8198C10.2014 14.3154 9.09104 13.859 8.08742 13.4822L7.76651 13.3627C5.93336 12.6888 4.49251 12.3029 3.79776 12.4132C0.448344 12.9431 0.993075 5.0186 2.81259 2.75489Z" fill="#F55B4B"/>
<path d="M2.81276 2.75489C4.63067 0.491187 10.1181 -0.801483 13.2036 0.93433C14.6721 1.76822 16.0711 2.78795 17.3793 3.97813C16.3452 10.9643 11.4226 12.9482 8.08518 13.4802C6.0996 12.7338 4.5312 12.2947 3.79633 12.4111C0.44852 12.9431 0.993251 5.01859 2.81276 2.75489Z" fill="#D84C41"/>
<path d="M14.1719 16.0747C16.8947 15.6398 20.6701 14.2368 22.5306 9.93506C23.7727 11.7263 24.8766 13.6653 25.827 15.7255C24.691 17.6594 23.1218 18.8735 21.5278 19.6311C19.3913 18.5569 16.7616 17.2714 14.1719 16.0747Z" fill="#D84C41"/>
<path d="M29.839 26.709C27.2605 24.769 25.4442 21.9355 25.7828 20.3784C26.1213 18.8213 28.4864 19.1225 31.0656 21.0594C33.6449 22.9964 35.1218 27.39 35.1218 27.39C35.1218 27.39 32.4182 28.647 29.839 26.709Z" fill="#F55B4B"/>
<path d="M26.1384 22.0174C25.8584 21.8571 24.0325 20.8943 21.5279 19.6322C19.3923 18.557 16.7625 17.2674 14.1728 16.0748C13.2213 15.6368 12.2763 15.213 11.3649 14.8179C10.204 14.3135 9.09371 13.8571 8.09009 13.4803C7.97937 13.4384 7.87027 13.3976 7.76196 13.3588C6.69416 12.9718 5.60069 12.5532 4.49117 12.4245C4.431 12.4163 4.37083 12.4092 4.31066 12.4051C4.14087 12.3845 3.96983 12.3869 3.80043 12.4123C1.74264 12.739 1.15299 9.87185 1.43217 7.0874C1.63594 8.86916 2.35797 10.2088 3.79722 9.98008C4.49197 9.86981 5.93362 10.2558 7.76678 10.9297L8.08768 11.0481C9.0913 11.4249 10.2016 11.8823 11.3625 12.3857L11.5093 12.449C12.3781 12.8258 13.2743 13.2281 14.1736 13.6426C15.243 14.1348 16.3196 14.6443 17.365 15.1477C18.8515 15.8624 20.2747 16.569 21.5287 17.2C22.3141 17.5952 23.0337 17.9618 23.6586 18.2824C25.0265 18.9869 25.9467 19.475 26.1392 19.5853C26.6575 19.8803 27.0137 19.866 27.2199 19.6047C27.7012 21.6407 27.3907 22.7301 26.1392 22.0174H26.1384Z" fill="#DB4B40"/>
<path d="M11.361 12.3857L11.5078 12.449C10.4018 12.9573 9.25382 13.3032 8.08618 13.4803C7.97547 13.4384 7.86636 13.3976 7.75806 13.3588C6.69507 12.9626 5.59197 12.5491 4.48726 12.4245C4.42709 12.4163 4.36693 12.4092 4.30676 12.4051C4.13696 12.3845 3.96592 12.3869 3.79652 12.4123C1.73874 12.739 1.14908 9.87185 1.42826 7.0874C1.63525 8.86916 2.35728 10.2088 3.79652 9.98008C4.49127 9.86981 5.93293 10.2558 7.76608 10.9297L8.08698 11.0481C9.0906 11.4249 10.2009 11.8823 11.3618 12.3857H11.361Z" fill="#BF433D"/>
<path d="M23.6568 18.2821C22.9891 18.8298 22.2762 19.2824 21.5309 19.632C19.3953 18.5568 16.7655 17.2672 14.1758 16.0746C15.2621 15.9083 16.3317 15.5976 17.3672 15.1475C18.8537 15.8622 20.2769 16.5688 21.5309 17.1998C22.3123 17.595 23.0319 17.9615 23.6568 18.2821Z" fill="#BF433D"/>
<path d="M13.0037 5.67899C13.6249 5.67899 14.1284 5.03807 14.1284 4.24745C14.1284 3.45684 13.6249 2.81592 13.0037 2.81592C12.3825 2.81592 11.8789 3.45684 11.8789 4.24745C11.8789 5.03807 12.3825 5.67899 13.0037 5.67899Z" fill="#F55B4B"/>
<path d="M10.9451 3.82911C11.385 3.82911 11.7417 3.37516 11.7417 2.81519C11.7417 2.25522 11.385 1.80127 10.9451 1.80127C10.5051 1.80127 10.1484 2.25522 10.1484 2.81519C10.1484 3.37516 10.5051 3.82911 10.9451 3.82911Z" fill="#F55B4B"/>
</svg>
