<svg width="26" height="25" viewBox="0 0 26 25" fill="none" xmlns="http://www.w3.org/2000/svg">
<path d="M0 0.833333C0 0.61232 0.0913121 0.400358 0.253849 0.244078C0.416385 0.0877973 0.636832 0 0.866693 0H3.46677C3.6601 5.13525e-05 3.84786 0.0622511 4.00019 0.176708C4.15252 0.291165 4.26068 0.451306 4.30747 0.631667L5.00949 3.33333H25.1341C25.2614 3.33345 25.387 3.3605 25.5022 3.41258C25.6174 3.46467 25.7192 3.54049 25.8004 3.63467C25.8817 3.72886 25.9403 3.83908 25.9723 3.95753C26.0042 4.07597 26.0086 4.19973 25.9852 4.32L23.3851 17.6533C23.3479 17.8443 23.2425 18.0168 23.0871 18.1409C22.9317 18.2651 22.7361 18.3332 22.534 18.3333H6.93355C6.73149 18.3332 6.53585 18.2651 6.38044 18.1409C6.22504 18.0168 6.11963 17.8443 6.08245 17.6533L3.48411 4.345L2.79075 1.66667H0.866693C0.636832 1.66667 0.416385 1.57887 0.253849 1.42259C0.0913121 1.26631 0 1.05435 0 0.833333ZM5.37697 5L7.6529 16.6667H21.8147L24.0906 5H5.37697ZM8.66693 18.3333C7.74749 18.3333 6.8657 18.6845 6.21555 19.3096C5.56541 19.9348 5.20016 20.7826 5.20016 21.6667C5.20016 22.5507 5.56541 23.3986 6.21555 24.0237C6.8657 24.6488 7.74749 25 8.66693 25C9.58638 25 10.4682 24.6488 11.1183 24.0237C11.7685 23.3986 12.1337 22.5507 12.1337 21.6667C12.1337 20.7826 11.7685 19.9348 11.1183 19.3096C10.4682 18.6845 9.58638 18.3333 8.66693 18.3333ZM20.8006 18.3333C19.8812 18.3333 18.9994 18.6845 18.3493 19.3096C17.6991 19.9348 17.3339 20.7826 17.3339 21.6667C17.3339 22.5507 17.6991 23.3986 18.3493 24.0237C18.9994 24.6488 19.8812 25 20.8006 25C21.7201 25 22.6019 24.6488 23.252 24.0237C23.9022 23.3986 24.2674 22.5507 24.2674 21.6667C24.2674 20.7826 23.9022 19.9348 23.252 19.3096C22.6019 18.6845 21.7201 18.3333 20.8006 18.3333ZM8.66693 20C9.12666 20 9.56755 20.1756 9.89262 20.4882C10.2177 20.8007 10.4003 21.2246 10.4003 21.6667C10.4003 22.1087 10.2177 22.5326 9.89262 22.8452C9.56755 23.1577 9.12666 23.3333 8.66693 23.3333C8.20721 23.3333 7.76632 23.1577 7.44125 22.8452C7.11617 22.5326 6.93355 22.1087 6.93355 21.6667C6.93355 21.2246 7.11617 20.8007 7.44125 20.4882C7.76632 20.1756 8.20721 20 8.66693 20ZM20.8006 20C21.2604 20 21.7013 20.1756 22.0263 20.4882C22.3514 20.8007 22.534 21.2246 22.534 21.6667C22.534 22.1087 22.3514 22.5326 22.0263 22.8452C21.7013 23.1577 21.2604 23.3333 20.8006 23.3333C20.3409 23.3333 19.9 23.1577 19.575 22.8452C19.2499 22.5326 19.0673 22.1087 19.0673 21.6667C19.0673 21.2246 19.2499 20.8007 19.575 20.4882C19.9 20.1756 20.3409 20 20.8006 20V20Z" fill="white"/>
</svg>
