<svg width="37" height="34" viewBox="0 0 37 34" fill="none" xmlns="http://www.w3.org/2000/svg">
<path d="M0 1.13333C0 0.832755 0.129944 0.544487 0.361246 0.331946C0.592548 0.119404 0.906261 0 1.23337 0H4.93349C5.2086 6.98393e-05 5.4758 0.0846616 5.69258 0.240323C5.90936 0.395984 6.06328 0.613777 6.12986 0.859067L7.12889 4.53333H35.7678C35.9489 4.53349 36.1277 4.57029 36.2916 4.64112C36.4555 4.71194 36.6004 4.81507 36.716 4.94316C36.8316 5.07124 36.9151 5.22116 36.9605 5.38224C37.006 5.54332 37.0123 5.71163 36.9789 5.8752L33.2788 24.0085C33.2259 24.2682 33.0759 24.5028 32.8548 24.6717C32.6336 24.8405 32.3552 24.9331 32.0677 24.9333H9.86697C9.57943 24.9331 9.30102 24.8405 9.07986 24.6717C8.85871 24.5028 8.70871 24.2682 8.6558 24.0085L4.95815 5.9092L3.97146 2.26667H1.23337C0.906261 2.26667 0.592548 2.14726 0.361246 1.93472C0.129944 1.72218 0 1.43391 0 1.13333ZM7.65184 6.8L10.8907 22.6667H31.044L34.2828 6.8H7.65184ZM12.3337 24.9333C11.0253 24.9333 9.77042 25.411 8.84521 26.2611C7.92001 27.1113 7.40023 28.2644 7.40023 29.4667C7.40023 30.669 7.92001 31.8221 8.84521 32.6722C9.77042 33.5224 11.0253 34 12.3337 34C13.6422 34 14.897 33.5224 15.8222 32.6722C16.7474 31.8221 17.2672 30.669 17.2672 29.4667C17.2672 28.2644 16.7474 27.1113 15.8222 26.2611C14.897 25.411 13.6422 24.9333 12.3337 24.9333ZM29.6009 24.9333C28.2925 24.9333 27.0376 25.411 26.1124 26.2611C25.1872 27.1113 24.6674 28.2644 24.6674 29.4667C24.6674 30.669 25.1872 31.8221 26.1124 32.6722C27.0376 33.5224 28.2925 34 29.6009 34C30.9094 34 32.1642 33.5224 33.0894 32.6722C34.0146 31.8221 34.5344 30.669 34.5344 29.4667C34.5344 28.2644 34.0146 27.1113 33.0894 26.2611C32.1642 25.411 30.9094 24.9333 29.6009 24.9333ZM12.3337 27.2C12.9879 27.2 13.6154 27.4388 14.078 27.8639C14.5406 28.289 14.8005 28.8655 14.8005 29.4667C14.8005 30.0678 14.5406 30.6444 14.078 31.0694C13.6154 31.4945 12.9879 31.7333 12.3337 31.7333C11.6795 31.7333 11.0521 31.4945 10.5895 31.0694C10.1269 30.6444 9.86697 30.0678 9.86697 29.4667C9.86697 28.8655 10.1269 28.289 10.5895 27.8639C11.0521 27.4388 11.6795 27.2 12.3337 27.2ZM29.6009 27.2C30.2551 27.2 30.8826 27.4388 31.3452 27.8639C31.8078 28.289 32.0677 28.8655 32.0677 29.4667C32.0677 30.0678 31.8078 30.6444 31.3452 31.0694C30.8826 31.4945 30.2551 31.7333 29.6009 31.7333C28.9467 31.7333 28.3193 31.4945 27.8567 31.0694C27.3941 30.6444 27.1342 30.0678 27.1342 29.4667C27.1342 28.8655 27.3941 28.289 27.8567 27.8639C28.3193 27.4388 28.9467 27.2 29.6009 27.2Z" fill="black"/>
</svg>
