<svg width="35" height="35" viewBox="0 0 35 35" fill="none" xmlns="http://www.w3.org/2000/svg">
<path d="M31.4149 18.6494C31.4149 24.8356 27.1322 29.6407 21.1592 31.5799L10.9762 31.5741C5.01235 29.6303 0.738281 24.8296 0.738281 18.6494H31.4149Z" fill="#30B8FC"/>
<path d="M2.61719 18.4857C2.61719 17.6364 3.33392 16.8916 3.59412 16.1038C3.85639 15.3103 3.71121 14.3259 4.2044 13.6199C4.68518 12.932 5.71829 12.6397 6.38742 12.0589C7.03023 11.5008 7.39864 10.5638 8.18752 10.126C8.94299 9.70654 10.0122 9.8386 10.8773 9.54822C11.7058 9.26986 12.4279 8.52858 13.3353 8.38475C14.2034 8.24722 15.1529 8.7178 16.0745 8.7178C16.5582 8.7178 17.0618 8.19198 17.5319 8.23081C18.0133 8.27046 18.4077 8.87147 18.8722 8.94967C19.3477 9.02979 19.9465 8.59721 20.4009 8.71534C20.866 8.83619 21.1324 9.49462 21.5724 9.65267C22.023 9.81454 22.701 9.49709 23.1218 9.6956C23.552 9.89849 23.67 10.5927 24.0656 10.8309C24.4701 11.0748 25.2051 10.8965 25.5694 11.1743C25.8988 11.4256 25.8116 12.0925 26.1049 12.3692C26.4035 12.6512 27.1271 12.5861 27.3849 12.8918C27.6469 13.2024 27.4006 13.834 27.6173 14.1668C27.8364 14.5034 28.5555 14.5999 28.7249 14.9568C28.8949 15.3152 28.4842 15.8684 28.6004 16.2444C28.7164 16.619 29.3819 16.8883 29.4411 17.2777C29.4993 17.6613 28.9408 18.0895 28.9408 18.4852" fill="#F2F2F2"/>
<path d="M18.5464 8.55726C17.9021 8.48344 17.243 8.44434 16.5718 8.44434C9.30278 8.44434 3.41016 12.9399 3.41016 18.4857H7.35927C7.35927 13.452 12.2144 9.28405 18.5464 8.55726Z" fill="#E6E6E6"/>
<path d="M31.4143 17.9634H30.3898C30.2384 17.4857 29.9046 17.0835 29.6 16.7179C29.378 16.4513 29.1485 16.1757 29.0764 15.9575C29.0028 15.7338 29.0285 15.3811 29.0533 15.0404C29.098 14.4309 29.1485 13.7399 28.7358 13.1496C28.3404 12.5833 27.661 12.3396 27.0616 12.125C26.7024 11.9962 26.331 11.8628 26.1361 11.6935L25.1222 12.6921C25.5273 13.0437 26.0578 13.2341 26.5261 13.4017C26.9348 13.5482 27.357 13.6997 27.4918 13.893C27.6376 14.1017 27.606 14.5318 27.5758 14.9479C27.5418 15.4125 27.5066 15.8929 27.6601 16.3578C27.8106 16.8139 28.1237 17.1896 28.4262 17.5535C28.5409 17.691 28.6524 17.8294 28.7494 17.9637H3.40477C3.50175 17.8294 3.61352 17.691 3.72824 17.5532C4.03072 17.1896 4.34385 16.8133 4.49435 16.3575C4.64781 15.8927 4.61292 15.412 4.57892 14.9474C4.54816 14.5312 4.51712 14.1011 4.66289 13.8922C4.79772 13.6994 5.22025 13.548 5.62858 13.4014C6.09694 13.2335 6.62769 13.0432 7.03248 12.6918C7.42721 12.3492 7.6472 11.8956 7.8595 11.4567C8.04252 11.0788 8.23146 10.6884 8.46949 10.5566C8.67971 10.439 9.12353 10.4631 9.55316 10.4866C10.0709 10.515 10.6578 10.5465 11.2004 10.3641C11.7223 10.1888 12.12 9.83772 12.5043 9.49839C12.8249 9.21538 13.1563 8.92253 13.4295 8.87933C13.6711 8.8405 14.075 9.0062 14.4653 9.16562C14.9458 9.36276 15.491 9.58588 16.0777 9.58588C16.6643 9.58588 17.2092 9.36249 17.69 9.16562C18.0797 9.00593 18.4821 8.8405 18.7252 8.87933C18.9978 8.92253 19.3293 9.21511 19.6498 9.49784L19.7808 9.61296L20.797 8.61711L20.6719 8.50691C20.2133 8.10223 19.6932 7.64313 18.975 7.52938C18.292 7.42056 17.6533 7.68278 17.0901 7.91356C16.727 8.06258 16.3512 8.21652 16.0777 8.21652C15.8041 8.21652 15.4286 8.06258 15.0649 7.91383C14.5017 7.68278 13.8639 7.42165 13.1794 7.52966C12.4609 7.64368 11.9408 8.10277 11.4819 8.50801C11.2078 8.74972 10.9245 8.99991 10.6951 9.07702C10.4393 9.16233 10.0322 9.14073 9.6395 9.11968C9.01679 9.08523 8.31041 9.04776 7.70722 9.38272C7.07032 9.73627 6.77169 10.3531 6.50794 10.8976C6.35537 11.2128 6.19747 11.5393 6.01918 11.6938C5.82432 11.8633 5.45265 11.9965 5.0934 12.1253C4.49406 12.3402 3.81488 12.5838 3.41955 13.1496C3.00678 13.7402 3.05734 14.4309 3.10199 15.0404C3.12683 15.3813 3.15255 15.7341 3.07863 15.9577C3.00648 16.1759 2.77704 16.4516 2.55498 16.7184C2.25072 17.084 1.9169 17.4862 1.76522 17.9639H0.740385C0.331458 17.9639 0 18.2704 0 18.6486C0 24.111 3.16763 29.0356 8.30272 31.6603V32.9457C8.30272 34.0785 9.29917 35 10.5242 35H21.1373C22.3624 35 23.3588 34.0785 23.3588 32.9457V31.9085C28.7863 29.3538 32.1553 24.2849 32.1553 18.6486C32.1547 18.2699 31.8233 17.9634 31.4143 17.9634ZM21.8774 32.9451C21.8774 33.3228 21.5454 33.6298 21.137 33.6298H10.5239C10.1155 33.6298 9.78349 33.3228 9.78349 32.9451V32.0321H21.8774V32.9451ZM22.747 30.6628H22.6178H9.40739C4.73356 28.4392 1.75723 24.1539 1.4991 19.3327H30.6556C30.3975 24.1539 27.4209 28.4392 22.747 30.6628ZM15.5918 13.7104L32.4575 0.1677C32.7659 -0.0800316 33.2339 -0.0499537 33.5021 0.235786C33.77 0.521251 33.7372 0.953825 33.4285 1.20183L16.5629 14.7445C16.4227 14.8569 16.2497 14.9121 16.0777 14.9121C15.8707 14.9121 15.6649 14.8323 15.5182 14.6764C15.25 14.3907 15.2832 13.9584 15.5918 13.7104ZM34.6795 5.89151L20.7086 14.7913C20.5803 14.8727 20.4339 14.9121 20.2893 14.9121C20.054 14.9121 19.8225 14.8088 19.6788 14.616C19.4469 14.3045 19.5318 13.8783 19.8686 13.6636L33.8395 4.76386C34.1766 4.54976 34.6373 4.62824 34.8694 4.93941C35.1012 5.25058 35.0163 5.67686 34.6795 5.89151Z" fill="#303D00"/>
</svg>
