<svg width="35" height="35" viewBox="0 0 35 35" fill="none" xmlns="http://www.w3.org/2000/svg">
<path d="M32.293 17.8813C32.8636 10.5402 28.1077 5.54934 23.1615 5.17822C18.2153 4.80709 17.8347 0.909424 17.8347 0.909424H17.5008C17.5008 0.909424 17.1205 4.80675 12.174 5.17822C7.2275 5.54968 2.47188 10.5402 3.04281 17.8813" fill="#D6D77B"/>
<path d="M34.2724 17.5649C34.2724 23.3627 30.0938 28.3433 24.1153 30.528V32.7322C24.1153 33.4823 23.6294 34.0901 23.0298 34.0901H11.9692C11.3696 34.0901 10.8837 33.4823 10.8837 32.7322V30.528C4.90551 28.3433 0.726562 23.363 0.726562 17.5649H34.2724Z" fill="#9BCDD5"/>
<path d="M33.0665 16.6555C33.0619 13.7682 32.2845 11.1143 30.7841 8.9176C28.9455 6.22567 26.1122 4.48839 23.2061 4.2705C18.9807 3.95308 18.5719 0.91738 18.5577 0.799714L18.4795 0L16.873 0.0123136L16.7811 0.788085C16.7655 0.917038 16.3568 3.95274 12.1316 4.27016C9.22523 4.48805 6.39215 6.22532 4.55355 8.91795C3.0532 11.1146 2.27582 13.7679 2.27117 16.6551H0V17.565C0 23.4353 3.96785 28.7347 10.1571 31.2015V32.7325C10.1571 33.9827 10.97 35 11.9697 35H23.0303C24.0297 35 24.8429 33.9831 24.8429 32.7325V31.2015C31.0321 28.7347 35 23.4353 35 17.565V16.6551H33.0665V16.6555ZM23.1189 6.08645C25.6389 6.27526 28.0911 7.77584 29.6781 10.0997C30.9466 11.9567 31.6047 14.205 31.611 16.6551H25.2019C25.5782 12.8977 24.6397 9.23127 22.4919 6.01941C22.6937 6.0478 22.902 6.07037 23.1189 6.08645ZM15.698 5.00728C16.6942 4.36115 17.3007 3.53065 17.6693 2.79455C18.037 3.53031 18.6438 4.36046 19.6399 5.00694C22.7825 8.36382 24.22 12.4705 23.7388 16.6555H11.5995C11.1177 12.4701 12.5552 8.36417 15.698 5.00728ZM5.65961 10.0997C7.24664 7.7755 9.69883 6.27526 12.2188 6.08645C12.4357 6.07037 12.644 6.0478 12.8458 6.01941C10.698 9.23127 9.7598 12.8977 10.1358 16.6551H3.72668C3.73297 14.205 4.39113 11.9567 5.65961 10.0997ZM23.9116 29.6551L23.3885 29.8463V32.7325C23.3885 32.9795 23.228 33.1803 23.0305 33.1803H11.97C11.7726 33.1803 11.6121 32.9795 11.6121 32.7325V29.8463L11.089 29.6551C5.57895 27.6411 1.90477 23.3176 1.49324 18.4748H33.5065C33.0952 23.3176 29.4211 27.6411 23.9116 29.6551Z" fill="#303D00"/>
</svg>
