<svg width="35" height="35" viewBox="0 0 35 35" fill="none" xmlns="http://www.w3.org/2000/svg">
<path d="M3.22984 14.8347H31.7688C32.1953 14.835 32.6092 15.0271 32.9433 15.3798C33.2773 15.7325 33.5117 16.2252 33.6086 16.7776L34.9811 21.6099C35.0035 21.7416 35.0033 21.8782 34.9808 22.0098C34.9582 22.1413 34.9138 22.2645 34.8507 22.3703C34.7876 22.476 34.7076 22.5616 34.6164 22.6208C34.5252 22.68 34.4252 22.7113 34.3237 22.7124H0.674068C0.572595 22.7113 0.472591 22.68 0.381401 22.6208C0.29021 22.5616 0.210149 22.476 0.147095 22.3703C0.0840412 22.2645 0.0395963 22.1413 0.0170239 22.0098C-0.00554853 21.8782 -0.00567558 21.7416 0.0166526 21.6099L1.38924 16.7776C1.48608 16.225 1.72068 15.7322 2.05487 15.3795C2.38906 15.0267 2.80317 14.8347 3.22984 14.8347V14.8347Z" fill="#E5E3E3"/>
<path d="M34.3257 21.0825H0.675172C0.573474 21.0824 0.473066 21.1128 0.381462 21.1716C0.289859 21.2303 0.209432 21.3158 0.146201 21.4218C0.0829697 21.5277 0.0385712 21.6513 0.0163282 21.7832C-0.00591487 21.9152 -0.00542654 22.0522 0.0177567 22.1839L1.39035 30.0367C1.48704 30.5894 1.7216 31.0823 2.05583 31.4351C2.39005 31.7879 2.80424 31.9798 3.23094 31.9796V33.1735C3.23116 33.6581 3.37605 34.1226 3.63376 34.4651C3.89146 34.8077 4.24089 35.0001 4.60523 35.0001H30.563C30.7436 35.0007 30.9226 34.9538 31.0896 34.8623C31.2566 34.7708 31.4084 34.6364 31.5363 34.4667C31.6642 34.297 31.7657 34.0955 31.8349 33.8736C31.9041 33.6517 31.9398 33.4138 31.9398 33.1735V31.9796H31.7699C32.1965 31.9795 32.6105 31.7875 32.9445 31.4347C33.2786 31.082 33.513 30.5892 33.6097 30.0367L34.9822 22.1839C35.0054 22.0523 35.0059 21.9154 34.9837 21.7835C34.9615 21.6516 34.9172 21.5281 34.8541 21.4222C34.7909 21.3163 34.7106 21.2307 34.6191 21.1719C34.5276 21.1131 34.4273 21.0825 34.3257 21.0825V21.0825Z" fill="white"/>
<path d="M31.9387 33.2368C31.9261 33.7101 31.7759 34.1584 31.5197 34.4873C31.2635 34.8162 30.9213 35.0001 30.5652 35.0001H4.60327C4.23901 35.0001 3.88967 34.8076 3.6321 34.4651C3.37453 34.1225 3.22983 33.658 3.22983 33.1735V31.9796C2.80339 31.9796 2.38949 31.7877 2.05546 31.4352C1.72143 31.0826 1.48692 30.5901 1.39009 30.0378L0.0166512 22.185C-0.00569163 22.0533 -0.0055477 21.9165 0.0170721 21.7849C0.0396919 21.6532 0.0842127 21.53 0.147361 21.4242C0.210509 21.3185 0.290678 21.2329 0.381974 21.1737C0.47327 21.1146 0.573371 21.0834 0.674916 21.0825H2.29552L3.55345 28.2745C3.65042 28.8271 3.88506 29.3197 4.21922 29.6724C4.55338 30.0252 4.96741 30.2172 5.39404 30.2174V31.4114C5.39393 31.6511 5.42935 31.8886 5.49829 32.1101C5.56723 32.3316 5.66833 32.5329 5.79581 32.7025C5.92329 32.872 6.07465 33.0065 6.24123 33.0981C6.40781 33.1898 6.58635 33.2369 6.76663 33.2368H31.9387Z" fill="#E5E3E3"/>
<path d="M32.0617 29.2583H31.9453C31.9835 29.2628 32.0226 29.2617 32.0617 29.2583Z" fill="#E5E5E5"/>
<path d="M17.5012 0C17.5012 0 14.3373 1.02679 13.82 4.98596C13.7141 5.8659 13.4654 6.70464 13.0912 7.44392C12.4049 8.75875 11.0765 10.3684 8.58274 10.8248C8.58274 10.8248 2.21244 11.3805 2.55218 21.1039H13.7639C13.7639 21.1039 12.0006 17.9874 14.0051 13.2387C14.4766 12.1422 15.0703 11.147 15.7659 10.2871C16.7817 9.01743 18.9646 5.4841 17.5012 0Z" fill="#9ABA54"/>
<path d="M17.4429 0C17.4429 0 20.6069 1.02679 21.1241 4.98596C21.23 5.86611 21.479 6.70494 21.8537 7.44392C22.5383 8.75875 23.8676 10.3684 26.3614 10.8248C26.3614 10.8248 32.7317 11.3805 32.3919 21.1039H21.1802C21.1802 21.1039 22.9443 17.9874 20.939 13.2387C20.4678 12.1419 19.8741 11.1467 19.1782 10.2871C18.1624 9.01743 15.9803 5.4841 17.4429 0Z" fill="#C4E086"/>
<path d="M17.4398 0C17.4398 0 20.0898 1.24254 20.5145 9.20607C20.5145 9.20607 20.557 11.8041 22.553 13.2161C22.553 13.2161 24.5686 14.2508 24.4701 17.5638C24.4623 17.8221 24.5177 18.0767 24.628 18.2895C24.7382 18.5023 24.8974 18.6619 25.0816 18.7442C25.6235 18.9871 26.2546 19.5937 26.0779 21.1096H14.7812L17.4398 0Z" fill="#9ABA54"/>
<path d="M13.0508 17.574C13.0296 19.7778 13.7669 21.0824 13.7669 21.0824H2.55513C2.5045 19.906 2.57364 18.7258 2.76068 17.574H13.0508Z" fill="#88A045"/>
<path d="M32.3914 21.0824H21.1797C21.1797 21.0824 21.9178 19.7778 21.8957 17.574H32.1859C32.3729 18.7258 32.4421 19.906 32.3914 21.0824V21.0824Z" fill="#B7CE76"/>
<path d="M26.0779 21.0824H14.7812L15.2229 17.574H24.4692C24.4673 17.8261 24.5256 18.0726 24.6356 18.278C24.7456 18.4834 24.9018 18.6371 25.0816 18.7171C25.6235 18.9588 26.2546 19.5666 26.0779 21.0824Z" fill="#88A045"/>
<path d="M28.8419 16.8172C29.3457 16.8172 29.7541 16.274 29.7541 15.604C29.7541 14.934 29.3457 14.3909 28.8419 14.3909C28.3381 14.3909 27.9297 14.934 27.9297 15.604C27.9297 16.274 28.3381 16.8172 28.8419 16.8172Z" fill="#D9EAAC"/>
<path d="M27.537 14.6223C27.894 14.6223 28.1834 14.2374 28.1834 13.7627C28.1834 13.2879 27.894 12.9031 27.537 12.9031C27.18 12.9031 26.8906 13.2879 26.8906 13.7627C26.8906 14.2374 27.18 14.6223 27.537 14.6223Z" fill="#D9EAAC"/>
<path d="M17.4397 0C17.4397 0 17.1076 1.55995 15.6305 5.75294C15.0542 7.37432 14.2717 8.85127 13.3177 10.1188C12.3027 11.4743 11.032 13.9209 11.1577 17.5198C11.1647 17.7469 11.1181 17.9713 11.0244 18.1615C10.9308 18.3517 10.7947 18.4982 10.6353 18.5804C10.0323 18.8956 9.17188 19.6095 9.17188 21.1096H15.9703C15.9703 21.1096 15.1073 19.9517 15.3239 17.5683C15.4369 16.3258 16.0289 15.2776 16.8443 14.6529C17.3488 14.2666 17.8253 13.1415 17.5034 10.0725C17.5034 10.0725 17.0371 8.48427 18.0928 6.58431C18.374 6.09113 18.5709 5.52231 18.6698 4.91752C18.7687 4.31273 18.7671 3.68654 18.6653 3.08262C18.4656 1.93067 18.0431 0.868064 17.4397 0V0Z" fill="#B0D46C"/>
<path d="M15.9747 21.0824H9.17969C9.17969 19.5824 10.0401 18.8685 10.6432 18.5544C10.793 18.4772 10.9224 18.3431 11.0152 18.1687C11.1081 17.9944 11.1604 17.7875 11.1655 17.574H15.3215C15.1151 19.9325 15.9747 21.0824 15.9747 21.0824Z" fill="#A3C161"/>
</svg>
