<svg width="35" height="25" viewBox="0 0 35 25" fill="none" xmlns="http://www.w3.org/2000/svg">
<path d="M29.4235 16.1747H19.3094C18.8459 16.1738 18.3889 16.0305 17.9737 15.7559C17.5585 15.4812 17.1963 15.0827 16.9152 14.5911C16.6341 14.0996 16.4417 13.5282 16.3528 12.9214C16.264 12.3146 16.2811 11.6886 16.4029 11.092L17.9046 3.73202C18.0779 2.87865 18.4567 2.12503 18.9828 1.5874C19.5089 1.04977 20.1529 0.757997 20.8156 0.75708H28.3967C29.1004 0.757063 29.782 1.08538 30.3234 1.68519C30.8648 2.28499 31.2319 3.11851 31.3612 4.04142L32.3947 11.4014C32.4773 11.9838 32.4624 12.5834 32.3512 13.1573C32.24 13.7312 32.0351 14.2652 31.7513 14.7212C31.4674 15.1772 31.1116 15.544 30.7092 15.7952C30.3068 16.0465 29.8678 16.1761 29.4235 16.1747V16.1747Z" fill="white"/>
<path d="M21.9502 16.1746H19.0638C18.6 16.1746 18.1425 16.032 17.7267 15.7577C17.311 15.4835 16.9482 15.085 16.6666 14.5934C16.385 14.1017 16.1922 13.53 16.1031 12.9227C16.014 12.3154 16.031 11.6889 16.1529 11.0919L17.6557 3.73189C17.8301 2.88005 18.2094 2.12828 18.7354 1.59234C19.2614 1.0564 19.9048 0.766004 20.5667 0.765869H23.4531C22.7912 0.765506 22.1475 1.05571 21.6215 1.59173C21.0954 2.12775 20.7161 2.8798 20.5422 3.73189L19.0393 11.0919C18.9174 11.6889 18.9004 12.3154 18.9895 12.9227C19.0786 13.53 19.2714 14.1017 19.553 14.5934C19.8346 15.085 20.1974 15.4835 20.6131 15.7577C21.0289 16.032 21.4864 16.1746 21.9502 16.1746V16.1746Z" fill="#E2E1E0"/>
<path d="M32.8879 11.2676L31.8544 3.90759C31.699 2.8093 31.2611 1.81785 30.6163 1.10442C29.9715 0.390995 29.1601 0.000371728 28.3224 0H20.7413C19.9531 0.00164698 19.1871 0.348268 18.5607 0.986685C17.9344 1.6251 17.4824 2.52005 17.274 3.53423L15.7711 10.8942C15.6257 11.6056 15.6053 12.3522 15.7113 13.0758C15.8174 13.7994 16.0472 14.4807 16.3827 15.0666C16.7183 15.6524 17.1506 16.1271 17.6461 16.4537C18.1416 16.7804 18.6869 16.9501 19.2395 16.9497H29.3526C29.8806 16.9497 30.4022 16.7945 30.8801 16.4951C31.3581 16.1957 31.7808 15.7595 32.1181 15.2174C32.4554 14.6754 32.699 14.0409 32.8317 13.359C32.9643 12.6771 32.9828 11.9645 32.8856 11.2721L32.8879 11.2676ZM31.2334 14.2292C31.0048 14.5978 30.718 14.8945 30.3934 15.0979C30.0688 15.3014 29.7145 15.4065 29.3559 15.4057H19.2418C18.8666 15.4057 18.4965 15.2903 18.1602 15.0684C17.8239 14.8466 17.5305 14.5243 17.3027 14.1266C17.075 13.7289 16.919 13.2665 16.8469 12.7753C16.7748 12.2841 16.7886 11.7773 16.8871 11.2944V11.2944C17.3179 12.1411 17.8976 12.834 18.5755 13.3127C19.2534 13.7914 20.0088 14.0412 20.7758 14.0402H26.4082C27.0515 14.0424 27.6801 13.784 28.211 13.2993C28.7419 12.8146 29.1501 12.1264 29.3816 11.3256C29.6614 10.3275 29.7339 9.13159 29.5956 7.76906C29.5621 7.53732 29.4634 7.33146 29.3198 7.19361C29.1762 7.05575 28.9985 6.99633 28.8232 7.0275C28.6478 7.05867 28.488 7.17807 28.3765 7.36127C28.265 7.54448 28.2101 7.77763 28.2232 8.01301C28.3347 9.06911 28.2845 9.96457 28.085 10.6726C27.9539 11.1213 27.7239 11.5065 27.4253 11.7771C27.1267 12.0477 26.7736 12.1911 26.4127 12.1883H20.7769C20.0805 12.1893 19.4016 11.8971 18.837 11.3534C18.2723 10.8096 17.8506 10.042 17.6319 9.15985C17.5779 8.97511 17.5107 8.79777 17.4312 8.63031L18.39 3.93436C18.5315 3.24596 18.8383 2.63849 19.2634 2.20511C19.6886 1.77172 20.2085 1.53635 20.7435 1.53507H28.3247C28.8938 1.53556 29.4449 1.80131 29.8828 2.28638C30.3207 2.77146 30.6178 3.44538 30.7228 4.19169L31.7551 11.5517C31.8214 12.0217 31.809 12.5054 31.7188 12.9683C31.6286 13.4312 31.4628 13.8617 31.2334 14.2292V14.2292Z" fill="#00B564"/>
<path d="M17.0714 15.0621C16.734 14.4775 16.5031 13.7963 16.3968 13.0722C16.2906 12.3481 16.312 11.601 16.4594 10.8898L17.9633 3.52977C18.1727 2.51581 18.6255 1.62145 19.2524 0.983863C19.8793 0.346273 20.6457 0.000649611 21.4339 0H20.7405C19.9523 0.00164698 19.1863 0.348268 18.56 0.986685C17.9336 1.6251 17.4816 2.52005 17.2732 3.53423L15.7715 10.8942C15.6259 11.6054 15.6052 12.3518 15.7111 13.0753C15.8169 13.7989 16.0465 14.4801 16.3818 15.066C16.7172 15.6518 17.1493 16.1266 17.6447 16.4533C18.14 16.7801 18.6851 16.9499 19.2376 16.9497H19.9311C19.3773 16.9528 18.8306 16.7838 18.3343 16.4562C17.838 16.1286 17.4056 15.6513 17.0714 15.0621V15.0621Z" fill="#029950"/>
<path d="M22.8402 2.61338C23.52 2.61338 24.071 2.13055 24.071 1.53496C24.071 0.939367 23.52 0.456543 22.8402 0.456543C22.1604 0.456543 21.6094 0.939367 21.6094 1.53496C21.6094 2.13055 22.1604 2.61338 22.8402 2.61338Z" fill="white"/>
<path d="M22.848 16.484C23.5278 16.484 24.0788 16.0012 24.0788 15.4056C24.0788 14.81 23.5278 14.3271 22.848 14.3271C22.1682 14.3271 21.6172 14.81 21.6172 15.4056C21.6172 16.0012 22.1682 16.484 22.848 16.484Z" fill="white"/>
<path d="M31.6967 8.12659C32.0806 7.82284 32.1107 6.9443 31.7641 6.16433C31.4174 5.38436 30.8251 4.99831 30.4412 5.30206C30.0573 5.60581 30.0271 6.48434 30.3738 7.26431C30.7205 8.04429 31.3128 8.43034 31.6967 8.12659Z" fill="white"/>
<path d="M30.3438 2.26095C30.4566 1.68466 30.0148 1.0318 29.357 0.802723C28.6993 0.573651 28.0747 0.85512 27.962 1.4314C27.8492 2.00768 28.291 2.66055 28.9487 2.88963C29.6065 3.1187 30.2311 2.83723 30.3438 2.26095Z" fill="white"/>
<path d="M19.7305 15.4699C19.8433 14.8936 19.4015 14.2408 18.7438 14.0117C18.086 13.7826 17.4614 14.0641 17.3487 14.6404C17.2359 15.2167 17.6777 15.8695 18.3355 16.0986C18.9932 16.3277 19.6178 16.0462 19.7305 15.4699Z" fill="white"/>
<path d="M18.7748 6.99389C19.1095 6.20453 19.0659 5.32686 18.6774 5.03358C18.2889 4.7403 17.7025 5.14245 17.3678 5.93181C17.0331 6.72118 17.0767 7.59884 17.4652 7.89212C17.8537 8.18541 18.4401 7.78325 18.7748 6.99389Z" fill="white"/>
<path d="M21.4514 11.969C21.4956 11.3763 20.9831 10.8231 20.3067 10.7333C19.6302 10.6436 19.0461 11.0513 19.0019 11.6439C18.9577 12.2366 19.4702 12.7898 20.1467 12.8796C20.8231 12.9693 21.4073 12.5616 21.4514 11.969Z" fill="white"/>
<path d="M24.1621 13.2874C24.8374 13.1833 25.3433 12.6193 25.2921 12.0276C25.2408 11.436 24.6519 11.0407 23.9766 11.1448C23.3013 11.2489 22.7954 11.8129 22.8467 12.4045C22.8979 12.9962 23.4868 13.3915 24.1621 13.2874Z" fill="white"/>
<path d="M19.8384 3.27631C20.3565 3.19646 20.735 2.65209 20.6837 2.06043C20.6325 1.46877 20.171 1.05388 19.6529 1.13373C19.1348 1.21359 18.7564 1.75795 18.8076 2.34961C18.8588 2.94127 19.3204 3.35617 19.8384 3.27631Z" fill="white"/>
<path d="M25.3931 2.60908C25.9112 2.52922 26.2896 1.98485 26.2384 1.3932C26.1872 0.801539 25.7257 0.38664 25.2076 0.466495C24.6895 0.546349 24.3111 1.09072 24.3623 1.68238C24.4135 2.27403 24.875 2.68893 25.3931 2.60908Z" fill="white"/>
<path d="M31.7837 13.2885C32.3018 13.2087 32.6803 12.6643 32.629 12.0726C32.5778 11.481 32.1163 11.0661 31.5982 11.1459C31.0801 11.2258 30.7017 11.7702 30.7529 12.3618C30.8041 12.9535 31.2657 13.3684 31.7837 13.2885Z" fill="white"/>
<path d="M27.5884 16.4802C28.1065 16.4003 28.485 15.8559 28.4337 15.2643C28.3825 14.6726 27.921 14.2577 27.4029 14.3376C26.8848 14.4174 26.5064 14.9618 26.5576 15.5535C26.6088 16.1451 27.0704 16.56 27.5884 16.4802Z" fill="white"/>
<path d="M26.2426 10.3781C27.1662 10.3781 27.9149 8.93892 27.9149 7.16364C27.9149 5.38837 27.1662 3.94922 26.2426 3.94922C25.319 3.94922 24.5703 5.38837 24.5703 7.16364C24.5703 8.93892 25.319 10.3781 26.2426 10.3781Z" fill="#FC715A"/>
<path d="M25.2827 7.73487L21.4442 6.51514C21.3534 6.48631 21.2677 6.43387 21.1921 6.36083C21.1165 6.2878 21.0524 6.1956 21.0036 6.0895C20.9547 5.9834 20.922 5.86548 20.9073 5.7425C20.8926 5.61952 20.8962 5.49388 20.918 5.37276L21.2156 3.69936C21.2392 3.56778 21.2836 3.44445 21.3458 3.33763C21.408 3.23081 21.4866 3.14298 21.5764 3.08001C21.6661 3.01704 21.7649 2.98041 21.8661 2.97255C21.9674 2.96469 22.0687 2.9858 22.1633 3.03446L25.8792 4.93991C26.04 5.0223 26.1729 5.17974 26.2533 5.38299C26.3336 5.58625 26.356 5.82151 26.3162 6.0451L26.14 7.02683C26.1189 7.14868 26.0799 7.26374 26.0253 7.36539C25.9707 7.46704 25.9016 7.55325 25.8219 7.61907C25.7422 7.6849 25.6535 7.72901 25.561 7.74889C25.4684 7.76876 25.3739 7.764 25.2827 7.73487V7.73487Z" fill="#E88032"/>
<path d="M25.5629 9.53025L21.8938 11.464C21.7189 11.5558 21.5238 11.5515 21.3512 11.4519C21.1787 11.3524 21.0427 11.1658 20.9729 10.9329L20.4991 9.3339C20.4618 9.20805 20.4451 9.07301 20.4501 8.93783C20.4551 8.80266 20.4817 8.67048 20.5282 8.55017C20.5747 8.42986 20.6399 8.3242 20.7195 8.24028C20.799 8.15636 20.8912 8.09612 20.9896 8.06361L24.8538 6.78735C25.0209 6.73209 25.1974 6.7597 25.3504 6.86504C25.5033 6.97039 25.6224 7.14629 25.6855 7.36003L25.9642 8.29862C25.9985 8.41465 26.0154 8.53856 26.0138 8.66327C26.0122 8.78799 25.9922 8.91106 25.9549 9.02545C25.9176 9.13984 25.8638 9.2433 25.7965 9.32992C25.7293 9.41654 25.6499 9.48461 25.5629 9.53025Z" fill="#DB1B1B"/>
<path d="M13.7757 24.2294H3.66148C3.19768 24.2294 2.74013 24.0868 2.32437 23.8125C1.90861 23.5383 1.54584 23.1399 1.26425 22.6482C0.982653 22.1565 0.789816 21.5848 0.70072 20.9775C0.611625 20.3703 0.62867 19.7438 0.750531 19.1467L2.25339 11.7867C2.4263 10.9331 2.80509 10.1792 3.33123 9.64148C3.85737 9.10377 4.50158 8.81219 5.16434 8.81177H12.7455C13.4493 8.81169 14.1311 9.13996 14.6726 9.73974C15.2142 10.3395 15.5816 11.1731 15.7111 12.0961L16.7379 19.4636C16.8196 20.0445 16.8044 20.6423 16.6933 21.2145C16.5823 21.7867 16.3781 22.3192 16.0953 22.7742C15.8125 23.2292 15.458 23.5955 15.0571 23.847C14.6562 24.0985 14.2187 24.2291 13.7757 24.2294Z" fill="white"/>
<path d="M6.30069 24.2294H3.41538C2.95159 24.2294 2.49404 24.0868 2.07828 23.8125C1.66252 23.5383 1.29975 23.1399 1.01815 22.6482C0.736559 22.1565 0.543722 21.5848 0.454627 20.9775C0.365531 20.3703 0.382576 19.7438 0.504438 19.1467L2.00729 11.7867C2.17919 10.9323 2.55771 10.1776 3.08408 9.63964C3.61044 9.1017 4.2552 8.81068 4.91824 8.81177H7.80355C7.14084 8.81244 6.49672 9.10412 5.97061 9.64179C5.44451 10.1795 5.06568 10.9332 4.8926 11.7867L3.38974 19.1467C3.26788 19.7438 3.25084 20.3703 3.33993 20.9775C3.42903 21.5848 3.62186 22.1565 3.90346 22.6482C4.18505 23.1399 4.54783 23.5383 4.96358 23.8125C5.37934 24.0868 5.8369 24.2294 6.30069 24.2294V24.2294Z" fill="#E2E1E0"/>
<path d="M17.2363 19.3221L16.2039 11.9621C16.0491 10.8627 15.6113 9.87005 14.9662 9.15551C14.3211 8.44096 13.5093 8.04945 12.6709 8.04858H5.0897C4.30141 8.05057 3.53537 8.3975 2.90907 9.03617C2.28277 9.67483 1.83078 10.57 1.62243 11.5843L0.12626 18.9443C-0.0188878 19.6555 -0.0391944 20.4019 0.0669173 21.1253C0.173029 21.8487 0.402703 22.5297 0.738098 23.1155C1.07349 23.7012 1.50558 24.1759 2.0008 24.5027C2.49602 24.8295 3.04104 24.9996 3.59353 24.9998H13.7077C14.2356 24.9996 14.7571 24.8442 15.2349 24.5447C15.7127 24.2452 16.1353 23.809 16.4724 23.2669C16.8096 22.7249 17.0531 22.0905 17.1857 21.4087C17.3183 20.7269 17.3367 20.0145 17.2396 19.3221H17.2363ZM15.5818 22.2837C15.3531 22.652 15.0661 22.9482 14.7416 23.1514C14.417 23.3545 14.0629 23.4595 13.7044 23.4588H3.59019C3.21548 23.4582 2.84593 23.3423 2.51022 23.1202C2.17451 22.8982 1.88168 22.5758 1.65447 22.1783C1.42725 21.7808 1.27177 21.3187 1.20008 20.828C1.1284 20.3373 1.14245 19.8312 1.24114 19.3489C1.67149 20.1962 2.25105 20.8898 2.92902 21.3688C3.60699 21.8478 4.36268 22.0975 5.12983 22.0963H10.7611C11.4038 22.0961 12.0313 21.836 12.5609 21.3503C13.0906 20.8646 13.4974 20.1761 13.7278 19.3757C14.0087 18.3776 14.0801 17.1817 13.9418 15.8191C13.9357 15.6927 13.9102 15.5693 13.8668 15.4566C13.8234 15.344 13.7631 15.2444 13.6897 15.1641C13.6163 15.0838 13.5312 15.0245 13.4399 14.99C13.3485 14.9554 13.2528 14.9463 13.1587 14.9631C13.0646 14.98 12.9741 15.0225 12.8929 15.088C12.8116 15.1536 12.7413 15.2407 12.6864 15.344C12.6314 15.4473 12.593 15.5645 12.5734 15.6885C12.5539 15.8125 12.5536 15.9405 12.5728 16.0646C12.6842 17.1222 12.633 18.0161 12.4345 18.7242C12.3034 19.1729 12.0734 19.558 11.7748 19.8286C11.4763 20.0993 11.1232 20.2427 10.7622 20.2399H5.12649C4.43011 20.2408 3.75124 19.9488 3.1864 19.4054C2.62157 18.862 2.19953 18.0948 1.9803 17.2129C1.92668 17.0278 1.85985 16.8499 1.78074 16.6819L2.73953 11.9874C2.88087 11.2989 3.18766 10.6913 3.61281 10.2579C4.03796 9.82443 4.55798 9.58914 5.09304 9.58812H12.6742C13.2423 9.5904 13.7919 9.85698 14.2284 10.3419C14.665 10.8269 14.961 11.4998 15.0656 12.2447L16.0991 19.6047C16.166 20.0746 16.1543 20.5583 16.0649 21.0214C15.9755 21.4844 15.8105 21.9155 15.5818 22.2837Z" fill="#00B564"/>
<path d="M1.42767 23.1169C1.09025 22.5323 0.859305 21.8511 0.753082 21.127C0.646859 20.4029 0.668261 19.6557 0.815599 18.9445L2.31845 11.5845C2.52685 10.5703 2.97888 9.67539 3.6052 9.03698C4.23152 8.39856 4.99754 8.05194 5.78573 8.05029H5.09339C4.3052 8.05194 3.53918 8.39856 2.91286 9.03698C2.28654 9.67539 1.83451 10.5703 1.62612 11.5845L0.126604 18.9445C-0.0187796 19.6558 -0.0392596 20.4022 0.0667565 21.1257C0.172773 21.8493 0.402428 22.5304 0.73787 23.1163C1.07331 23.7021 1.5055 24.1768 2.00084 24.5035C2.49617 24.8303 3.04131 25.0002 3.59388 25H4.28621C3.73292 25.0034 3.18663 24.835 2.69052 24.5082C2.1944 24.1813 1.76206 23.705 1.42767 23.1169V23.1169Z" fill="#029950"/>
<path d="M7.19176 10.6683C7.87153 10.6683 8.42259 10.1855 8.42259 9.58989C8.42259 8.9943 7.87153 8.51147 7.19176 8.51147C6.512 8.51147 5.96094 8.9943 5.96094 9.58989C5.96094 10.1855 6.512 10.6683 7.19176 10.6683Z" fill="white"/>
<path d="M7.19567 24.5372C7.87544 24.5372 8.4265 24.0544 8.4265 23.4588C8.4265 22.8632 7.87544 22.3804 7.19567 22.3804C6.5159 22.3804 5.96484 22.8632 5.96484 23.4588C5.96484 24.0544 6.5159 24.5372 7.19567 24.5372Z" fill="white"/>
<path d="M16.0794 15.929C16.4624 15.6229 16.4897 14.7441 16.1404 13.9661C15.7911 13.188 15.1975 12.8054 14.8145 13.1114C14.4315 13.4174 14.4043 14.2963 14.7535 15.0743C15.1028 15.8524 15.6964 16.235 16.0794 15.929Z" fill="white"/>
<path d="M14.6954 10.3151C14.8081 9.73886 14.3663 9.08599 13.7086 8.85692C13.0509 8.62785 12.4263 8.90932 12.3135 9.4856C12.2008 10.0619 12.6426 10.7148 13.3003 10.9438C13.958 11.1729 14.5826 10.8914 14.6954 10.3151Z" fill="white"/>
<path d="M4.08209 23.5241C4.19484 22.9478 3.75305 22.295 3.09532 22.0659C2.43759 21.8368 1.813 22.1183 1.70025 22.6946C1.5875 23.2709 2.02929 23.9237 2.68701 24.1528C3.34474 24.3819 3.96934 24.1004 4.08209 23.5241Z" fill="white"/>
<path d="M3.12636 15.0481C3.4611 14.2587 3.41748 13.3811 3.02895 13.0878C2.64042 12.7945 2.0541 13.1966 1.71937 13.986C1.38464 14.7754 1.42825 15.653 1.81678 15.9463C2.20531 16.2396 2.79163 15.8375 3.12636 15.0481Z" fill="white"/>
<path d="M5.803 20.0234C5.84718 19.4308 5.33465 18.8775 4.65822 18.7878C3.98179 18.698 3.39762 19.1057 3.35344 19.6984C3.30925 20.291 3.82179 20.8443 4.49822 20.934C5.17465 21.0238 5.75882 20.6161 5.803 20.0234Z" fill="white"/>
<path d="M8.51369 21.3406C9.18896 21.2365 9.69485 20.6725 9.64362 20.0808C9.59239 19.4892 9.00344 19.0939 8.32816 19.198C7.65289 19.3021 7.147 19.8661 7.19823 20.4578C7.24946 21.0494 7.83841 21.4447 8.51369 21.3406Z" fill="white"/>
<path d="M4.18999 11.3298C4.70807 11.2499 5.08652 10.7056 5.03529 10.1139C4.98406 9.52224 4.52255 9.10734 4.00447 9.1872C3.48639 9.26705 3.10794 9.81142 3.15917 10.4031C3.2104 10.9947 3.67191 11.4096 4.18999 11.3298Z" fill="white"/>
<path d="M9.74077 10.6625C10.2589 10.5827 10.6373 10.0383 10.5861 9.44666C10.5348 8.85501 10.0733 8.44011 9.55525 8.51996C9.03717 8.59982 8.65872 9.14418 8.70995 9.73584C8.76118 10.3275 9.2227 10.7424 9.74077 10.6625Z" fill="white"/>
<path d="M16.1314 21.342C16.6495 21.2621 17.0279 20.7178 16.9767 20.1261C16.9255 19.5344 16.464 19.1195 15.9459 19.1994C15.4278 19.2793 15.0493 19.8236 15.1006 20.4153C15.1518 21.0069 15.6133 21.4218 16.1314 21.342Z" fill="white"/>
<path d="M11.9361 24.5319C12.4542 24.4521 12.8326 23.9077 12.7814 23.316C12.7302 22.7244 12.2686 22.3095 11.7506 22.3893C11.2325 22.4692 10.854 23.0136 10.9053 23.6052C10.9565 24.1969 11.418 24.6118 11.9361 24.5319Z" fill="white"/>
<path d="M10.5942 18.431C11.5178 18.431 12.2665 16.9919 12.2665 15.2166C12.2665 13.4413 11.5178 12.0022 10.5942 12.0022C9.6706 12.0022 8.92188 13.4413 8.92188 15.2166C8.92188 16.9919 9.6706 18.431 10.5942 18.431Z" fill="#FC715A"/>
<path d="M9.63398 15.7851L5.79657 14.5654C5.61313 14.5071 5.45454 14.3541 5.35565 14.1399C5.25677 13.9257 5.22568 13.6678 5.26923 13.423L5.56802 11.7511C5.59159 11.6195 5.63597 11.4962 5.69819 11.3894C5.7604 11.2826 5.83902 11.1947 5.92876 11.1318C6.0185 11.0688 6.1173 11.0322 6.21852 11.0243C6.31974 11.0165 6.42106 11.0376 6.51567 11.0862L10.2304 12.9946C10.391 13.0773 10.5237 13.2349 10.6039 13.4381C10.684 13.6413 10.7062 13.8764 10.6664 14.0998L10.4947 15.0816C10.4729 15.2033 10.4334 15.3181 10.3784 15.4194C10.3233 15.5207 10.2538 15.6064 10.1738 15.6718C10.0939 15.7372 10.005 15.7808 9.91237 15.8003C9.81973 15.8197 9.72513 15.8146 9.63398 15.7851V15.7851Z" fill="#E88032"/>
<path d="M9.91564 17.5851L6.24658 19.5189C6.15983 19.5647 6.06717 19.5873 5.97388 19.5853C5.88059 19.5834 5.7885 19.5569 5.70287 19.5075C5.61725 19.458 5.53977 19.3866 5.47486 19.2971C5.40995 19.2077 5.35888 19.1021 5.32457 18.9863L4.85075 17.3888C4.81343 17.263 4.79668 17.1281 4.80163 16.993C4.80658 16.8579 4.83312 16.7258 4.87947 16.6055C4.92582 16.4852 4.9909 16.3795 5.07036 16.2955C5.14982 16.2115 5.24181 16.1512 5.34018 16.1185L9.20435 14.8422C9.37147 14.7868 9.54799 14.8142 9.70114 14.9192C9.8543 15.0242 9.97369 15.1998 10.0372 15.4134L10.3159 16.3535C10.3502 16.4694 10.3671 16.5933 10.3656 16.7179C10.3641 16.8426 10.3442 16.9656 10.307 17.08C10.2698 17.1943 10.2161 17.2978 10.149 17.3845C10.0818 17.4712 10.0025 17.5394 9.91564 17.5851Z" fill="#DB1B1B"/>
<path d="M31.4749 24.2294H21.3607C20.8969 24.2294 20.4394 24.0868 20.0236 23.8125C19.6078 23.5383 19.2451 23.1399 18.9635 22.6482C18.6819 22.1565 18.489 21.5848 18.3999 20.9775C18.3108 20.3703 18.3279 19.7438 18.4497 19.1467L19.9526 11.7867C20.1255 10.9331 20.5043 10.1792 21.0304 9.64148C21.5566 9.10377 22.2008 8.81219 22.8636 8.81177H30.4447C31.1486 8.81169 31.8303 9.13996 32.3719 9.73974C32.9134 10.3395 33.2808 11.1731 33.4103 12.0961L34.4438 19.4561C34.5263 20.0383 34.5115 20.6376 34.4004 21.2113C34.2893 21.7849 34.0847 22.3188 33.8011 22.7748C33.5175 23.2307 33.162 23.5975 32.7598 23.849C32.3577 24.1004 31.919 24.2303 31.4749 24.2294V24.2294Z" fill="white"/>
<path d="M23.996 24.2294H21.1107C20.6469 24.2294 20.1894 24.0868 19.7736 23.8125C19.3578 23.5383 18.9951 23.1399 18.7135 22.6482C18.4319 22.1565 18.239 21.5848 18.1499 20.9775C18.0608 20.3703 18.0779 19.7438 18.1997 19.1467L19.7026 11.7867C19.8755 10.9331 20.2543 10.1792 20.7804 9.64148C21.3066 9.10377 21.9508 8.81219 22.6136 8.81177H25.5C24.8369 8.81068 24.1922 9.1017 23.6658 9.63964C23.1394 10.1776 22.7609 10.9323 22.589 11.7867L21.0851 19.1467C20.963 19.7438 20.9457 20.3704 21.0347 20.9778C21.1237 21.5852 21.3166 22.157 21.5982 22.6488C21.8798 23.1405 22.2427 23.539 22.6586 23.8131C23.0745 24.0873 23.5321 24.2297 23.996 24.2294V24.2294Z" fill="#E2E1E0"/>
<path d="M34.9366 19.3221L33.9087 11.9621C33.7543 10.8627 33.3168 9.86991 32.6719 9.1553C32.0269 8.44068 31.2151 8.04922 30.3768 8.04858H22.7956C22.0073 8.05057 21.2413 8.3975 20.615 9.03617C19.9887 9.67483 19.5367 10.57 19.3283 11.5843L17.8255 18.9443C17.6803 19.6555 17.66 20.4019 17.7661 21.1253C17.8722 21.8487 18.1019 22.5297 18.4373 23.1155C18.7727 23.7012 19.2048 24.1759 19.7 24.5027C20.1952 24.8295 20.7403 24.9996 21.2927 24.9998H31.4069C31.935 24.9998 32.4565 24.8446 32.9345 24.5452C33.4125 24.2458 33.8351 23.8096 34.1724 23.2675C34.5097 22.7255 34.7533 22.0909 34.886 21.409C35.0187 20.7271 35.0371 20.0146 34.94 19.3221H34.9366ZM33.281 22.2837C33.0523 22.652 32.7654 22.9482 32.4408 23.1514C32.1163 23.3545 31.7621 23.4595 31.4036 23.4588H21.2894C20.9144 23.4588 20.5444 23.3434 20.2083 23.1216C19.8721 22.8998 19.5788 22.5777 19.3512 22.1801C19.1235 21.7825 18.9676 21.3203 18.8956 20.8292C18.8235 20.3382 18.8373 19.8317 18.9359 19.3489C19.3664 20.196 19.946 20.8895 20.6239 21.3684C21.3019 21.8474 22.0575 22.0973 22.8246 22.0963H28.457C29.1002 22.0984 29.7289 21.84 30.2598 21.3553C30.7907 20.8706 31.1988 20.1824 31.4303 19.3816C31.7113 18.3835 31.7838 17.1876 31.6444 15.8251C31.635 15.7022 31.6073 15.583 31.5628 15.4747C31.5183 15.3663 31.458 15.271 31.3854 15.1943C31.3128 15.1176 31.2294 15.0611 31.1402 15.0281C31.0509 14.9952 30.9576 14.9865 30.8658 15.0025C30.774 15.0185 30.6855 15.059 30.6056 15.1214C30.5257 15.1839 30.456 15.2671 30.4007 15.3661C30.3453 15.4651 30.3054 15.578 30.2833 15.6979C30.2612 15.8179 30.2573 15.9426 30.272 16.0646C30.3835 17.1222 30.3333 18.0161 30.1337 18.7242C30.0027 19.1729 29.7726 19.558 29.4741 19.8286C29.1755 20.0993 28.8224 20.2427 28.4614 20.2399H22.8257C22.1293 20.2408 21.4505 19.9488 20.8856 19.4054C20.3208 18.862 19.8987 18.0948 19.6795 17.2129C19.6259 17.0278 19.5591 16.8499 19.48 16.6819L20.4388 11.9874C20.5803 11.299 20.8871 10.6915 21.3122 10.2582C21.7373 9.82477 22.2572 9.58939 22.7923 9.58812H30.3734C30.9423 9.58831 31.4933 9.8538 31.931 10.3386C32.3687 10.8235 32.6656 11.4972 32.7704 12.2433L33.7972 19.6047C33.8642 20.0744 33.8527 20.5581 33.7635 21.0212C33.6743 21.4843 33.5095 21.9153 33.281 22.2837V22.2837Z" fill="#00B564"/>
<path d="M19.1263 23.1169C18.7891 22.5322 18.5584 21.8509 18.4523 21.1268C18.3463 20.4027 18.3679 19.6556 18.5154 18.9445L20.0171 11.5845C20.2255 10.5703 20.6775 9.67539 21.3039 9.03698C21.9302 8.39856 22.6962 8.05194 23.4844 8.05029H22.792C22.0039 8.05194 21.2378 8.39856 20.6115 9.03698C19.9852 9.67539 19.5332 10.5703 19.3248 11.5845L17.8219 18.9445C17.6765 19.6558 17.6561 20.4022 17.7621 21.1257C17.8681 21.8493 18.0977 22.5304 18.4332 23.1163C18.7686 23.7021 19.2008 24.1768 19.6961 24.5035C20.1915 24.8303 20.7366 25.0002 21.2892 25H21.9793C21.4269 25.0022 20.8818 24.8333 20.3867 24.5065C19.8916 24.1797 19.4602 23.704 19.1263 23.1169Z" fill="#029950"/>
<path d="M24.891 10.6683C25.5707 10.6683 26.1218 10.1855 26.1218 9.58989C26.1218 8.9943 25.5707 8.51147 24.891 8.51147C24.2112 8.51147 23.6602 8.9943 23.6602 9.58989C23.6602 10.1855 24.2112 10.6683 24.891 10.6683Z" fill="white"/>
<path d="M24.8949 24.5372C25.5747 24.5372 26.1257 24.0544 26.1257 23.4588C26.1257 22.8632 25.5747 22.3804 24.8949 22.3804C24.2151 22.3804 23.6641 22.8632 23.6641 23.4588C23.6641 24.0544 24.2151 24.5372 24.8949 24.5372Z" fill="white"/>
<path d="M33.7786 15.9312C34.1616 15.6251 34.1889 14.7463 33.8396 13.9682C33.4903 13.1902 32.8967 12.8076 32.5137 13.1136C32.1308 13.4196 32.1035 14.2985 32.4528 15.0765C32.8021 15.8546 33.3957 16.2372 33.7786 15.9312Z" fill="white"/>
<path d="M32.3946 10.3149C32.5073 9.73862 32.0655 9.08575 31.4078 8.85668C30.7501 8.62761 30.1255 8.90907 30.0127 9.48536C29.9 10.0616 30.3418 10.7145 30.9995 10.9436C31.6572 11.1727 32.2818 10.8912 32.3946 10.3149Z" fill="white"/>
<path d="M21.7813 23.5254C21.8941 22.9491 21.4523 22.2962 20.7945 22.0671C20.1368 21.8381 19.5122 22.1195 19.3995 22.6958C19.2867 23.2721 19.7285 23.925 20.3862 24.154C21.044 24.3831 21.6686 24.1016 21.7813 23.5254Z" fill="white"/>
<path d="M20.8217 15.0481C21.1564 14.2587 21.1128 13.3811 20.7243 13.0878C20.3357 12.7945 19.7494 13.1966 19.4147 13.986C19.0799 14.7754 19.1236 15.653 19.5121 15.9463C19.9006 16.2396 20.4869 15.8375 20.8217 15.0481Z" fill="white"/>
<path d="M23.5022 20.0234C23.5464 19.4308 23.0339 18.8775 22.3574 18.7878C21.681 18.698 21.0968 19.1057 21.0527 19.6984C21.0085 20.291 21.521 20.8443 22.1974 20.934C22.8739 21.0238 23.458 20.6161 23.5022 20.0234Z" fill="white"/>
<path d="M26.2129 21.3428C26.8882 21.2387 27.3941 20.6747 27.3428 20.083C27.2916 19.4914 26.7027 19.0961 26.0274 19.2002C25.3521 19.3043 24.8462 19.8683 24.8974 20.46C24.9487 21.0516 25.5376 21.4469 26.2129 21.3428Z" fill="white"/>
<path d="M21.8892 11.3315C22.4073 11.2516 22.7857 10.7073 22.7345 10.1156C22.6833 9.52395 22.2218 9.10905 21.7037 9.18891C21.1856 9.26876 20.8072 9.81313 20.8584 10.4048C20.9096 10.9964 21.3711 11.4113 21.8892 11.3315Z" fill="white"/>
<path d="M27.44 10.6643C27.9581 10.5844 28.3365 10.04 28.2853 9.44837C28.2341 8.85671 27.7725 8.44182 27.2545 8.52167C26.7364 8.60152 26.3579 9.14589 26.4092 9.73755C26.4604 10.3292 26.9219 10.7441 27.44 10.6643Z" fill="white"/>
<path d="M33.8306 21.3437C34.3487 21.2638 34.7272 20.7195 34.6759 20.1278C34.6247 19.5362 34.1632 19.1213 33.6451 19.2011C33.127 19.281 32.7486 19.8253 32.7998 20.417C32.851 21.0087 33.3125 21.4236 33.8306 21.3437Z" fill="white"/>
<path d="M29.6353 24.5336C30.1534 24.4538 30.5318 23.9094 30.4806 23.3178C30.4294 22.7261 29.9679 22.3112 29.4498 22.3911C28.9317 22.4709 28.5532 23.0153 28.6045 23.6069C28.6557 24.1986 29.1172 24.6135 29.6353 24.5336Z" fill="white"/>
<path d="M28.2934 18.431C29.217 18.431 29.9657 16.9919 29.9657 15.2166C29.9657 13.4413 29.217 12.0022 28.2934 12.0022C27.3698 12.0022 26.6211 13.4413 26.6211 15.2166C26.6211 16.9919 27.3698 18.431 28.2934 18.431Z" fill="#FC715A"/>
<path d="M27.3304 15.7851L23.4919 14.5654C23.3084 14.5071 23.1498 14.3541 23.051 14.1399C22.9521 13.9257 22.921 13.6678 22.9645 13.423L23.2667 11.7511C23.2902 11.6195 23.3346 11.4962 23.3968 11.3894C23.4591 11.2826 23.5377 11.1947 23.6274 11.1318C23.7172 11.0688 23.816 11.0322 23.9172 11.0243C24.0184 11.0165 24.1197 11.0376 24.2143 11.0862L27.9291 12.9946C28.0897 13.0773 28.2224 13.2349 28.3025 13.4381C28.3827 13.6413 28.4049 13.8764 28.365 14.0998L28.19 15.0831C28.1683 15.2046 28.1288 15.3192 28.0738 15.4203C28.0188 15.5214 27.9493 15.607 27.8695 15.6723C27.7896 15.7375 27.7009 15.781 27.6084 15.8004C27.5159 15.8198 27.4214 15.8146 27.3304 15.7851Z" fill="#E88032"/>
<path d="M27.6109 17.5849L23.9429 19.5186C23.7676 19.6112 23.5718 19.6072 23.3987 19.5073C23.2256 19.4075 23.0893 19.22 23.0198 18.9861L22.546 17.387C22.5086 17.2612 22.4919 17.1262 22.497 16.991C22.502 16.8558 22.5286 16.7236 22.5751 16.6033C22.6215 16.483 22.6868 16.3773 22.7663 16.2934C22.8459 16.2095 22.938 16.1493 23.0365 16.1167L26.9007 14.8405C27.0677 14.7848 27.2441 14.8121 27.3971 14.9172C27.5502 15.0222 27.6693 15.198 27.7324 15.4117L28.0111 16.3518C28.0456 16.4678 28.0627 16.5917 28.0612 16.7166C28.0598 16.8414 28.0399 16.9646 28.0027 17.0791C27.9656 17.1937 27.9118 17.2973 27.8446 17.3841C27.7773 17.4709 27.6979 17.5391 27.6109 17.5849V17.5849Z" fill="#DB1B1B"/>
</svg>
